<?xml version="1.0" encoding="utf-8"?>
<!-- Generator: Adobe Illustrator 16.0.0, SVG Export Plug-In . SVG Version: 6.00 Build 0)  -->
<!DOCTYPE svg PUBLIC "-//W3C//DTD SVG 1.1//EN" "http://www.w3.org/Graphics/SVG/1.1/DTD/svg11.dtd">
<svg version="1.1" id="Layer_1" xmlns="http://www.w3.org/2000/svg" xmlns:xlink="http://www.w3.org/1999/xlink" x="0px" y="0px"
	 width="40px" height="40px" viewBox="0 0 40 40" enable-background="new 0 0 40 40" xml:space="preserve">
<circle fill="#CC2036" cx="20" cy="20" r="19.09"/>
<g>
	<path fill="#FFFFFF" d="M16.365,21.224c0.576,0.081,2.049-3.381,2.155-3.458c0.105-0.076,2.225,0.092,1.946-1.038
		c-0.638,0.54-0.937-0.045-0.907-0.47c0.029-0.426,0.569-1.33,0.71-1.269c0.142,0.062,0.387,0.565,0.897,0.099
		c-0.772,0.074-0.59-1.056-0.351-1.192c0.241-0.134,1.174-0.547,1.443-0.809c0.271-0.262,0.291-1.088,0.843-0.907
		c0.551,0.182,0.145,1.354,0.308,1.749c0.165,0.395,1.655,1.655,1.631,2.051c-0.026,0.399-0.652,0.326-0.638,0.881
		c0,0.226,0.391,0.393,0.4,0.655c0.012,0.262-0.422,0.459-0.422,0.459s0.372,0.101,0.3,0.496c-0.074,0.393-0.55,0.274-0.702,0.356
		c-0.071,0.04,0.73,0.919,0.134,1.583c-0.54,0.633-3.237-0.034-3.755,0.167c-0.977,0.381-1.786,1.696-1.248,2.32
		c0.537,0.621,2.394,2.63,2.876,4.3c0.827,2.189-1.2,6.009-2.333,3.236c-1.604,1.08,1.75,5.046,6.455-0.92
		c3.604-4.854,1.842-13.688,0.777-15.671c-1.064-1.984-6.022-8.837-11.343-5.804C8.924,11.654,12.072,20.403,16.365,21.224z"/>
</g>
</svg>
