<?xml version="1.0" encoding="utf-8"?>
<!-- Generator: Adobe Illustrator 16.0.0, SVG Export Plug-In . SVG Version: 6.00 Build 0)  -->
<!DOCTYPE svg PUBLIC "-//W3C//DTD SVG 1.1//EN" "http://www.w3.org/Graphics/SVG/1.1/DTD/svg11.dtd">
<svg version="1.1" id="Layer_1" xmlns="http://www.w3.org/2000/svg" xmlns:xlink="http://www.w3.org/1999/xlink" x="0px" y="0px"
	 width="40px" height="40px" viewBox="0 0 40 40" enable-background="new 0 0 40 40" xml:space="preserve">
<circle fill="#CC2036" cx="20.317" cy="19.841" r="19.09"/>
<g>
	<g>
		<path fill="#FFFFFF" d="M20.267,13.624c3.435,0,6.22,2.783,6.22,6.218c0,3.433-2.785,6.218-6.22,6.218
			c-3.434,0-6.217-2.785-6.217-6.218C14.049,16.407,16.833,13.624,20.267,13.624z"/>
		<path fill="#FFFFFF" d="M12.216,20.875c0.037-0.026,0.057-0.07,0.057-0.115v-1.836c0-0.045-0.02-0.087-0.057-0.115
			c-0.035-0.028-0.082-0.037-0.125-0.025l-3.412,0.919c-0.126,0.034-0.126,0.245,0,0.28l3.412,0.918
			C12.133,20.91,12.181,20.901,12.216,20.875z"/>
		<path fill="#FFFFFF" d="M31.957,19.702l-3.41-0.919c-0.045-0.01-0.09-0.002-0.125,0.025c-0.037,0.027-0.059,0.07-0.059,0.115
			v1.837c0,0.044,0.021,0.088,0.059,0.114c0.035,0.027,0.08,0.035,0.125,0.025l3.41-0.918
			C32.082,19.947,32.082,19.736,31.957,19.702z"/>
		<path fill="#FFFFFF" d="M21.186,27.641h-1.837c-0.045,0-0.089,0.021-0.115,0.056c-0.028,0.036-0.038,0.081-0.025,0.123
			l0.917,3.414c0.035,0.124,0.247,0.124,0.28,0l0.918-3.414c0.011-0.042,0.002-0.087-0.025-0.123
			C21.271,27.661,21.229,27.641,21.186,27.641z"/>
		<path fill="#FFFFFF" d="M19.349,12.043h1.836c0.045,0,0.086-0.02,0.113-0.055c0.027-0.037,0.037-0.082,0.027-0.127l-0.919-3.411
			c-0.034-0.126-0.246-0.126-0.28,0l-0.917,3.411c-0.012,0.043-0.003,0.09,0.025,0.125C19.259,12.023,19.304,12.043,19.349,12.043z"
			/>
		<path fill="#FFFFFF" d="M14.104,24.706c-0.032-0.031-0.077-0.046-0.12-0.041c-0.045,0.005-0.084,0.031-0.107,0.071l-1.763,3.061
			c-0.066,0.113,0.083,0.264,0.198,0.198l3.062-1.764c0.039-0.022,0.064-0.062,0.072-0.105c0.004-0.046-0.01-0.089-0.042-0.122
			L14.104,24.706z"/>
		<path fill="#FFFFFF" d="M26.43,14.977c0.031,0.033,0.076,0.048,0.121,0.042s0.08-0.032,0.107-0.071l1.764-3.062
			c0.063-0.114-0.086-0.265-0.201-0.197l-3.059,1.763c-0.041,0.022-0.066,0.062-0.072,0.107c-0.006,0.045,0.008,0.088,0.039,0.119
			L26.43,14.977z"/>
		<path fill="#FFFFFF" d="M25.953,24.736c-0.023-0.038-0.063-0.065-0.105-0.071c-0.047-0.005-0.09,0.01-0.121,0.041l-1.301,1.3
			c-0.029,0.031-0.045,0.077-0.041,0.12c0.006,0.044,0.033,0.084,0.072,0.106l3.061,1.763c0.113,0.065,0.266-0.084,0.199-0.196
			L25.953,24.736z"/>
		<path fill="#FFFFFF" d="M13.185,14.959c0.019,0.037,0.056,0.06,0.098,0.063c0.042,0.003,0.086-0.013,0.116-0.046l1.299-1.299
			c0.032-0.031,0.049-0.074,0.043-0.116c-0.001-0.042-0.025-0.078-0.062-0.099l-2.83-1.532c-0.105-0.056-0.257,0.093-0.198,0.198
			L13.185,14.959z"/>
	</g>
</g>
</svg>
