<?xml version="1.0" encoding="utf-8"?>
<!-- Generator: Adobe Illustrator 16.0.0, SVG Export Plug-In . SVG Version: 6.00 Build 0)  -->
<!DOCTYPE svg PUBLIC "-//W3C//DTD SVG 1.1//EN" "http://www.w3.org/Graphics/SVG/1.1/DTD/svg11.dtd">
<svg version="1.1" id="Layer_1" xmlns="http://www.w3.org/2000/svg" xmlns:xlink="http://www.w3.org/1999/xlink" x="0px" y="0px"
	 width="50px" height="50px" viewBox="0 0 50 50" enable-background="new 0 0 50 50" xml:space="preserve">
<g>
	<path fill="#CC0033" d="M36.876,14.066c-4.829,0-8.759,3.929-8.759,8.759v23.959c0,1.222,0.993,2.215,2.215,2.215h13.089
		c1.221,0,2.214-0.993,2.214-2.215V22.825C45.635,17.995,41.706,14.066,36.876,14.066z"/>
	<path fill="#CC0033" d="M22.593,33.636l-0.511-14.155c-0.054-1.508-1.131-2.781-2.54-3.151l0.009-6.618
		c0.001-1.077-0.646-2.461-1.472-3.151l-6.005-5.014c-0.349-0.292-0.699-0.439-1.04-0.439c-0.359,0-0.682,0.174-0.887,0.479
		c-0.17,0.252-0.256,0.583-0.256,0.981l0.013,13.761c-1.41,0.37-2.488,1.642-2.543,3.152L6.851,33.636
		c-0.88,0.294-1.518,1.124-1.518,2.101v11.048c0,1.222,0.994,2.215,2.214,2.215h14.349c1.221,0,2.215-0.993,2.215-2.215V35.736
		C24.11,34.76,23.473,33.93,22.593,33.636z M9.537,33.522l0.445-12.331c0.028-0.758,0.672-1.38,1.431-1.38h6.617
		c0.76,0,1.404,0.622,1.431,1.38l0.446,12.331H9.537z"/>
</g>
<g>
</g>
<g>
</g>
<g>
</g>
<g>
</g>
<g>
</g>
<g>
</g>
</svg>
