<?xml version="1.0" encoding="utf-8"?>
<!-- Generator: Adobe Illustrator 16.0.0, SVG Export Plug-In . SVG Version: 6.00 Build 0)  -->
<!DOCTYPE svg PUBLIC "-//W3C//DTD SVG 1.1//EN" "http://www.w3.org/Graphics/SVG/1.1/DTD/svg11.dtd">
<svg version="1.1" id="Layer_1" xmlns="http://www.w3.org/2000/svg" xmlns:xlink="http://www.w3.org/1999/xlink" x="0px" y="0px"
	 width="40px" height="40px" viewBox="0 0 40 40" enable-background="new 0 0 40 40" xml:space="preserve">
<circle fill="#CC2036" cx="20" cy="20" r="19.09"/>
<g>
	<path fill="#FFFFFF" d="M25.585,14.613c-2.367,0-4.294,1.926-4.294,4.295v11.747c0,0.599,0.487,1.086,1.085,1.086h6.417
		c0.6,0,1.087-0.487,1.087-1.086V18.908C29.88,16.539,27.954,14.613,25.585,14.613z"/>
	<path fill="#FFFFFF" d="M18.582,24.208l-0.251-6.94c-0.026-0.738-0.555-1.363-1.245-1.545l0.004-3.244
		c0.001-0.528-0.315-1.207-0.721-1.544l-2.944-2.459c-0.171-0.142-0.343-0.215-0.51-0.215c-0.176,0-0.335,0.086-0.435,0.235
		c-0.084,0.124-0.126,0.286-0.126,0.482l0.007,6.746c-0.691,0.181-1.22,0.805-1.247,1.545l-0.251,6.94
		c-0.432,0.145-0.744,0.551-0.744,1.031v5.416c0,0.599,0.487,1.086,1.086,1.086h7.035c0.599,0,1.086-0.487,1.086-1.086v-5.416
		C19.326,24.759,19.014,24.353,18.582,24.208z M12.181,24.153l0.218-6.047c0.015-0.372,0.329-0.676,0.702-0.676h3.245
		c0.371,0,0.688,0.304,0.701,0.676l0.219,6.047H12.181z"/>
</g>
</svg>
