<?xml version="1.0" encoding="utf-8"?>
<!-- Generator: Adobe Illustrator 16.0.0, SVG Export Plug-In . SVG Version: 6.00 Build 0)  -->
<!DOCTYPE svg PUBLIC "-//W3C//DTD SVG 1.1//EN" "http://www.w3.org/Graphics/SVG/1.1/DTD/svg11.dtd">
<svg version="1.1" id="Capa_1" xmlns="http://www.w3.org/2000/svg" xmlns:xlink="http://www.w3.org/1999/xlink" x="0px" y="0px"
	 width="32px" height="32px" viewBox="31.667 31.667 32 32" enable-background="new 31.667 31.667 32 32" xml:space="preserve">
<g>
	<g>
		<path fill="#39569B" d="M63.484,31.667H32.348c-0.376,0-0.682,0.306-0.682,0.682v31.136c0,0.376,0.306,0.682,0.682,0.682H48.89
			V53.307h-3.491c-0.302,0-0.546-0.245-0.546-0.546v-4.403c0-0.302,0.244-0.546,0.546-0.546h3.492v-3.039
			c0-4.003,2.521-6.591,6.422-6.591l3.474,0.006c0.301,0,0.545,0.245,0.545,0.546v4.088c0,0.302-0.244,0.546-0.546,0.546l-2.34,0
			c-1.612,0-1.907,0.629-1.907,1.867v2.576h4.084c0.146,0,0.283,0.057,0.387,0.16c0.102,0.103,0.16,0.242,0.16,0.386l-0.002,4.403
			c0,0.301-0.245,0.546-0.547,0.546h-4.082v10.859h8.945c0.376,0,0.682-0.306,0.682-0.682V32.349
			C64.166,31.972,63.861,31.667,63.484,31.667z"/>
	</g>
</g>
</svg>
