<?xml version="1.0"?>
<svg version="1.1" xmlns="http://www.w3.org/2000/svg" xmlns:xlink="http://www.w3.org/1999/xlink" width="30" height="30">
    <desc iVinci="yes" version="4.6" gridStep="20" showGrid="no" snapToGrid="no" codePlatform="0"/>
    <g id="Layer1" name="Layer 1" opacity="1">
        <g id="Shape1">
            <desc shapeID="1" type="0" basicInfo-basicType="0" basicInfo-roundedRectRadius="12" basicInfo-polygonSides="6" basicInfo-starPoints="5" bounding="rect(-206,-206,412,412)" text="" font-familyName="" font-pixelSize="20" font-bold="0" font-underline="0" font-alignment="1" strokeStyle="0" markerStart="0" markerEnd="0" shadowEnabled="0" shadowOffsetX="0" shadowOffsetY="2" shadowBlur="4" shadowOpacity="160" blurEnabled="0" blurRadius="4" transform="matrix(0.0728155,0,0,0.0728155,15,15)" pers-center="0,0" pers-size="0,0" pers-start="0,0" pers-end="0,0" locked="0" mesh="" flag=""/>
            <path id="shapePath1" d="M11.8362,14.9996 C11.8362,13.212 13.2852,11.7635 15.0728,11.7635 C16.8604,11.7635 18.3097,13.2121 18.3097,14.9996 C18.3097,16.787 16.8604,18.2366 15.0728,18.2366 C13.2852,18.2366 11.8362,16.787 11.8362,14.9996 M20.2509,14.9996 C20.2509,17.86 17.9326,20.1783 15.0728,20.1783 C12.2131,20.1783 9.89468,17.86 9.89468,14.9996 C9.89468,14.5521 9.95796,14.1191 10.0647,13.7048 L8.59944,13.7048 L8.59944,20.8256 C8.59944,21.1827 8.88932,21.4723 9.24735,21.4723 L20.8984,21.4723 C21.2565,21.4723 21.5464,21.1827 21.5464,20.8256 L21.5464,13.7048 L20.0811,13.7048 C20.188,14.1191 20.2509,14.5521 20.2509,14.9996 M20.8984,8.5267 L18.9569,8.5267 C18.5993,8.5267 18.3097,8.81658 18.3097,9.17403 L18.3097,11.1162 C18.3097,11.4734 18.5993,11.7636 18.9569,11.7636 L20.8984,11.7636 C21.2565,11.7636 21.5464,11.4735 21.5464,11.1162 L21.5464,9.17403 C21.5464,8.81658 21.2565,8.5267 20.8984,8.5267 M30,15 C30,23.2843 23.2843,30 15,30 C6.7157,30 -2.86102e-06,23.2843 -2.86102e-06,15 C-2.86102e-06,6.7157 6.7157,-2.86102e-06 15,-2.86102e-06 C23.2843,-2.86102e-06 30,6.7157 30,15 M23.4878,8.5267 C23.4878,7.4542 22.6187,6.58507 21.5464,6.58507 L8.59944,6.58507 C7.5273,6.58507 6.65789,7.4542 6.65789,8.5267 L6.65789,21.4723 C6.65789,22.5453 7.5273,23.415 8.59944,23.415 L21.5465,23.415 C22.6188,23.415 23.4879,22.5454 23.4879,21.4723 L23.4879,8.5267 L23.4878,8.5267 Z" style="stroke:none;fill-rule:nonzero;fill:#cc0033;fill-opacity:1;"/>
        </g>
    </g>
</svg>
