<?xml version="1.0" encoding="utf-8"?>
<!-- Generator: Adobe Illustrator 16.0.0, SVG Export Plug-In . SVG Version: 6.00 Build 0)  -->
<!DOCTYPE svg PUBLIC "-//W3C//DTD SVG 1.1//EN" "http://www.w3.org/Graphics/SVG/1.1/DTD/svg11.dtd">
<svg version="1.1" id="Layer_1" xmlns="http://www.w3.org/2000/svg" xmlns:xlink="http://www.w3.org/1999/xlink" x="0px" y="0px"
	 width="40px" height="40px" viewBox="0 0 40 40" enable-background="new 0 0 40 40" xml:space="preserve">
<circle fill="#CC2036" cx="20" cy="20" r="19.09"/>
<g>
	<g>
		<path fill="#FFFFFF" d="M20,10.069c1.256,0,2.277,1.022,2.277,2.278h1.627c0-2.153-1.751-3.905-3.904-3.905
			c-2.153,0-3.905,1.751-3.905,3.905h1.627C17.723,11.091,18.744,10.069,20,10.069z"/>
		<path fill="#FFFFFF" d="M29.215,30.653l-1.082-16.741c-0.024-0.431-0.381-0.767-0.813-0.767H12.678
			c-0.431,0-0.787,0.336-0.812,0.767l-1.085,16.784c-0.013,0.224,0.067,0.443,0.221,0.605c0.154,0.162,0.368,0.255,0.592,0.255
			h16.812c0.001,0,0.001,0,0.001,0c0.449,0,0.813-0.364,0.813-0.813C29.22,30.713,29.219,30.683,29.215,30.653z M18.399,15.731
			c0,0.568-0.461,1.03-1.03,1.03c-0.568,0-1.029-0.461-1.029-1.03v-0.587c0-0.568,0.461-1.029,1.029-1.029
			c0.569,0,1.03,0.461,1.03,1.029V15.731z M23.661,15.731c0,0.568-0.462,1.03-1.03,1.03s-1.03-0.461-1.03-1.03v-0.587
			c0-0.568,0.462-1.029,1.03-1.029s1.03,0.461,1.03,1.029V15.731z"/>
	</g>
</g>
</svg>
