<?xml version="1.0" encoding="utf-8"?>
<!-- Generator: Adobe Illustrator 16.0.0, SVG Export Plug-In . SVG Version: 6.00 Build 0)  -->
<!DOCTYPE svg PUBLIC "-//W3C//DTD SVG 1.1//EN" "http://www.w3.org/Graphics/SVG/1.1/DTD/svg11.dtd">
<svg version="1.1" id="Layer_1" xmlns="http://www.w3.org/2000/svg" xmlns:xlink="http://www.w3.org/1999/xlink" x="0px" y="0px"
	 width="40px" height="40px" viewBox="0 0 40 40" enable-background="new 0 0 40 40" xml:space="preserve">
<circle fill="#CC2036" cx="20" cy="19.837" r="19.09"/>
<g>
	<path fill="#FFFFFF" d="M8.465,27.094c0,1.447,1.178,2.625,2.625,2.625h0.583h16.021h1.166h1.215v-1.166h-1.215v-2.918h1.215
		v-0.511h0.584h0.875v-1.166H30.66V21.04h0.875v-1.167H30.66h-0.072v-0.389v-0.583v-0.025l-1.441-2.698h1.514v-1.57l-3.807-4.654
		H13.419l-3.464,5.458c-0.593,0.483-0.979,1.208-0.979,2.03c0,1.439,1.164,2.608,2.6,2.623c-0.966,0.388-1.652,1.331-1.652,2.433
		c0,0.801,0.369,1.511,0.936,1.991C9.521,24.61,8.465,25.725,8.465,27.094z M10.143,17.443c0-0.543,0.303-1.014,0.746-1.264h17.389
		v2.723H11.602C10.797,18.902,10.143,18.247,10.143,17.443z M12.549,21.04h0.584h16.361v2.918H13.133h-0.584
		c-0.804,0-1.458-0.655-1.458-1.459C11.091,21.694,11.745,21.04,12.549,21.04z M11.091,25.635h0.583h16.021v2.918H11.674h-0.583
		c-0.804,0-1.458-0.655-1.458-1.459C9.632,26.288,10.287,25.635,11.091,25.635z"/>
</g>
</svg>
