<?xml version="1.0" encoding="utf-8"?>
<!-- Generator: Adobe Illustrator 16.0.0, SVG Export Plug-In . SVG Version: 6.00 Build 0)  -->
<!DOCTYPE svg PUBLIC "-//W3C//DTD SVG 1.1//EN" "http://www.w3.org/Graphics/SVG/1.1/DTD/svg11.dtd">
<svg version="1.1" id="Layer_1" xmlns="http://www.w3.org/2000/svg" xmlns:xlink="http://www.w3.org/1999/xlink" x="0px" y="0px"
	 width="496.61px" height="138.983px" viewBox="0 0 496.61 138.983" enable-background="new 0 0 496.61 138.983"
	 xml:space="preserve">
<g>
	<path fill="#FFFFFF" d="M67.471,10.501l0.2,0.4c0,0.135-0.034,0.234-0.1,0.3c-0.069,0.069-0.1,0.168-0.1,0.3
		c0.131,0.535,0.2,1.734,0.2,3.6c-0.134,2-0.435,4.669-0.9,8c-0.469,3.334-1.435,7.534-2.9,12.6c-1.469,5.334-3.234,11-5.3,17
		c-2.069,6-4.1,11.5-6.1,16.5s-3.8,9.166-5.4,12.5c-1.6,3.331-2.6,5-3,5c-0.134,0-0.2-0.134-0.2-0.4c0-0.8,0.4-2.535,1.2-5.2
		c-0.4,0.666-0.8,1.331-1.2,2c-0.4,0.666-0.734,1.065-1,1.2l0.4-1l-0.2-1.2l0.2,0.4v-0.4c0-0.134-0.035-0.2-0.1-0.2
		c-0.069,0-0.1-0.134-0.1-0.4l0.2,0.2c0-0.134-0.069-0.269-0.2-0.4l0.2-0.2l0.4-1.2h0.2h0.8l-0.8-1.2c0.266-0.535,0.4-0.869,0.4-1
		l0.2,0.2l-0.2,0.2l0.2,0.2l0.6,1l0.2-1.2l-0.4-0.8c0-0.269-0.069-0.469-0.2-0.6l0.2-0.6l0.2,0.2l0.2,0.2l0.4,0.2v-0.6l0.8-0.6
		l-1-0.2h-0.4v-0.4l0.2,0.4c0-0.135,0.031-0.2,0.1-0.2c0.065,0,0.1-0.069,0.1-0.2h-0.2v-0.4c0-0.134,0.031-0.3,0.1-0.5
		c0.065-0.2,0.1-0.434,0.1-0.7h0.2l-0.2-0.2l0.4-0.8h0.4l-0.2,0.2h-0.2l-0.2,0.4v0.2l0.6,0.6l0.2-0.2l0.2-0.2v-0.2l-0.2-0.8h0.6
		v-0.4l0.2,1.2c0-0.269,0.031-0.435,0.1-0.5c0.065-0.069,0.1-0.234,0.1-0.5l-0.4-0.4l-0.4-0.4l-0.2,0.2l-0.2,0.2
		c-0.134-0.134-0.2-0.334-0.2-0.6c0.4-0.4,0.631-0.969,0.7-1.7c0.065-0.734,0.231-1.434,0.5-2.1h0.2c-0.134-0.4-0.068-0.869,0.2-1.4
		c0.266-0.531,0.4-1.065,0.4-1.6l0.2,0.2l0.2-0.4v0.8l0.4-0.4l0.2-0.2v-0.2l-0.6-0.4v0.4c0-0.131-0.068-0.2-0.2-0.2
		c0.131-0.131,0.166-0.3,0.1-0.5c-0.069-0.2,0.031-0.3,0.3-0.3c0-0.131-0.034-0.2-0.1-0.2c-0.069,0-0.1-0.065-0.1-0.2l0.4-0.8
		c0.266-0.531,0.4-0.865,0.4-1h-0.2c0.266-0.4,0.366-1.065,0.3-2c-0.069-0.931,0.031-1.4,0.3-1.4c0-0.131-0.069-0.2-0.2-0.2
		c0-0.932,0.366-2.2,1.1-3.8c0.731-1.6,1.166-2.666,1.3-3.2c0-0.131,0.065-0.4,0.2-0.8c0.131-0.266,0.231-0.565,0.3-0.9
		c0.065-0.331,0.231-0.631,0.5-0.9v0.2c0.131-0.131,0.2-0.4,0.2-0.8v0.2c0.266-0.531,0.4-1,0.4-1.4c0-0.4,0.066-0.865,0.2-1.4
		l0.8,0.4v0.4c0,0.134,0.066,0.2,0.2,0.2l0.2,0.2c0.131-0.531,0.266-1,0.4-1.4c0.131-0.4,0.266-0.866,0.4-1.4l-0.4,0.2
		c0,0.134-0.035,0.2-0.1,0.2c-0.069,0-0.1,0.2-0.1,0.6l-1.4,0.6l0.4-0.6c0.266-0.266,0.366-0.331,0.3-0.2
		c-0.069,0.134-0.035,0.069,0.1-0.2v-0.2v-0.2l0.4-0.6c0-2,0.465-3.931,1.4-5.8c-4.134,7.869-7.669,14.4-10.6,19.6
		c-2.935,5.2-5.435,9.369-7.5,12.5c-2.069,3.131-3.7,5.5-4.9,7.1c-1.2,1.6-2.134,2.766-2.8,3.5c-0.668,0.731-1.1,1.231-1.3,1.5
		c-0.2,0.266-0.3,0.666-0.3,1.2c-0.4,0-0.8-0.734-1.2-2.2l-0.2,0.2c-0.134,0-0.2,0.065-0.2,0.2l0.2-0.6v0.2l0.2-0.2
		c0-0.269-0.034-0.334-0.1-0.2c-0.069,0.131-0.1,0.066-0.1-0.2v0.4l-0.2-0.6l-0.8-1l0.2,0.2v-0.4l-0.4-0.2h0.2l-0.4-0.4v-1
		c0.131,0,0.2-0.069,0.2-0.2h0.8l-1-0.8c0-0.135-0.034-0.269-0.1-0.4c-0.068-0.134-0.1-0.269-0.1-0.4l0.2,0.2l0.2,0.2l0.8,0.4v-0.4
		l-0.2-0.2l-0.6-0.6c0-0.269-0.134-0.4-0.4-0.4l0.2-0.4l0.4,0.2l0.2-0.2l0.2-0.6v-0.4l-1,0.4v-0.4l0.2,0.2l-0.2-0.2h0.2
		c-0.269,0-0.369-0.1-0.3-0.3c0.065-0.2-0.035-0.569-0.3-1.1h0.2l-0.2-0.2c0-0.134,0.031-0.234,0.1-0.3
		c0.066-0.068,0.1-0.168,0.1-0.3h0.4l-0.2,0.2l-0.2,0.2v0.4l0.2-0.2l0.8,0.2v-0.4l-0.4-0.4l0.4-0.2l-0.2-0.4l0.4,0.4v-0.4l-0.8-0.2
		l-0.2,0.2l-0.2-1c-0.269-0.4-0.369-0.8-0.3-1.2c0.065-0.4,0.031-0.8-0.1-1.2h0.2c-0.269-0.266-0.369-0.631-0.3-1.1
		c0.065-0.465,0.1-0.9,0.1-1.3l0.2-0.2l0.2,0.4l0.2-0.2c0.131,0,0.2-0.066,0.2-0.2l-0.4-0.4l-0.2,0.4
		c-0.269-0.266-0.4-0.465-0.4-0.6c0-0.131,0.066-0.2,0.2-0.2c0-0.131-0.069-0.266-0.2-0.4c0-0.131,0.066-0.266,0.2-0.4
		c0-0.131-0.035-0.231-0.1-0.3c-0.069-0.065-0.1-0.166-0.1-0.3c0.131,0,0.2-0.131,0.2-0.4c-0.269,0-0.4-0.331-0.4-1v-1
		c0-0.131,0.031-0.231,0.1-0.3c0.066-0.065,0.1-0.166,0.1-0.3c0-0.531-0.034-1.031-0.1-1.5c-0.068-0.466-0.1-0.966-0.1-1.5
		c0-0.266,0.031-0.6,0.1-1c0.066-0.4,0.1-0.731,0.1-1c-0.269,0.134-0.3,0.068-0.1-0.2c0.2-0.266,0.166-0.531-0.1-0.8
		c0.131,0,0.2-0.266,0.2-0.8c0-0.531,0-1,0-1.4l0.2,0.2c-0.134-0.266-0.2-1.2-0.2-2.8l0.8,0.2c0,0.269,0.131,0.4,0.4,0.4h0.2v-2.2
		l-0.4,0.4l-0.2,0.2c0,0.134,0.065,0.269,0.2,0.4l-1,0.6v-0.4c0-0.266,0.031-0.331,0.1-0.2c0.065,0.135,0.1,0.069,0.1-0.2v-0.2v-0.6
		v-0.8c0-0.4-0.134-0.666-0.4-0.8v-2c-1.2,3.6-2.5,7.3-3.9,11.1c-1.4,3.8-2.8,7.334-4.2,10.6s-2.7,6.166-3.9,8.7
		c-1.2,2.531-2.135,4.266-2.8,5.2c0,0.131-0.034,0.2-0.1,0.2c-0.068,0-0.1,0.065-0.1,0.2c0,0.266,0.131,0.5,0.4,0.7
		c0.266,0.2,0.4,0.366,0.4,0.5c0,0.131-0.134,0.2-0.4,0.2c-0.535,0-0.734-0.1-0.6-0.3c0.131-0.2-0.269-0.769-1.2-1.7h-0.2h0.2
		c-0.134-0.134-0.269-0.2-0.4-0.2h0.2c-0.269,0-0.4-0.069-0.4-0.2c0.131,0,0.166-0.035,0.1-0.1c-0.068-0.069-0.034-0.1,0.1-0.1
		l-0.2,0.2c-0.135,0-0.2-0.135-0.2-0.4l0.6,0.2c0-0.269-0.069-0.469-0.2-0.6c0,0.131-0.034,0.2-0.1,0.2c-0.068,0-0.1,0.065-0.1,0.2
		l0.2-1l-0.2-1l-0.6,0.4c0.134-0.269,0.2-0.469,0.2-0.6c0-0.134,0.069-0.269,0.2-0.4l-0.2-0.2c0-0.269,0.035-0.5,0.1-0.7
		c0.069-0.2,0.1-0.434,0.1-0.7l0.6,0.2v-0.6h-0.4c0.131-0.269,0.2-0.569,0.2-0.9c0-0.334,0.066-0.7,0.2-1.1l0.2,0.2l0.2-0.2
		l-0.4-0.4c0.131,0,0.2-0.334,0.2-1l0.2,0.2c-0.134-0.269-0.069-0.5,0.2-0.7c0.266-0.2,0.4-0.369,0.4-0.5
		c-0.134-0.134-0.2-0.334-0.2-0.6c0-0.8,0.231-1.666,0.7-2.6c0.465-0.931,0.831-1.866,1.1-2.8l0.2,0.2l0.2-0.2
		c0-0.131-0.035-0.2-0.1-0.2c-0.069,0-0.1-0.066-0.1-0.2c0-0.266,0.1-0.565,0.3-0.9c0.2-0.331,0.3-0.631,0.3-0.9l0.2,0.2v-0.2v-0.4
		l0.2,0.2v0.2v0.2c0.131-0.131,0.2-0.266,0.2-0.4c0-0.131,0.065-0.266,0.2-0.4l-0.2-0.2h0.2h-0.4c0-0.531,0.131-0.865,0.4-1h-0.2
		c0.266-0.931,0.866-2.4,1.8-4.4l0.6,0.2c0-0.266,0.131-0.531,0.4-0.8l-0.2-0.2l-0.4,0.2l-0.2,0.4l0.4-1
		c-0.134-0.666-0.034-0.966,0.3-0.9c0.332,0.069,0.5-0.3,0.5-1.1l0.2,0.4c0-0.266,0.031-0.431,0.1-0.5
		c0.065-0.066,0.1-0.166,0.1-0.3h0.2c0-0.131,0.031-0.231,0.1-0.3c0.065-0.065,0.1-0.231,0.1-0.5v-0.2v-0.2
		c0.131-0.266,0.266-0.766,0.4-1.5c0.131-0.731,0.266-1.1,0.4-1.1c0.131,0,0.2,0.069,0.2,0.2v-0.2h0.2l-0.2-0.2h0.2v-0.4l0.2-0.2
		c0-0.266,0.031-0.466,0.1-0.6c0.065-0.131,0.1-0.332,0.1-0.6l0.4,0.2c0.131-0.131,0.2-0.266,0.2-0.4l-0.6-0.2l1.4-4.8
		c0.531-1.731,1-3.4,1.4-5c0.4-1.6,0.866-3.266,1.4-5l0.2-0.2v0.2l0.2-0.2v-0.4l0.2-0.2l-0.4-0.2l0.4-1.4l0.2-0.8l-0.2-0.2h0.4v-1
		l0.2-2c0.266-0.531,0.465-1.131,0.6-1.8c0.131-0.666,0.266-1.131,0.4-1.4l0.2,0.8l0.2-0.6l0.2-0.4l0.6-0.8h-0.2
		c0.266-0.531,0.465-1,0.6-1.4c0.131-0.4,0.266-0.731,0.4-1l-0.2,0.2h0.2l-0.2,0.2l0.6,0.6v-0.2l0.2,0.4
		c0,0.134-0.035,0.369-0.1,0.7c-0.069,0.334-0.1,0.634-0.1,0.9h-0.2c0,0.269,0,0.569,0,0.9c0,0.334-0.068,0.569-0.2,0.7
		c0.266-1.466,0.5-2.432,0.7-2.9c0.2-0.465,0.3-0.965,0.3-1.5v0.2l-1-0.6l0.2-0.2c0-0.266,0.066-0.4,0.2-0.4v0.2l0.2-0.4v0.2
		l0.2-0.2l0.2,0.4c0.131,0.134,0.331,0.334,0.6,0.6c0.266,0.269,0.531,0.734,0.8,1.4c0-0.531,0.065-0.8,0.2-0.8
		c0.4,1.469,0.865,3.4,1.4,5.8c0.4,2,0.766,4.6,1.1,7.8c0.331,3.2,0.5,7.069,0.5,11.6c0,5.734-0.234,11.6-0.7,17.6
		c-0.469,6-0.9,11.065-1.3,15.2c0.266-0.669,0.531-1.234,0.8-1.7c0.266-0.469,0.6-0.969,1-1.5v0.2c0-0.135,0.031-0.169,0.1-0.1
		c0.065,0.065,0.1,0.031,0.1-0.1h-0.2v-0.2v-0.2c0.4-0.4,0.6-0.8,0.6-1.2h0.2c-0.668,0.266-0.534-0.069,0.4-1
		c0.931-0.934,1.666-2.531,2.2-4.8h0.2c0.131-0.531,0.366-1.031,0.7-1.5c0.332-0.466,0.566-0.9,0.7-1.3l0.2,0.2l0.2-0.4l-0.2-0.2
		c0.266-0.266,0.5-0.631,0.7-1.1c0.2-0.465,0.431-0.831,0.7-1.1l0.2-0.6l0.2,0.4c0.266-0.266,0.4-0.466,0.4-0.6v-0.4h-0.4
		c0.131-0.266,0.266-0.766,0.4-1.5c0.131-0.731,0.266-1.166,0.4-1.3l0.4,0.2c0.266-0.666,0.565-1.4,0.9-2.2
		c0.331-0.8,0.631-1.531,0.9-2.2l0.6,0.4c0.131-0.131,0.231-0.266,0.3-0.4c0.066-0.131,0.166-0.266,0.3-0.4l-0.2-0.4l-0.2-0.2
		l-0.6,0.8l0.6-1.4l0.2,0.2c0-0.4,0.1-0.7,0.3-0.9c0.2-0.2,0.566-0.7,1.1-1.5l0.2,1l-0.2,0.2c-0.134,0-0.2,0.069-0.2,0.2l-0.2,0.6
		c0.266-0.4,0.5-0.832,0.7-1.3c0.2-0.465,0.431-0.9,0.7-1.3l-0.2,0.2c-0.135,0.135-0.2,0.269-0.2,0.4h-0.2l0.4-0.6l0.2-1.2
		c0.266-0.4,0.6-1.031,1-1.9c0.4-0.866,0.666-1.3,0.8-1.3c0.131,0,0.2,0.068,0.2,0.2l0.2-0.2h-0.2l0.2-0.2h-0.2h0.2v-0.2l0.4-0.6
		c0.131-0.131,0.466-0.8,1-2c0.531-1.2,1.2-2.6,2-4.2s1.631-3.231,2.5-4.9c0.866-1.666,1.7-3.031,2.5-4.1l0.4-0.4v-0.4l0.4-0.4v-0.6
		l0.8-0.8l-0.2-0.2l0.8-1.2l0.2-0.4l-0.2,0.2l0.4-0.8l-0.2,0.2c0,0.134,0.066,0.269,0.2,0.4l0.8,1c0,0.134-0.034,0.2-0.1,0.2
		c-0.068,0,0.166,0,0.7,0v-0.2l0.4-0.6l-0.4-0.2h0.4l0.4-0.4v-0.6l-0.4-0.2h-0.2l-0.2,0.2c-0.134,0.135-0.2,0.269-0.2,0.4l0.2,0.6
		h-0.6v0.4l-0.2-0.6v-1v0.2l-0.2-0.6l1-1.8l0.4-0.8h-0.2c0-0.131,0.031-0.2,0.1-0.2c0.066,0,0.1-0.065,0.1-0.2l1.4-1.8l0.8-1.8
		c0.4-0.666,0.9-1.332,1.5-2c0.6-0.666,1.031-1.066,1.3-1.2h-0.2l-0.2,0.8v1c0-0.131,0.031-0.231,0.1-0.3
		c0.065-0.065,0.1-0.166,0.1-0.3v0.6l0.6,1v0.4c0.666-1.2,1.066-2.131,1.2-2.8c-0.134-0.131-0.2-0.266-0.2-0.4
		c0-0.131,0.066-0.2,0.2-0.2C66.537,9.301,66.803,9.701,67.471,10.501z M7.771,73.601c0.065-0.069,0.1-0.034,0.1,0.1l-0.2-0.2
		C7.671,73.632,7.703,73.667,7.771,73.601z M8.071,73.301l-0.2-0.2v0.2H8.071z M8.471,71.501l-0.2-0.2l0.2,0.4V71.501z
		 M13.271,56.301c0,0.134,0.065,0.269,0.2,0.4c0.266-0.8,0.466-1.332,0.6-1.6v-0.2l-0.6,0.2v0.2l0.2,0.6h-0.4V56.301z
		 M21.671,33.301c0-0.266,0.065-0.466,0.2-0.6h-0.2V33.301z M24.471,22.301l-0.2,0.4l0.4,0.2v-0.4L24.471,22.301z M25.271,54.901
		v0.2l0.2-0.2H25.271z M26.471,58.101v-0.2l-0.2-0.2c0-0.131-0.069-0.2-0.2-0.2h-0.2l0.2,0.4l-0.8,0.2h0.2h-0.2l0.2,0.6l0.4,0.2v0.2
		h0.4l0.2-0.2l-0.2-0.4l-0.2,0.2l-0.2-0.4h0.4L26.471,58.101z M25.872,61.501c0.131-0.131,0.2-0.266,0.2-0.4l-0.2-0.2h-0.2h-0.2v0.4
		l-0.2,0.2H25.872z M25.471,48.901l0.2,0.2v-0.2H25.471z M25.471,52.101c0.131,0,0.266-0.065,0.4-0.2L25.471,52.101z M25.872,54.901
		h-0.4h0.2l-0.2,0.2l0.4,0.4l0.4-0.6H25.872z M25.671,57.301h-0.2c0,0.134,0.066,0.2,0.2,0.2V57.301z M26.071,64.501v-0.4l-0.6,0.4
		l0.2,0.2v-0.2v0.2l0.2-0.2H26.071z M26.471,45.901c0-0.531-0.068-0.8-0.2-0.8l-0.6-0.2l0.6,1H26.471z M25.671,51.501
		c0,0.134,0.065,0.2,0.2,0.2L25.671,51.501z M25.872,52.901c0-0.131-0.069-0.2-0.2-0.2C25.671,52.835,25.737,52.901,25.872,52.901z
		 M25.671,53.501c0,0.269,0.065,0.4,0.2,0.4L25.671,53.501z M25.872,59.901c0,0.135,0.065,0.2,0.2,0.2l0.4,0.2l-0.2-0.6h-0.6
		L25.872,59.901z M25.872,50.701h0.6v-1L25.872,50.701z M27.071,15.301v-0.2c-0.134,0-0.469,0.134-1,0.4l0.8-0.2H27.071z
		 M26.271,19.701l-0.2,0.2v-0.2H26.271z M26.271,37.901v-0.4V37.901h-0.2H26.271z M26.271,41.101l-0.2,0.4h0.2v-0.8l-0.2,0.4H26.271
		z M26.071,41.901l0.2,0.2v-0.4L26.071,41.901z M26.071,44.701h0.4v-0.8l-0.4,0.4V44.701z M26.271,19.301
		c0,0.134,0.031,0.168,0.1,0.1c0.065-0.065,0.1-0.031,0.1,0.1L26.271,19.301z M26.671,67.901l-0.4-0.2v0.4L26.671,67.901z
		 M29.671,77.501l-0.2,0.2L29.671,77.501z M31.271,72.301v0.2l-0.2,0.4L31.271,72.301z M32.071,71.101l0.2,0.2v-0.2H32.071z
		 M40.471,53.701l-0.4,0.4c-0.134-0.131-0.2-0.331-0.2-0.6l0.6-0.4v0.2l0.2-0.8h-0.2v-0.2l0.4-0.4h0.2l0.2,0.2
		c-0.134,0.269-0.269,0.534-0.4,0.8C40.737,53.17,40.603,53.436,40.471,53.701z M43.271,49.101l0.4-0.8h-0.4v0.4V49.101z
		 M46.071,44.101c0.266-0.266,0.531-0.666,0.8-1.2l-0.4-0.6l-0.6,1.8H46.071z M47.872,70.101v-0.6h-0.4v0.4L47.872,70.101z
		 M48.071,65.301c0,0.134,0.066,0.269,0.2,0.4v-0.2v0.2l0.4-0.4l-0.6-0.2V65.301z M48.872,61.701l0.6-0.2l-0.2-0.4l0.4-0.2v0.2
		l0.4,0.4l-0.4,0.2H48.872z M50.671,57.701l0.2-0.2v-0.4l-0.2-0.2l-0.2,0.4v0.2h-0.2l-0.6-0.2l0.2,0.4l-0.2-0.2l-0.2,0.4l1.2,0.8
		v0.2l0.2,0.2l0.2-0.2v-0.2l-1-0.6h0.4c0.131,0,0.2-0.065,0.2-0.2h0.4L50.671,57.701z M49.872,62.101h-0.2l0.4,0.2L49.872,62.101z
		 M50.471,56.501l-0.2,0.2L50.471,56.501z M50.271,59.901v0.4l0.4,0.2v-0.8l-0.4-0.2V59.901z M50.872,53.701h0.2v-0.2L50.872,53.701
		z M51.271,53.701l-0.2,0.2l0.2,0.6l0.6-0.6l-0.6-0.4V53.701z M51.671,35.101l0.4-0.8l-0.6,0.2l0.4,0.2l-0.2,0.2V35.101z
		 M52.271,33.901l0.4-0.4h-0.2h-0.2V33.901z M52.471,50.101c0,0.134,0.066,0.2,0.2,0.2l0.2-0.2H52.471z M52.671,49.701
		c0,0.134,0.031,0.134,0.1,0c0.065-0.131,0.1-0.066,0.1,0.2l0.2-0.2h-0.2H52.671z M53.071,32.701l0.2-0.6
		C53.137,32.235,53.071,32.436,53.071,32.701z M53.872,48.901c0.266-0.8,0.4-1.266,0.4-1.4l-0.8,1L53.872,48.901z M55.471,28.701
		c0-0.131,0.031-0.2,0.1-0.2c0.066,0,0.1-0.065,0.1-0.2l-0.2,0.2V28.701z M55.872,42.901c0-0.266,0.031-0.465,0.1-0.6
		c0.066-0.131,0.1-0.266,0.1-0.4l-0.6-0.4L55.872,42.901z M56.271,41.301c0-0.4,0.065-0.666,0.2-0.8c-0.134,0-0.2,0.035-0.2,0.1
		c0,0.069-0.069,0.1-0.2,0.1L56.271,41.301z M57.471,23.501h0.6l-0.2-0.4L57.471,23.501z M58.471,33.101
		c0.131-0.131,0.2-0.4,0.2-0.8l-0.4,0.4h0.2l-0.2,0.4H58.471z M58.671,31.501l-0.2,0.6c0-0.131,0.031-0.231,0.1-0.3
		C58.637,31.735,58.671,31.635,58.671,31.501z M59.471,18.101v0.2l-0.2-0.2H59.471z M59.471,18.501l0.2-0.2h-0.2V18.501z
		 M61.071,18.101c0,0.134,0.066,0.2,0.2,0.2l0.2-0.2h0.2l-0.2,0.4l-0.2-0.2c0,0.134-0.035,0.168-0.1,0.1
		c-0.069-0.065-0.1-0.031-0.1,0.1c0.131,0,0.2,0.134,0.2,0.4c-0.269,0.135-0.4,0.469-0.4,1c0.131-0.531,0.465-1.065,1-1.6l0.2-0.6
		h-0.2l0.2-0.2v-0.2l-0.4-0.2l-0.2-0.2l-0.2-0.2l-0.4,0.8l-0.8,0.2L61.071,18.101z M61.271,15.501c-0.134,0-0.169,0.035-0.1,0.1
		c0.065,0.069,0.031,0.1-0.1,0.1C61.071,15.57,61.137,15.501,61.271,15.501z M61.471,16.301l0.2-0.2h-0.2V16.301z M61.872,15.901
		h0.4l-0.4,0.4v0.2c0,0.134,0.065,0.269,0.2,0.4v0.2l0.8-1.2l-0.2-0.2c0.131-0.131,0.2-0.266,0.2-0.4l-0.6-1.2l-0.2,1.4
		L61.872,15.901z M62.671,13.501l0.6,1.2v-0.4l0.6-0.8l-0.4-0.2v0.4L62.671,13.501z M64.271,11.701l0.2,0.2
		c0-0.131,0.066-0.266,0.2-0.4l-0.2-0.2v0.2L64.271,11.701z"/>
	<path fill="#FFFFFF" d="M87.069,49.301c-1.734,5.068-3.3,9.434-4.7,13.1c-1.4,3.669-2.5,6.3-3.3,7.9
		c-1.069,2.666-1.834,3.565-2.3,2.7c-0.469-0.869-0.769-2.168-0.9-3.9c0.131-0.4,0.4-0.969,0.8-1.7c0.4-0.734,0.666-1.168,0.8-1.3
		c0-0.131-0.069-0.2-0.2-0.2h0.2l-0.2-0.2c0-0.131,0.066-0.231,0.2-0.3c0.131-0.065,0.2-0.231,0.2-0.5v-0.2
		c-1.869,1.6-3.834,3.1-5.9,4.5c-2.069,1.4-4.234,2.1-6.5,2.1c-2.534,0.131-4.3-0.635-5.3-2.3c-1-1.668-1.5-3.3-1.5-4.9
		c-0.131-0.666-0.131-1.4,0-2.2c0-0.531-0.066-0.865-0.2-1c0.269-3.065,0.769-5.766,1.5-8.1c0.731-2.332,2.031-4.766,3.9-7.3
		c0-0.266,0.031-0.4,0.1-0.4c0.066,0,0.1-0.065,0.1-0.2v-0.2l0.4-0.6l0.2,0.2v-0.2c0-0.131,0.031-0.231,0.1-0.3
		c0.065-0.066,0.1-0.166,0.1-0.3l0.4-0.6l0.4-0.4l1.6-1.4c0.266-0.666,0.731-1.2,1.4-1.6c0.666-0.4,1.266-0.931,1.8-1.6l0.2-0.2
		l0.6-0.4v0.2l0.2-0.2v-0.2l0.2-0.2l0.2,0.2l1-0.8l1-0.8c0.131,0,0.231-0.031,0.3-0.1c0.065-0.065,0.166-0.1,0.3-0.1v-0.2h0.2h0.8
		l0.4-0.4c0.666-0.266,1.3-0.531,1.9-0.8c0.6-0.266,1.166-0.4,1.7-0.4l-0.4,0.2h-0.4l-0.2,0.4c0.266,0,0.5-0.031,0.7-0.1
		c0.2-0.065,0.431-0.1,0.7-0.1v-0.4h0.4c0.131-0.131,0.266-0.2,0.4-0.2v0.2l-0.2,0.2h0.4c-0.4,0-0.6,0.069-0.6,0.2h0.4h-0.2
		c0.131,0,0.366-0.065,0.7-0.2c0.331-0.131,0.565-0.2,0.7-0.2h0.2c0,0.269-0.2,0.469-0.6,0.6l0.4-0.6l1,0.2
		c0.531,0,1.466,1.269,2.8,3.8l1.2,0.2l0.2-0.4l0.2-0.2c0.266-0.531,0.4-1.065,0.4-1.6h0.2l-0.2,0.2l0.6,0.2v-0.6l-0.6-0.2
		c0-0.131,0.065-0.266,0.2-0.4l0.2,0.2h0.2l-0.2-0.2c0.131,0,0.2-0.066,0.2-0.2l0.4,0.4h-0.2h-0.4c0,0.135,0.065,0.2,0.2,0.2v-0.2
		c0.266,0,0.531,0.2,0.8,0.6c0.531,0.8,0.866,2.134,1,4c0,1.069-0.3,2.369-0.9,3.9C88.369,44.936,87.734,46.901,87.069,49.301z
		 M61.269,52.101l0.4-0.8v-0.4l-0.4,0.6V52.101z M64.269,65.101c0,0.4,0.131,0.7,0.4,0.9c0.266,0.2,0.466,0.366,0.6,0.5
		c0.266,0,0.5-0.034,0.7-0.1c0.2-0.068,0.431-0.1,0.7-0.1c0.131,0,0.2,0.065,0.2,0.2l0.2-0.2h0.2l0.6-0.2l0.2-0.2
		c0.266-0.266,0.666-0.465,1.2-0.6c0.531-0.131,0.8-0.466,0.8-1c2.266-1.466,4-3.031,5.2-4.7c1.2-1.666,2.332-3.766,3.4-6.3l0.6-0.6
		v-0.4l0.2-0.4v-0.2v-0.2v-0.2l0.2-0.6l0.2-0.4v-0.4l0.6-1.6v-0.2v-0.2l0.2-0.6v0.6l0.8,0.8c0-0.4,0.065-0.6,0.2-0.6l-0.2-0.6
		l0.2-0.2l-0.4-0.8v0.2l-0.2-0.6l0.2-2.2l0.2-0.8l0.2-0.4c-0.134,0-0.2-0.066-0.2-0.2l0.2-0.2l0.2-1.4l0.2-1.2v-0.6
		c0-0.4-0.2-1.065-0.6-2c-0.4-0.931-0.869-1.4-1.4-1.4c-0.269,0-0.834,0.168-1.7,0.5c-0.869,0.334-1.935,1.134-3.2,2.4
		c-1.269,1.269-2.7,3.2-4.3,5.8c-1.6,2.6-3.334,6.234-5.2,10.9c-0.4,1.469-0.734,3.1-1,4.9C64.4,62.001,64.269,63.635,64.269,65.101
		z M70.269,38.701v0.2l0.4-0.4v-0.2l-0.2,0.4H70.269z M74.069,61.101l-0.4-0.2l0.2,0.6h-0.4v0.2L74.069,61.101z M75.069,60.301
		l-0.4,0.2l-0.2,0.4L75.069,60.301z M75.869,59.501l0.4-0.4l-0.2-0.2L75.869,59.501z M77.069,58.501h0.2v-0.4h0.2L77.069,58.501z
		 M79.069,55.501c0.131-0.266,0.2-0.465,0.2-0.6l-0.2,0.2V55.501z M80.069,53.701l-0.4,0.6h0.2c0-0.131,0.065-0.266,0.2-0.4V53.701z
		 M80.668,50.501l-0.2,0.4h0.2V50.501z M81.469,44.701c-0.134,0-0.2,0.069-0.2,0.2h0.2V44.701z M82.069,41.101h-0.2
		c0,0.134,0.065,0.2,0.2,0.2V41.101z M82.668,43.901c0-0.266,0.131-0.666,0.4-1.2l-0.2-0.2h-0.2v0.4l-0.2,0.4l-0.6,0.4
		L82.668,43.901z M82.069,46.901v-0.2l0.2-0.4C82.134,46.436,82.069,46.635,82.069,46.901z M83.668,38.101l-0.4-0.8
		c0.131,0.134,0.2,0.4,0.2,0.8c-0.134,0.134-0.2,0.269-0.2,0.4l-0.6,0.2l0.6,0.4c0,0.134,0.066,0.2,0.2,0.2h0.2
		c-0.134,0.4-0.168,0.7-0.1,0.9c0.065,0.2,0.031,0.434-0.1,0.7h-0.2l0.2-0.2c0-0.131-0.069-0.2-0.2-0.2v-0.4l-0.6-0.8v1.2v0.8
		l0.4-0.2v0.4c0,0.269,0.065,0.469,0.2,0.6C83.8,40.901,83.934,39.57,83.668,38.101z"/>
	<path fill="#FFFFFF" d="M110.867,30.901c1.731,0.669,3.065,2,4,4c0.931,2,1.065,4.334,0.4,7c-0.934,4.669-3.269,8.9-7,12.7
		c-3.734,3.8-7.534,6.9-11.4,9.3l-1.4,1l3.8,1.8l0.6,0.2l0.2-0.4l-0.6,0.4l-0.2,0.2c0.266,0.131,0.431,0.2,0.5,0.2
		c0.066,0,0.231,0.065,0.5,0.2h0.2l-0.2-0.2l0.6-0.2l2,1.2l0.6,0.2h-0.2l0.2,0.2c0-0.134,0.131-0.2,0.4-0.2l1.2,0.8l0.6,0.4l0.2,0.2
		v-0.2l1.6,0.6c0.4,0.4,0.866,0.9,1.4,1.5c0.531,0.6,0.931,1.031,1.2,1.3h-0.2c1.466,1.2,2.2,2,2.2,2.4l-0.4,0.2
		c-0.269,0-2.4-0.569-6.4-1.7c-4-1.134-8.534-2.834-13.6-5.1c-0.134-0.134-0.534-0.369-1.2-0.7c-0.669-0.334-0.935-0.834-0.8-1.5
		c-1.2,2.4-2.231,3.7-3.1,3.9c-0.866,0.2-1.3,0.5-1.3,0.9v0.2c-0.266,0-0.531-0.134-0.8-0.4c-0.4-0.4-0.6-0.935-0.6-1.6l-0.2,0.2
		h-0.2l-0.2-0.2l0.2,0.2h0.2c0-0.134-0.031-0.168-0.1-0.1c-0.066,0.065-0.166-0.035-0.3-0.3v0.2l-0.2-0.2h0.2l-0.2-0.2l0.4,0.2
		l0.4,0.2c0-0.269,0.069-0.469,0.2-0.6h-0.4l-0.2-0.2h0.2c0-0.134-0.065-0.2-0.2-0.2h0.2l0.2-0.6h-0.2l0.2-0.4v-0.2
		c0-0.134,0.069-0.269,0.2-0.4c0.269-0.269,0.4-0.469,0.4-0.6h0.2c-0.131,0.131-0.131,0.131,0,0c0.135-0.134,0.069-0.2-0.2-0.2
		c0.134,0,0.2-0.069,0.2-0.2l-0.2-0.2h0.2v-0.2c0.135,0,0.2-0.066,0.2-0.2c0-0.131,0.069-0.266,0.2-0.4h-0.2l0.2-0.2
		c0.134-0.8,0.369-1.465,0.7-2c0.334-0.531,0.634-1.331,0.9-2.4c0.8-1.731,1.5-3.2,2.1-4.4s1.2-2.366,1.8-3.5
		c0.6-1.131,1.031-1.966,1.3-2.5l0.2-0.2v-0.2v0.2l0.2-0.2c-0.134,0-0.168-0.031-0.1-0.1c0.066-0.065,0.031-0.1-0.1-0.1v-0.2
		l0.2-0.6l0.2-0.4l0.4,0.2c0.131,0,0.2-0.065,0.2-0.2l-0.4-0.4l0.2-0.6l0.2-0.4v0.2l0.2-0.2h-0.2l0.6-0.4l0.2-0.4h-0.2v-0.6
		c0.266-0.266,0.531-0.531,0.8-0.8c0.266-0.266,0.465-0.4,0.6-0.4l0.2,0.4l0.2,0.6l-0.4-0.2c0.4,0.134,0.7,0.435,0.9,0.9
		c0.2,0.469,0.1,1.634-0.3,3.5c-0.269,1.469-0.634,3.1-1.1,4.9c-0.469,1.8-1.035,3.635-1.7,5.5c0.131-0.4,0.4-0.6,0.8-0.6l-0.2-0.2
		c0.131-0.131,0.331-0.231,0.6-0.3c0.266-0.066,0.465-0.231,0.6-0.5c0.131,0,0.131,0.068,0,0.2c0.266-0.4,0.531-0.666,0.8-0.8
		c0.266-0.131,0.666-0.4,1.2-0.8l2.6-2.4c0-0.266,0.1-0.4,0.3-0.4c0.2,0,0.365-0.065,0.5-0.2v-0.2c0-0.131,0.065-0.2,0.2-0.2
		c0.266-0.266,0.631-0.565,1.1-0.9c0.466-0.331,0.831-0.565,1.1-0.7v0.2c0.266-0.266,0.331-0.4,0.2-0.4h0.2
		c0-0.131-0.069-0.2-0.2-0.2c0.531-0.531,1-1.2,1.4-2l0.4,0.6c0.131-0.131,0.2-0.231,0.2-0.3c0-0.066,0.066-0.166,0.2-0.3h-0.8
		l0.2-0.4l0.2-0.2c0.131,0,0.2,0.069,0.2,0.2v-0.2l0.4-0.2h-0.2l0.2-0.2l0.2-0.2h0.2c0.8-0.8,1.2-1.4,1.2-1.8
		c0.932-1.866,1.631-3.4,2.1-4.6c0.466-1.2,0.832-2.731,1.1-4.6c-0.269-1.2-0.8-2.166-1.6-2.9c-0.8-0.731-1.634-1.266-2.5-1.6
		c-0.869-0.332-1.6-0.531-2.2-0.6c-0.6-0.066-0.834-0.1-0.7-0.1c-0.669,0-1.169,0.2-1.5,0.6c-0.334,0.4-0.634,0.6-0.9,0.6v-0.2
		l0.4-0.4c-0.134,0-0.2,0.069-0.2,0.2c-0.134,0-0.2-0.065-0.2-0.2l0.2-0.2l-0.2,0.2v-0.2h-0.2l-0.2,0.2v-0.6
		c0.131,0,0.166,0.034,0.1,0.1c-0.068,0.069-0.034,0.1,0.1,0.1c0.131,0.134,0.2,0.134,0.2,0v-0.2v0.2
		c-0.134-0.131-0.169-0.2-0.1-0.2c0.065,0,0.031-0.131-0.1-0.4v0.2l0.2-0.2v0.2l0.2-0.2h-0.2c0-0.131,0.065-0.266,0.2-0.4v0.6
		l0.4,0.2c0-0.131,0.2-0.4,0.6-0.8l-0.2-0.4v-0.6v0.2c0.531-0.531,1.131-0.931,1.8-1.2v0.2c0.131-0.4,0.431-0.6,0.9-0.6
		c0.466,0,0.832,0,1.1,0h0.4c0.266-0.131,0.6-0.2,1-0.2c0.266,0.134,0.466,0.269,0.6,0.4c0.131,0.134,0.332,0.2,0.6,0.2l-0.2,0.2
		c0.131,0,0.2,0.069,0.2,0.2c0-0.131,0.2-0.2,0.6-0.2c0.266,0.269,0.531,0.4,0.8,0.4v0.2
		C109.798,30.101,110.333,30.37,110.867,30.901z M92.267,60.501c0,0.4-0.069,0.669-0.2,0.8h0.4v-0.4v-0.4H92.267z M93.267,47.701
		c0-0.131-0.069-0.2-0.2-0.2L93.267,47.701z M93.867,60.501l0.4-0.4l-0.4-0.2l-0.2,0.2c0,0.134-0.134,0.269-0.4,0.4H93.867z
		 M94.267,46.101v0.4l0.4-0.2L94.267,46.101z M95.267,59.301c0.266-0.131,0.531-0.332,0.8-0.6v-0.2l-0.4,0.2v0.2h-0.2l-0.4-0.6
		l-0.2,0.4l-0.2,0.2l-0.2,0.4l0.2,0.2c-0.134,0-0.2,0.069-0.2,0.2l-0.2,0.2h0.4c0-0.131,0.131-0.331,0.4-0.6h-0.2l0.4-0.2V59.301z
		 M94.467,45.901l0.4,0.2v-0.2H94.467z M95.667,57.901v0.2l0.2-0.2H95.667z M95.867,58.101v0.2c0-0.131-0.069-0.2-0.2-0.2l0.2,0.2
		V58.101z M98.067,56.901c0-0.131,0.031-0.2,0.1-0.2c0.066,0,0.1-0.066,0.1-0.2v-0.4l-0.4,0.2v0.2v-0.2v0.2l-0.2,0.6L98.067,56.901z
		 M99.467,55.101l-0.2,0.4h0.2V55.101z M100.067,54.501l0.2,0.2v-0.2H100.067z M100.667,53.701c0.131,0.134,0.266,0.2,0.4,0.2
		L100.667,53.701z M101.867,68.501h0.2l-0.2-0.2V68.501z M102.267,68.301c-0.134,0-0.2-0.069-0.2-0.2L102.267,68.301z
		 M102.667,68.901v0.2c0-0.134-0.068-0.2-0.2-0.2H102.667z M103.467,51.101l0.2,0.2l-0.2-0.4V51.101z M104.067,29.101
		c0-0.131-0.069-0.131-0.2,0l0.2,0.2l-0.2-0.2C103.998,28.97,104.067,28.97,104.067,29.101z M104.467,29.101h-0.2l0.2,0.2V29.101z
		 M104.467,69.301l0.4,0.2C104.732,69.367,104.598,69.301,104.467,69.301z M105.067,70.301c0.131,0.131,0.331,0.2,0.6,0.2l0.4-0.2
		H105.067z M105.467,28.901h0.2l-0.4,0.2L105.467,28.901z M106.667,29.101h-0.4H106.667z M106.267,70.901l0.2,0.2v-0.2H106.267z"/>
	<path fill="#FFFFFF" d="M124.263,46.101c-2,2.935-3.7,6.069-5.1,9.4c-1.4,3.334-2.1,6.935-2.1,10.8c0.266,0.666,0.4,1.065,0.4,1.2
		c0,0.131,0.399,0.2,1.2,0.2h0.399c0.266,0,0.4-0.069,0.4-0.2v0.2l0.4-0.2v0.2c0-0.134,0.031-0.2,0.1-0.2c0.065,0,0.1-0.069,0.1-0.2
		l0.601-0.2h0.399l1.2-0.6l0.601-0.6v0.2c-0.135,0-0.2,0.065-0.2,0.2v0.4l0.2,1c0.266-0.269,0.465-0.4,0.6-0.4l-0.2-0.2l-0.399,0.2
		l0.399-0.4l0.2-0.2l0.2-0.6h-0.2l0.2-0.6l1.2-0.8l0.399-0.2l0.4-0.2c0-0.131-0.069-0.2-0.2-0.2l0.2-0.2l0.2,0.2l0.8-0.8l0.6-0.6
		v0.2l0.2-0.4c0.266-0.131,0.731-0.7,1.4-1.7c0.665-1,1.199-1.7,1.6-2.1l-0.2,0.4v0.6l0.2,0.2l-0.2,0.4l0.8-0.8h0.2
		c0,0.134-0.034,0.734-0.1,1.8c-0.069,1.068-0.469,2.3-1.2,3.7c-0.734,1.4-1.869,2.8-3.4,4.2c-1.534,1.4-3.699,2.565-6.5,3.5
		c-0.269,0.131-0.734,0.2-1.399,0.2c-1.734,0-3.269-0.7-4.6-2.1c-1.332-1.4-2-2.969-2-4.7v0.2c-0.131,0-0.2-0.069-0.2-0.2v-1v-0.4
		h0.2c-0.266-0.266-0.4-0.6-0.4-1c0-0.266,0.034-0.5,0.1-0.7c0.069-0.2,0.1-0.431,0.1-0.7v-0.6c0-0.531,0.035-1.031,0.1-1.5
		c0.069-0.466,0.1-0.966,0.1-1.5v-0.2c0-0.131,0.034-0.231,0.1-0.3c0.068-0.066,0.1-0.231,0.1-0.5v-0.2v-0.2h0.2
		c0-0.131,0.034-0.266,0.1-0.4c0.069-0.131,0.1-0.331,0.1-0.6v-0.2c0.269-0.266,0.369-0.466,0.3-0.6
		c-0.065-0.131-0.031-0.331,0.1-0.6l0.2,0.2v-0.2v-0.2c0-0.131,0.069-0.2,0.2-0.2h-0.2c0.266-0.4,0.432-0.831,0.5-1.3
		c0.066-0.466,0.166-0.9,0.3-1.3l0.6,0.2v-0.4l-0.6,0.2l0.2-0.4l0.2-0.2h0.2v-0.2v-0.2v-0.2l0.2-0.2l0.2-0.4
		c0.131-0.131,0.2-0.266,0.2-0.4c0-0.131,0.066-0.266,0.2-0.4c0-0.8,0.266-1.766,0.8-2.9c0.531-1.131,1.2-2.3,2-3.5
		c0.8-1.2,1.666-2.331,2.601-3.4c0.931-1.065,1.8-1.931,2.6-2.6l0.4-0.2c0-0.131,0.065-0.2,0.199-0.2v-0.2l0.4-0.2
		c0-0.131,0.065-0.2,0.2-0.2v-0.2l0.399-0.4l0.4-0.4l1.4-1.2h-0.2c0.399-0.4,0.865-0.766,1.399-1.1
		c0.531-0.331,1.066-0.631,1.601-0.9h0.2l0.6-0.4v0.2l0.2-0.2l-0.2-0.2h0.2l0.399,0.2l1-0.4l1-0.2c0.132,0,0.231-0.031,0.301-0.1
		c0.065-0.065,0.165-0.1,0.3-0.1h0.2l0.6,0.2l0.6,0.2c0.666,0,1.231,0.269,1.7,0.8c0.466,0.534,0.866,1.1,1.2,1.7
		c0.331,0.6,0.631,1.5,0.9,2.7v0.6c0-0.266-0.135-0.531-0.4-0.8c-0.534-0.531-1.135-0.8-1.8-0.8c-1.069,0-2.534,0.734-4.4,2.2
		C130.395,38.77,127.729,41.701,124.263,46.101z M111.863,63.301c0,0.134,0.035,0.2,0.1,0.2c0.069,0,0.1,0.069,0.1,0.2v-0.2v-0.2
		H111.863z M112.063,60.501v0.2l0.2-0.2H112.063z M112.263,64.501h-0.2H112.263h-0.2l0.2,0.2V64.501z M112.863,57.301h0.2H112.863z
		 M120.664,41.501l0.399-0.4v-0.8l-0.199,0.4l-0.2,0.2V41.501z M120.864,68.301c0.266,0,0.399-0.069,0.399-0.2v-0.2L120.864,68.301z
		 M124.063,66.901l-0.199,0.2c0.131-0.134,0.266-0.2,0.399-0.2c0.132,0,0.2-0.134,0.2-0.4l-0.4,0.2h-0.199v0.2H124.063z
		 M125.263,65.101l0.601,0.6c0.131-0.131,0.266-0.231,0.399-0.3c0.132-0.065,0.266-0.231,0.4-0.5l-0.2-0.2l-0.4,0.6L125.263,65.101z
		 M126.664,63.501l-0.2,0.2C126.594,63.701,126.664,63.635,126.664,63.501z M127.263,64.301h0.2c0.131-0.131,0.231-0.266,0.3-0.4
		c0.065-0.131,0.166-0.266,0.3-0.4l-0.199-0.6l-0.4,1L127.263,64.301z M127.664,34.501l0.2,0.2v-0.2H127.664z M128.463,62.301v0.6
		l0.4-0.4L128.463,62.301z M129.664,32.701v0.2l0.399-0.2v-0.4l-0.399,0.2V32.701z M130.063,60.701l0.2-0.2
		c-0.134,0.134-0.2,0.269-0.2,0.4V60.701z M131.864,32.501h-0.2v0.2C131.664,32.57,131.729,32.501,131.864,32.501z M133.463,31.901
		l-0.2,0.2h0.2V31.901z"/>
	<path fill="#FFFFFF" d="M162.661,49.301c-1.734,5.068-3.3,9.434-4.7,13.1c-1.4,3.669-2.5,6.3-3.3,7.9
		c-1.069,2.666-1.835,3.565-2.3,2.7c-0.469-0.869-0.77-2.168-0.9-3.9c0.131-0.4,0.4-0.969,0.8-1.7c0.4-0.734,0.666-1.168,0.8-1.3
		c0-0.131-0.068-0.2-0.199-0.2h0.199l-0.199-0.2c0-0.131,0.065-0.231,0.199-0.3c0.132-0.065,0.2-0.231,0.2-0.5v-0.2
		c-1.868,1.6-3.834,3.1-5.899,4.5c-2.069,1.4-4.234,2.1-6.5,2.1c-2.535,0.131-4.301-0.635-5.301-2.3c-1-1.668-1.5-3.3-1.5-4.9
		c-0.131-0.666-0.131-1.4,0-2.2c0-0.531-0.065-0.865-0.199-1c0.269-3.065,0.769-5.766,1.5-8.1c0.73-2.332,2.031-4.766,3.899-7.3
		c0-0.266,0.031-0.4,0.101-0.4c0.065,0,0.1-0.065,0.1-0.2v-0.2l0.4-0.6l0.199,0.2v-0.2c0-0.131,0.031-0.231,0.101-0.3
		c0.065-0.066,0.1-0.166,0.1-0.3l0.4-0.6l0.399-0.4l1.601-1.4c0.266-0.666,0.731-1.2,1.399-1.6c0.666-0.4,1.266-0.931,1.801-1.6
		l0.199-0.2l0.601-0.4v0.2l0.2-0.2v-0.2l0.199-0.2l0.2,0.2l1-0.8l1-0.8c0.132,0,0.231-0.031,0.3-0.1
		c0.066-0.065,0.166-0.1,0.301-0.1v-0.2h0.199h0.801l0.399-0.4c0.666-0.266,1.3-0.531,1.9-0.8c0.6-0.266,1.165-0.4,1.7-0.4l-0.4,0.2
		h-0.4l-0.199,0.4c0.266,0,0.5-0.031,0.699-0.1c0.2-0.065,0.432-0.1,0.7-0.1v-0.4h0.4c0.131-0.131,0.266-0.2,0.399-0.2v0.2
		l-0.199,0.2h0.399c-0.399,0-0.6,0.069-0.6,0.2h0.399h-0.199c0.131,0,0.365-0.065,0.699-0.2c0.332-0.131,0.566-0.2,0.7-0.2h0.2
		c0,0.269-0.2,0.469-0.6,0.6l0.399-0.6l1,0.2c0.531,0,1.466,1.269,2.8,3.8l1.2,0.2l0.2-0.4l0.2-0.2
		c0.266-0.531,0.399-1.065,0.399-1.6h0.2l-0.2,0.2l0.601,0.2v-0.6l-0.601-0.2c0-0.131,0.066-0.266,0.2-0.4l0.2,0.2h0.2l-0.2-0.2
		c0.131,0,0.2-0.066,0.2-0.2l0.399,0.4h-0.199h-0.4c0,0.135,0.065,0.2,0.2,0.2v-0.2c0.266,0,0.531,0.2,0.8,0.6
		c0.531,0.8,0.865,2.134,1,4c0,1.069-0.3,2.369-0.9,3.9C163.96,44.936,163.326,46.901,162.661,49.301z M136.861,52.101l0.399-0.8
		v-0.4l-0.399,0.6V52.101z M139.861,65.101c0,0.4,0.131,0.7,0.399,0.9c0.266,0.2,0.466,0.366,0.601,0.5c0.266,0,0.5-0.034,0.699-0.1
		c0.2-0.068,0.432-0.1,0.7-0.1c0.132,0,0.2,0.065,0.2,0.2l0.2-0.2h0.2l0.6-0.2l0.2-0.2c0.266-0.266,0.665-0.465,1.2-0.6
		c0.531-0.131,0.8-0.466,0.8-1c2.266-1.466,4-3.031,5.2-4.7c1.199-1.666,2.331-3.766,3.399-6.3l0.601-0.6v-0.4l0.199-0.4v-0.2v-0.2
		v-0.2l0.2-0.6l0.2-0.4v-0.4l0.6-1.6v-0.2v-0.2l0.2-0.6v0.6l0.8,0.8c0-0.4,0.066-0.6,0.2-0.6l-0.2-0.6l0.2-0.2l-0.399-0.8v0.2
		l-0.2-0.6l0.2-2.2l0.199-0.8l0.2-0.4c-0.134,0-0.2-0.066-0.2-0.2l0.2-0.2l0.2-1.4l0.2-1.2v-0.6c0-0.4-0.2-1.065-0.601-2
		c-0.399-0.931-0.868-1.4-1.399-1.4c-0.269,0-0.835,0.168-1.7,0.5c-0.869,0.334-1.935,1.134-3.2,2.4c-1.269,1.269-2.7,3.2-4.3,5.8
		c-1.6,2.6-3.334,6.234-5.2,10.9c-0.399,1.469-0.734,3.1-1,4.9C139.992,62.001,139.861,63.635,139.861,65.101z M145.861,38.701v0.2
		l0.399-0.4v-0.2l-0.2,0.4H145.861z M149.661,61.101l-0.4-0.2l0.2,0.6h-0.4v0.2L149.661,61.101z M150.661,60.301l-0.4,0.2l-0.2,0.4
		L150.661,60.301z M151.46,59.501l0.4-0.4l-0.2-0.2L151.46,59.501z M152.661,58.501h0.2v-0.4h0.199L152.661,58.501z M154.661,55.501
		c0.131-0.266,0.2-0.465,0.2-0.6l-0.2,0.2V55.501z M155.661,53.701l-0.4,0.6h0.2c0-0.131,0.065-0.266,0.2-0.4V53.701z
		 M156.26,50.501l-0.2,0.4h0.2V50.501z M157.06,44.701c-0.134,0-0.199,0.069-0.199,0.2h0.199V44.701z M157.661,41.101h-0.2
		c0,0.134,0.065,0.2,0.2,0.2V41.101z M158.26,43.901c0-0.266,0.132-0.666,0.4-1.2l-0.2-0.2h-0.2v0.4l-0.2,0.4l-0.6,0.4
		L158.26,43.901z M157.661,46.901v-0.2l0.2-0.4C157.726,46.436,157.661,46.635,157.661,46.901z M159.26,38.101l-0.399-0.8
		c0.131,0.134,0.199,0.4,0.199,0.8c-0.134,0.134-0.199,0.269-0.199,0.4l-0.601,0.2l0.601,0.4c0,0.134,0.065,0.2,0.199,0.2h0.2
		c-0.134,0.4-0.169,0.7-0.1,0.9c0.065,0.2,0.031,0.434-0.101,0.7h-0.199l0.199-0.2c0-0.131-0.068-0.2-0.199-0.2v-0.4l-0.601-0.8v1.2
		v0.8l0.4-0.2v0.4c0,0.269,0.065,0.469,0.2,0.6C159.392,40.901,159.526,39.57,159.26,38.101z"/>
	<path fill="#FFFFFF" d="M192.46,27.501l0.2,0.4c0-0.266-0.234,0.535-0.7,2.4c-0.469,1.869-1.1,4.334-1.899,7.4
		c-0.8,3.069-1.734,6.434-2.8,10.1c-1.069,3.668-2.135,7.134-3.2,10.4c-1.069,3.269-2.135,6.069-3.2,8.4c-1.068,2.331-2,3.7-2.8,4.1
		c-1.601,0.8-2.8,0.831-3.601,0.1c-0.8-0.734-1.399-2.035-1.8-3.9c-0.399-1.865-0.669-4.166-0.8-6.9
		c-0.135-2.731-0.334-5.766-0.6-9.1v0.2v-0.2c0-0.131,0.065-0.266,0.199-0.4l0.4-0.2l-0.4-0.2c-0.134,0-0.134,0.069,0,0.2v-0.2
		c-2.399,6-4.399,10.5-6,13.5c-1.6,3-2.865,5.231-3.8,6.7c-0.931,1.465-1.665,2.431-2.2,2.9c-0.531,0.465-0.931,1.166-1.199,2.1
		l-0.4,0.4c-0.131,0-0.2-0.069-0.2-0.2v-1v0.6c-0.131,0-0.2,0.065-0.2,0.2l-0.199-0.8l0.199,0.2c0.135-0.134,0.2-0.4,0.2-0.8
		l-0.2,0.2l0.2,0.2h-0.2v-0.4l-0.199,0.2l0.199-0.8v0.2h0.2c-0.131,0-0.2-0.069-0.2-0.2v-0.4l0.2,0.2v0.4h0.2
		c0-0.534,0.2-1.134,0.6-1.8l-0.399-0.4l0.2,0.2l-0.4-0.4h0.2c0-0.269,0.068-0.6,0.2-1c0.269-0.935,0.534-1.534,0.8-1.8l0.2-0.2
		v-0.2c-0.132-0.269,0.034-1.2,0.5-2.8c0.469-1.6,0.769-2.8,0.899-3.6l0.4,0.2c-0.266-0.131-0.3-0.2-0.101-0.2
		c0.2,0,0.301-0.065,0.301-0.2l-0.2,0.2v-0.2c0-0.4,0.1-0.832,0.3-1.3c0.2-0.465,0.234-0.831,0.1-1.1l0.2-0.2
		c0-0.4,0.069-0.7,0.2-0.9c0.135-0.2,0.334-0.5,0.6-0.9c0-0.131-0.031-0.2-0.1-0.2c-0.065,0-0.1-0.066-0.1-0.2
		c0-0.8,0.3-1.766,0.899-2.9c0.601-1.131,1.031-2.231,1.3-3.3h0.2c-0.134-1.066,0-1.932,0.4-2.6c0.399-0.666,0.731-1.332,1-2
		l0.2,0.4c0.131-0.131,0.199-0.231,0.199-0.3c0-0.066,0.066-0.166,0.2-0.3l-0.2-0.2c0.132-0.4,0.531-1.6,1.2-3.6l0.2,0.2v-0.4
		c0-0.131,0.031-0.2,0.1-0.2c0.066,0,0.101-0.066,0.101-0.2l0.2,0.2l1-1l-0.601-0.6l-0.8,0.2c0.4-0.666,0.865-1.3,1.4-1.9
		c0.531-0.6,0.8-1.166,0.8-1.7h0.2c0-0.131-0.069-0.2-0.2-0.2c0-0.131,0.1-0.366,0.3-0.7c0.2-0.331,0.7-0.831,1.5-1.5
		c0.531,0,0.865,0.069,1,0.2l1.2-0.4c0.931-0.131,1.565,0,1.899,0.4c0.332,0.4,0.5,0.834,0.5,1.3c0,0.469-0.199,1.035-0.6,1.7
		c0.4,3.469,0.731,7.2,1,11.2c0.266,4,0.6,7.6,1,10.8c0.8-2.531,1.666-4.866,2.6-7l0.4-0.6c0-0.131,0.065-0.2,0.2-0.2l0.2-0.2v-0.2
		l0.199-0.4h0.2v-0.2v-0.4v-0.2l0.4-1.4l0.8-1.8l0.4-0.6v-0.4h-0.2l0.399-1v0.2v0.6v0.2l1,0.8c0-0.131,0.132-0.466,0.4-1l-0.4,0.6
		v-1l0.2-0.4l-0.6-1.4l1.2-2.4l0.399-0.8v-0.4c0-0.131-0.068-0.2-0.2-0.2l0.2-0.2l0.2-0.2l1-1.8l0.6-1.2l0.2-0.6l0.4-1.8
		c0.665-0.931,1.266-2.031,1.8-3.3c0.531-1.266,0.932-2.031,1.2-2.3v0.2l-0.2,0.6l-0.2,0.6l0.2,0.4l-0.2,0.4
		c0.666-1.2,1.2-2,1.601-2.4L192.46,27.501z M159.261,66.901l0.199,0.2L159.261,66.901l0.199,0.2c-0.131,0-0.266-0.069-0.399-0.2
		H159.261z M159.661,66.101v0.2l0.2-0.2H159.661z M159.861,64.701v0.2c0.135,0,0.169-0.031,0.1-0.1
		c-0.065-0.066-0.031-0.1,0.101-0.1H159.861z M160.661,63.301l0.2-0.2L160.661,63.301z M171.261,36.101
		c0.131-0.266,0.23-0.5,0.3-0.7c0.065-0.2,0.3-0.5,0.7-0.9l-0.2-0.2l-1,0.8c-0.269,0.134-0.4,0.4-0.4,0.8c0,0.135,0.065,0.2,0.2,0.2
		H171.261z M178.261,61.301v0.8V61.301z M183.261,49.301c0-0.131,0.031-0.231,0.1-0.3c0.065-0.065,0.1-0.166,0.1-0.3l-0.6-0.2v0.6
		L183.261,49.301z M184.861,41.501c0.131,0,0.2-0.065,0.2-0.2L184.861,41.501z M185.061,41.901l0.2-0.2h-0.2V41.901z
		 M185.261,44.301v-0.8c0,0.134-0.069,0.269-0.2,0.4v0.4H185.261z M186.661,40.901c0.266-0.8,0.4-1.4,0.4-1.8l-0.2,1l-1,0.8H186.661
		z M186.861,37.301l-0.2,0.4l0.2-0.2V37.301z M187.661,37.501c0.132-0.266,0.266-0.5,0.4-0.7c0.131-0.2,0.266-0.432,0.399-0.7
		l-0.399-0.6l-0.2,1.4L187.661,37.501z M188.861,34.901l0.2-0.4h-0.601L188.861,34.901z"/>
	<path fill="#FFFFFF" d="M224.258,33.901c-1.469,3.869-3.034,7.935-4.699,12.2c-1.669,4.269-3.27,8.3-4.801,12.1
		c-1.534,3.8-2.769,7.134-3.699,10c-0.935,2.866-1.4,4.766-1.4,5.7c0,0.4,0.131,0.6,0.4,0.6c-0.935,0-1.535-1.069-1.801-3.2v0.8
		l-0.399-0.6l-0.601-0.8l0.2,0.2v-0.4l-0.399-0.4h0.199c0-0.134-0.034-0.2-0.1-0.2c-0.068,0-0.1-0.068-0.1-0.2l0.399-1
		c0.132,0,0.2-0.069,0.2-0.2l0.8,0.2l-0.399-0.6l-0.801-0.4c0.132-0.269,0.2-0.469,0.2-0.6c0-0.134,0.065-0.269,0.2-0.4v0.2v0.4
		l1,0.6c-0.135-0.134-0.2-0.334-0.2-0.6v-0.4l-0.399-0.2l0.199-0.4c-0.134,0-0.168-0.035-0.1-0.1c0.065-0.069-0.034-0.166-0.3-0.3
		l0.399-0.4c0,0.134,0.066,0.2,0.2,0.2l0.4,0.2c0-0.531,0.065-0.865,0.2-1l-0.4-0.2h-0.6h0.199c-1.6,1.731-3.699,3.465-6.3,5.2
		c-2.6,1.731-5.169,2.6-7.7,2.6c-1.469,0-2.668-0.3-3.6-0.9c-0.935-0.6-1.635-1.3-2.1-2.1c-0.466-0.8-0.801-1.668-1-2.6
		c-0.2-0.931-0.301-1.731-0.301-2.4v-1.8c0-0.531-0.065-0.931-0.199-1.2c0.399-3.065,1.034-6.031,1.899-8.9
		c0.866-2.866,2.166-5.5,3.9-7.9c0.531,0,0.8-0.266,0.8-0.8v0.2l0.4-0.4v-0.6l0.6-0.8l0.2-0.2l1.399-1.4l0.2-0.2l0.2-0.2h-0.2
		c0.4-0.666,0.866-1.2,1.4-1.6c0.531-0.4,1.131-0.8,1.8-1.2l0.6-0.4l0.4-0.2c0.131-0.131,0.166-0.2,0.1-0.2
		c-0.068,0-0.034-0.066,0.101-0.2h0.399l2-1.2l0.2-0.2c0.132,0,0.2-0.031,0.2-0.1c0-0.065,0.131-0.1,0.4-0.1l0.6-0.2l0.6-0.2
		c0.666-0.266,1.301-0.5,1.9-0.7c0.6-0.2,1.166-0.3,1.7-0.3l-0.2,0.2v-0.2l-0.4,0.2l-0.399,0.6c0.399-0.131,0.931-0.2,1.6-0.2v-0.2
		l0.2-0.6h0.2l0.2,0.4c-0.135,0-0.2,0.069-0.2,0.2c0.131,0,0.2-0.065,0.2-0.2v0.2v0.2h0.199v-0.2l0.2,0.2
		c0.266-0.266,0.8-0.4,1.601-0.4h0.199c0,0.269-0.334,0.534-1,0.8l0.2,0.2c0.666,0,1.5,0.334,2.5,1c1,0.668,1.632,2.134,1.9,4.4
		c1.331-3.866,2.531-7.366,3.6-10.5c1.065-3.131,2-5.631,2.8-7.5l0.2-0.6v-0.4c0.132-0.531,0.266-1,0.4-1.4
		c0.131-0.4,0.2-0.866,0.2-1.4l0.199-0.4l0.2-0.2c0-0.131-0.034-0.2-0.1-0.2c-0.069,0-0.101-0.065-0.101-0.2l0.601-0.8l0.2-0.8v-0.4
		v-0.6l0.199-0.2c0.266-0.8,0.4-1.465,0.4-2v-0.4h0.2l-0.2,0.2l0.8,0.6v-0.2v0.2l0.4,0.2h-0.2c0,0.134,0.031,0.2,0.1,0.2
		c0.066,0,0.101,0.068,0.101,0.2c-0.135,0.4-0.2,0.8-0.2,1.2h-0.2c0.132,0.134,0.2,0.234,0.2,0.3c0,0.069,0.065,0.169,0.2,0.3
		c0.531-1.066,0.8-1.932,0.8-2.6v-0.2v-0.4c0.266,0,0.531,0.3,0.8,0.9c0.266,0.6,0.466,1.634,0.601,3.1
		c0.131,1.6-0.069,3.834-0.601,6.7C226.924,25.67,225.859,29.37,224.258,33.901z M190.659,51.101c0-0.131,0.031-0.231,0.1-0.3
		c0.066-0.066,0.101-0.231,0.101-0.5v-0.4l-0.2,0.6V51.101z M192.659,64.701c0,1.2,0.2,1.931,0.6,2.2c0.132-0.134,0.266-0.2,0.4-0.2
		c0.131,0,0.266-0.069,0.4-0.2c0.266,0,0.399,0.066,0.399,0.2c0,0.131,0.065,0.2,0.2,0.2l0.2-0.2h-0.2h0.2v-0.2h0.399l0.4-0.2h-0.2
		h0.4c3.731-1.2,6.466-2.9,8.2-5.1c1.73-2.2,3.266-4.966,4.6-8.3v0.2l0.4-0.6v-0.2v-0.2l0.399-0.4v0.2v-0.2v-0.4v-0.2l0.2-0.8v-0.4
		l0.6-1.6l0.2-0.2v-0.2h-0.2l0.2-0.8v0.2c0,0.134,0.065,0.269,0.2,0.4l0.8,0.8c0,0.134,0.031,0.2,0.101,0.2
		c0.065,0,0.1,0.069,0.1,0.2c0.266,0,0.432-0.166,0.5-0.5c0.065-0.331,0.166-0.565,0.3-0.7h-0.2l0.2-0.2v-0.8v-0.4l-0.399-0.2h-0.2
		l-0.2,0.4c0,0.134,0.065,0.269,0.2,0.4h0.2v0.8h-0.4l-0.2,0.6v-1l-0.399-0.8l-0.2,0.2l-0.2-0.8l0.6-2.2l-0.199-0.8l0.199,0.2v-0.2
		c0-0.131-0.034-0.2-0.1-0.2c-0.068,0-0.1-0.066-0.1-0.2l0.399-1.4l0.2-0.2l0.2-1l-0.4-0.2l0.2-0.4c0-0.266-0.034-0.5-0.1-0.7
		c-0.069-0.2-0.101-0.431-0.101-0.7v-0.8c0-0.4-0.068-0.8-0.2-1.2c-0.134-0.4-0.269-0.731-0.399-1c-0.269,0.135-0.5,0.269-0.7,0.4
		c-0.2,0.134-0.435,0.269-0.7,0.4c-0.399,0.4-1.435,1.269-3.1,2.6c-1.669,1.334-3.469,3.2-5.4,5.6c-1.935,2.4-3.7,5.334-5.3,8.8
		C194.059,56.17,193.059,60.17,192.659,64.701z M199.659,38.301l0.2,0.2c0-0.131,0.031-0.2,0.1-0.2c0.065,0,0.101-0.066,0.101-0.2
		v-0.2l-0.2,0.2L199.659,38.301z M202.258,63.101c0.266-0.131,0.432-0.231,0.5-0.3c0.066-0.066,0.231-0.166,0.5-0.3l-0.6-0.2
		l0.2,0.4l-0.4,0.2L202.258,63.101z M204.258,61.701h-0.199h-0.2l-0.2,0.2v0.4L204.258,61.701z M204.859,61.101l0.399-0.4
		l-0.199-0.4L204.859,61.101z M206.059,59.701c0.131,0,0.266-0.066,0.399-0.2c-0.134,0-0.2,0.069-0.2,0.2H206.059z M208.258,57.101
		c0.132-0.131,0.2-0.266,0.2-0.4l-0.6,0.2L208.258,57.101z M208.458,64.701l0.2-0.2c-0.135,0-0.269-0.065-0.4-0.2
		c0.132,0.134,0.132,0.2,0,0.2L208.458,64.701z M208.458,66.301v0.2l0.2-0.2H208.458z M209.059,55.901l0.199-0.4l-0.399,0.4H209.059
		z M210.659,50.901l0.2,0.2l0.2-0.4l-0.601-0.4L210.659,50.901z M213.458,38.101c0-0.131-0.034-0.266-0.1-0.4
		c-0.069-0.131-0.101-0.332-0.101-0.6c0,0.269,0,0.534,0,0.8c0,0.269-0.068,0.4-0.199,0.4l-0.801,0.2l0.601,0.8l0.2,0.2l0.199,0.2
		c0.132,0.269,0.2,0.668,0.2,1.2l-0.2-0.2v-0.4l-0.199-0.4l-1-0.6l0.399,1.2l0.2,0.8l0.2,0.2c0,0.4,0.131,0.6,0.399,0.6v0.8
		l-0.399-0.2l-0.2-0.2h-0.4v0.4l0.2,0.4l-0.8,0.6l1.2,0.2l0.2-0.2h0.199l-0.199,0.4l-0.2-0.2v0.2c0.131,0,0.2,0.134,0.2,0.4
		c0-0.266,0.1-1.031,0.3-2.3C213.559,41.135,213.59,39.701,213.458,38.101z M223.859,18.501v0.4V18.501z M225.458,15.501
		c0.132,0,0.2-0.065,0.2-0.2L225.458,15.501z"/>
	<path fill="#FFFFFF" d="M245.857,42.101c0,1.869-0.234,4.435-0.7,7.7c-0.469,3.269-1.4,6.5-2.8,9.7c-1.4,3.2-3.369,6-5.9,8.4
		c-2.534,2.4-5.8,3.6-9.8,3.6c-1.869,0-3.369-0.369-4.5-1.1c-1.135-0.734-2-1.568-2.6-2.5c-0.601-0.934-1-1.9-1.2-2.9
		s-0.3-1.766-0.3-2.3c0-1.466,0.199-3,0.6-4.6s0.8-3,1.2-4.2l1-1v-0.2l0.2-0.2v-0.2v-0.2v-0.4l0.6-0.8l0.2-0.2l1-2.4h0.2v-0.6v0.2
		c0.266-0.931,1-2,2.199-3.2h0.4h0.4l0.199,0.2l0.2-0.2l-0.2-0.8v0.2v-0.2c0-0.131-0.034-0.2-0.1-0.2c-0.068,0-0.1-0.066-0.1-0.2
		l-0.2-0.4c0.266-0.131,0.399-0.3,0.399-0.5s0.066-0.366,0.2-0.5h0.2l-0.2,0.2c-0.134,0-0.2,0.2-0.2,0.6l0.4,1l0.8-1l0.4-0.8
		l-0.4-0.4c0-0.266,0.065-0.431,0.2-0.5c0.131-0.066,0.2-0.166,0.2-0.3h-0.4l0.4-0.8l0.2,0.2l0.199,0.4v0.2l1-0.8l1.2-0.2l-1-0.4
		h-0.2h-0.399l0.399-0.2v0.2c0,0.134,0.2,0.069,0.601-0.2h-0.4c0-0.266,0.2-0.6,0.601-1c0.399-0.4,0.73-0.8,1-1.2l0.399,0.2
		c0-0.4,0.266-0.731,0.8-1l0.2,0.2l-0.2,0.2l-0.399-0.2l-0.2,0.2c-0.135,0-0.2,0.069-0.2,0.2v0.2l0.2,0.2l-0.2,0.4v0.2l0.2-0.2
		l0.8-0.4h-0.2l0.4-0.8v0.2h0.2h0.399h-0.399v0.6l-0.2,0.6c0.131-0.131,0.365-0.3,0.7-0.5c0.331-0.2,0.565-0.431,0.7-0.7l0.399-0.4
		l0.2-0.2v-0.2v-0.2l-0.6-0.8h0.399h0.2c0.666-0.266,1.1-0.465,1.3-0.6c0.2-0.131,0.632-0.2,1.3-0.2h1h2.2c1.331,0,2.331,0.334,3,1
		c0.666,0.669,1.166,1.435,1.5,2.3c0.331,0.869,0.565,1.734,0.7,2.6C245.788,40.87,245.857,41.57,245.857,42.101z M222.857,51.301
		c0.131-0.266,0.231-0.631,0.3-1.1c0.065-0.466,0.231-0.832,0.5-1.1v-0.2v-1.4l-0.8,1.8h0.2l-0.2,0.4v0.6V51.301z M232.457,63.301
		c1.2-1.2,2.266-2.7,3.2-4.5c0.932-1.8,1.731-3.731,2.4-5.8c0.665-2.065,1.199-4.166,1.6-6.3c0.4-2.131,0.6-4,0.6-5.6
		c0-0.666-0.068-1.331-0.199-2c-0.135-0.666-0.535-1.266-1.2-1.8c0.266,0,0.031,0.3-0.7,0.9c-0.734,0.6-1.734,1.634-3,3.1
		c-1.269,1.469-2.669,3.434-4.2,5.9c-1.534,2.469-2.899,5.5-4.1,9.1c-0.669,1.2-1.169,2.9-1.5,5.1c-0.335,2.2-0.3,3.5,0.1,3.9
		c0.531,0.269,1.065,0.4,1.601,0.4c0.266,0,0.665,0,1.199,0c0.531,0,0.866-0.066,1-0.2h-0.199l-0.2,0.2l-0.8-0.2
		c0.399,0,1.131-0.166,2.199-0.5c1.066-0.331,1.731-0.831,2-1.5l0.2-0.4V63.301z M227.457,44.701c-0.134,0-0.2,0.069-0.2,0.2
		L227.457,44.701z M230.457,38.701v-0.8l-0.6,0.8l0.6,0.2V38.701z M236.457,34.701l-0.2,0.2h-0.199h0.199L236.457,34.701z"/>
	<path fill="#FFFFFF" d="M298.251,33.901c-1.469,3.869-3.034,7.935-4.699,12.2c-1.669,4.269-3.27,8.3-4.801,12.1
		c-1.534,3.8-2.769,7.134-3.699,10c-0.935,2.866-1.4,4.766-1.4,5.7c0,0.4,0.131,0.6,0.4,0.6c-0.935,0-1.535-1.069-1.801-3.2v0.8
		l-0.399-0.6l-0.601-0.8l0.2,0.2v-0.4l-0.399-0.4h0.199c0-0.134-0.034-0.2-0.1-0.2c-0.068,0-0.1-0.068-0.1-0.2l0.399-1
		c0.132,0,0.2-0.069,0.2-0.2l0.8,0.2l-0.399-0.6l-0.801-0.4c0.132-0.269,0.2-0.469,0.2-0.6c0-0.134,0.065-0.269,0.2-0.4v0.2v0.4
		l1,0.6c-0.135-0.134-0.2-0.334-0.2-0.6v-0.4l-0.399-0.2l0.199-0.4c-0.134,0-0.168-0.035-0.1-0.1c0.065-0.069-0.034-0.166-0.3-0.3
		l0.399-0.4c0,0.134,0.066,0.2,0.2,0.2l0.4,0.2c0-0.531,0.065-0.865,0.2-1l-0.4-0.2h-0.6h0.199c-1.6,1.731-3.699,3.465-6.3,5.2
		c-2.6,1.731-5.169,2.6-7.7,2.6c-1.469,0-2.668-0.3-3.6-0.9c-0.935-0.6-1.635-1.3-2.1-2.1c-0.466-0.8-0.801-1.668-1-2.6
		c-0.2-0.931-0.301-1.731-0.301-2.4v-1.8c0-0.531-0.065-0.931-0.199-1.2c0.399-3.065,1.034-6.031,1.899-8.9
		c0.866-2.866,2.166-5.5,3.9-7.9c0.531,0,0.8-0.266,0.8-0.8v0.2l0.4-0.4v-0.6l0.6-0.8l0.2-0.2l1.399-1.4l0.2-0.2l0.2-0.2h-0.2
		c0.4-0.666,0.866-1.2,1.4-1.6c0.531-0.4,1.131-0.8,1.8-1.2l0.6-0.4l0.4-0.2c0.131-0.131,0.166-0.2,0.1-0.2
		c-0.068,0-0.034-0.066,0.101-0.2h0.399l2-1.2l0.2-0.2c0.132,0,0.2-0.031,0.2-0.1c0-0.065,0.131-0.1,0.4-0.1l0.6-0.2l0.6-0.2
		c0.666-0.266,1.301-0.5,1.9-0.7c0.6-0.2,1.166-0.3,1.7-0.3l-0.2,0.2v-0.2l-0.4,0.2l-0.399,0.6c0.399-0.131,0.931-0.2,1.6-0.2v-0.2
		l0.2-0.6h0.2l0.2,0.4c-0.135,0-0.2,0.069-0.2,0.2c0.131,0,0.2-0.065,0.2-0.2v0.2v0.2h0.199v-0.2l0.2,0.2
		c0.266-0.266,0.8-0.4,1.601-0.4h0.199c0,0.269-0.334,0.534-1,0.8l0.2,0.2c0.666,0,1.5,0.334,2.5,1c1,0.668,1.632,2.134,1.9,4.4
		c1.331-3.866,2.531-7.366,3.6-10.5c1.065-3.131,2-5.631,2.8-7.5l0.2-0.6v-0.4c0.132-0.531,0.266-1,0.4-1.4
		c0.131-0.4,0.2-0.866,0.2-1.4l0.199-0.4l0.2-0.2c0-0.131-0.034-0.2-0.1-0.2c-0.069,0-0.101-0.065-0.101-0.2l0.601-0.8l0.2-0.8v-0.4
		v-0.6l0.199-0.2c0.266-0.8,0.4-1.465,0.4-2v-0.4h0.2l-0.2,0.2l0.8,0.6v-0.2v0.2l0.4,0.2h-0.2c0,0.134,0.031,0.2,0.1,0.2
		c0.066,0,0.101,0.068,0.101,0.2c-0.135,0.4-0.2,0.8-0.2,1.2h-0.2c0.132,0.134,0.2,0.234,0.2,0.3c0,0.069,0.065,0.169,0.2,0.3
		c0.531-1.066,0.8-1.932,0.8-2.6v-0.2v-0.4c0.266,0,0.531,0.3,0.8,0.9c0.266,0.6,0.466,1.634,0.601,3.1
		c0.131,1.6-0.069,3.834-0.601,6.7C300.917,25.67,299.852,29.37,298.251,33.901z M264.652,51.101c0-0.131,0.031-0.231,0.1-0.3
		c0.066-0.066,0.101-0.231,0.101-0.5v-0.4l-0.2,0.6V51.101z M266.652,64.701c0,1.2,0.2,1.931,0.6,2.2c0.132-0.134,0.266-0.2,0.4-0.2
		c0.131,0,0.266-0.069,0.4-0.2c0.266,0,0.399,0.066,0.399,0.2c0,0.131,0.065,0.2,0.2,0.2l0.2-0.2h-0.2h0.2v-0.2h0.399l0.4-0.2h-0.2
		h0.4c3.731-1.2,6.466-2.9,8.2-5.1c1.73-2.2,3.266-4.966,4.6-8.3v0.2l0.4-0.6v-0.2v-0.2l0.399-0.4v0.2v-0.2v-0.4v-0.2l0.2-0.8v-0.4
		l0.6-1.6l0.2-0.2v-0.2h-0.2l0.2-0.8v0.2c0,0.134,0.065,0.269,0.2,0.4l0.8,0.8c0,0.134,0.031,0.2,0.101,0.2
		c0.065,0,0.1,0.069,0.1,0.2c0.266,0,0.432-0.166,0.5-0.5c0.065-0.331,0.166-0.565,0.3-0.7h-0.2l0.2-0.2v-0.8v-0.4l-0.399-0.2h-0.2
		l-0.2,0.4c0,0.134,0.065,0.269,0.2,0.4h0.2v0.8h-0.4l-0.2,0.6v-1l-0.399-0.8l-0.2,0.2l-0.2-0.8l0.6-2.2l-0.199-0.8l0.199,0.2v-0.2
		c0-0.131-0.034-0.2-0.1-0.2c-0.068,0-0.1-0.066-0.1-0.2l0.399-1.4l0.2-0.2l0.2-1l-0.4-0.2l0.2-0.4c0-0.266-0.034-0.5-0.1-0.7
		c-0.069-0.2-0.101-0.431-0.101-0.7v-0.8c0-0.4-0.068-0.8-0.2-1.2c-0.134-0.4-0.269-0.731-0.399-1c-0.269,0.135-0.5,0.269-0.7,0.4
		c-0.2,0.134-0.435,0.269-0.7,0.4c-0.399,0.4-1.435,1.269-3.1,2.6c-1.669,1.334-3.469,3.2-5.4,5.6c-1.935,2.4-3.7,5.334-5.3,8.8
		C268.052,56.17,267.052,60.17,266.652,64.701z M273.652,38.301l0.2,0.2c0-0.131,0.031-0.2,0.1-0.2c0.065,0,0.101-0.066,0.101-0.2
		v-0.2l-0.2,0.2L273.652,38.301z M276.251,63.101c0.266-0.131,0.432-0.231,0.5-0.3c0.066-0.066,0.231-0.166,0.5-0.3l-0.6-0.2
		l0.2,0.4l-0.4,0.2L276.251,63.101z M278.251,61.701h-0.199h-0.2l-0.2,0.2v0.4L278.251,61.701z M278.852,61.101l0.399-0.4
		l-0.199-0.4L278.852,61.101z M280.052,59.701c0.131,0,0.266-0.066,0.399-0.2c-0.134,0-0.2,0.069-0.2,0.2H280.052z M282.251,57.101
		c0.132-0.131,0.2-0.266,0.2-0.4l-0.6,0.2L282.251,57.101z M282.452,64.701l0.2-0.2c-0.135,0-0.269-0.065-0.4-0.2
		c0.132,0.134,0.132,0.2,0,0.2L282.452,64.701z M282.452,66.301v0.2l0.2-0.2H282.452z M283.052,55.901l0.199-0.4l-0.399,0.4H283.052
		z M284.652,50.901l0.2,0.2l0.2-0.4l-0.601-0.4L284.652,50.901z M287.452,38.101c0-0.131-0.034-0.266-0.1-0.4
		c-0.069-0.131-0.101-0.332-0.101-0.6c0,0.269,0,0.534,0,0.8c0,0.269-0.068,0.4-0.199,0.4l-0.801,0.2l0.601,0.8l0.2,0.2l0.199,0.2
		c0.132,0.269,0.2,0.668,0.2,1.2l-0.2-0.2v-0.4l-0.199-0.4l-1-0.6l0.399,1.2l0.2,0.8l0.2,0.2c0,0.4,0.131,0.6,0.399,0.6v0.8
		l-0.399-0.2l-0.2-0.2h-0.4v0.4l0.2,0.4l-0.8,0.6l1.2,0.2l0.2-0.2h0.199l-0.199,0.4l-0.2-0.2v0.2c0.131,0,0.2,0.134,0.2,0.4
		c0-0.266,0.1-1.031,0.3-2.3C287.552,41.135,287.583,39.701,287.452,38.101z M297.852,18.501v0.4V18.501z M299.452,15.501
		c0.132,0,0.2-0.065,0.2-0.2L299.452,15.501z"/>
	<path fill="#FFFFFF" d="M315.65,60.501c0.132-0.131,0.266-0.2,0.4-0.2c0.131,0,0.2,0.068,0.2,0.2c0,0.4-0.601,1.134-1.801,2.2
		c-0.8,0.4-1.668,0.934-2.6,1.6c-0.935,0.668-2.169,1.434-3.7,2.3c-1.534,0.866-3.435,1.831-5.7,2.9c-2.269,1.066-5.199,2.2-8.8,3.4
		h-0.2c-0.931,0-1.73-0.434-2.399-1.3c-0.666-0.869-1-1.634-1-2.3v-0.4l0.2-0.2c0-0.269-0.066-0.6-0.2-1c-0.132-0.4-0.132-0.6,0-0.6
		c0-0.134,0.034-0.169,0.1-0.1c0.069,0.066,0.101,0.031,0.101-0.1l-0.2-0.2c0-0.666,0.1-1.366,0.3-2.1
		c0.2-0.731,0.435-1.431,0.7-2.1l0.6,0.2c0-0.531,0.135-0.931,0.4-1.2h-0.2h-0.2l-0.2,0.4l-0.199,0.4l0.399-1.4v-0.2
		c0-0.131,0.034-0.231,0.101-0.3c0.068-0.065,0.1-0.231,0.1-0.5v-0.2c0.135,0,0.2-0.031,0.2-0.1c0-0.065,0.068-0.1,0.2-0.1v-0.2
		c0-0.131,0.034-0.231,0.1-0.3c0.068-0.065,0.1-0.231,0.1-0.5l0.4,0.6l0.6-1.2l-0.199,0.2l-0.2,0.2l0.2-0.6l0.199-0.2l-0.199-1
		c0.134-0.131,0.234-0.465,0.3-1c0.068-0.531,0.169-1.065,0.3-1.6c0.131-0.531,0.266-1.031,0.4-1.5c0.131-0.465,0.266-0.7,0.399-0.7
		h0.2v-0.2h-0.2h0.2l-0.2-0.2h0.2l0.2-0.2l-0.2-0.2l0.2-0.2h-0.2l0.2-0.2c0.131,0,0.2-0.131,0.2-0.4h-0.4v-0.2v0.2l0.2-0.2l-0.2-0.6
		v-0.4v0.2c0.131,0,0.166-0.031,0.1-0.1c-0.068-0.065-0.034-0.1,0.101-0.1h0.399h-0.199c0,0.135,0.266-0.4,0.8-1.6
		c0.531-1.2,1.2-2.6,2-4.2s1.6-3.1,2.399-4.5c0.801-1.4,1.4-2.3,1.801-2.7l0.8-0.4v-0.2l0.399-0.2c0-0.131,0.066-0.231,0.2-0.3
		c0.132-0.066,0.2-0.166,0.2-0.3l0.6-0.4l0.2-0.2v0.2l0.4-0.2h-0.2l1.2-0.4l0.399-0.4v0.2l0.801-0.6v0.2c-0.135,0-0.2,0.035-0.2,0.1
		c0,0.069-0.069,0.1-0.2,0.1v0.2v1.4c0,0.134,0.131,0.2,0.4,0.2l0.199,0.2h-0.199c0.531,0,0.8-0.131,0.8-0.4l-0.2-0.2h0.2l0.2,0.2
		c0.131-0.131,0.331-0.2,0.6-0.2l-0.2-0.2h0.4l-0.2-0.4v-0.2h-0.4h-0.199v0.2l-0.601,0.4l-0.2-0.4l-0.399,0.2l0.399-0.4l0.2-0.2
		l0.4-0.4l0.2-0.6c0.8-0.266,1.399-0.4,1.8-0.4l0.6-0.2h0.4l0.2-0.2l0.199,0.2l2-0.4l0.2,0.2v-0.2l1.8-0.2
		c0.666,0.134,1.432,0.269,2.301,0.4c0.865,0.134,1.431,0.269,1.699,0.4h-0.399l-0.601,0.2c0.666,0,1.166,0.034,1.5,0.1
		c0.332,0.069,0.632,0.1,0.9,0.1l0.2,0.2c0,0.269-0.5,0.569-1.5,0.9c-1,0.334-2.234,0.769-3.7,1.3c-1.469,0.535-3.034,1.2-4.7,2
		c-1.669,0.8-3.234,1.869-4.7,3.2c-0.668,0.8-1.234,1.734-1.699,2.8c-0.469,1.069-0.969,2.135-1.5,3.2l0.199-0.2l0.2,0.2
		c0.4-0.4,1-0.731,1.8-1c0.801-0.266,1.531-0.4,2.2-0.4l0.2,0.2v-0.2v0.2l0.2-0.2v0.2h-0.2l0.2-0.2l0.2-0.2l0.399-0.2l0.2,0.2v0.8
		h0.2v-0.2v-0.8l0.8-0.2v0.2v-0.2v0.2h0.6l0.4-0.2c0.666,0.269,1.065,0.6,1.2,1h-0.2l-0.2,0.2c0.266,0.269,0.466,0.4,0.601,0.4
		c0.131,0,0.199,0.134,0.199,0.4c0,0.935-1.134,2.034-3.399,3.3c-2.269,1.269-4.534,2.234-6.8,2.9c-0.801,0.269-1.5,0.969-2.101,2.1
		c-0.6,1.135-1.134,2.4-1.6,3.8c-0.469,1.4-0.869,2.8-1.2,4.2c-0.334,1.4-0.635,2.569-0.9,3.5c0.4-0.131,0.766-0.266,1.101-0.4
		c0.331-0.131,0.631-0.266,0.899-0.4h0.601l0.2-0.2h0.399c0-0.131,0.065-0.2,0.2-0.2c0.131,0,0.2-0.066,0.2-0.2l0.399-0.2h0.4
		l0.2-0.2l1.6-0.8c0.8-0.531,1.866-1,3.2-1.4h0.4l0.399-0.2l0.2-0.2l1.2-0.2l0.8-0.4c0.266,0,0.466-0.065,0.6-0.2h0.2l0.601,0.2
		l0.399-0.4c0.932,0,1.932-0.131,3-0.4h-0.399l-0.2,0.2l-0.4,0.6h0.2l-0.2,0.2c0.8,0,1.266-0.131,1.4-0.4l-0.2-0.6l0.4-0.2
		c0.266,0,0.399,0.069,0.399,0.2h-0.2l0.2,0.2l0.2-0.2v0.2c0.131,0,0.266-0.066,0.4-0.2l-0.4,0.6c0.131,0,0.065-0.131-0.2-0.4h-0.2
		c-0.134,0-0.199,0.068-0.199,0.2c0.131,0,0.199-0.065,0.199-0.2v0.2v0.2l-0.199,0.2c0.266-0.131,0.5-0.2,0.699-0.2
		C315.15,60.701,315.381,60.635,315.65,60.501z M290.65,66.301c0-0.266,0.069-0.466,0.2-0.6h-0.4v0.4v0.4
		C290.45,66.367,290.519,66.301,290.65,66.301z M290.85,65.301c0-0.131,0.034-0.266,0.1-0.4c0.069-0.131,0.101-0.331,0.101-0.6
		c-0.266,0-0.4,0.2-0.4,0.6h0.2V65.301z M292.25,60.901c0-0.131,0.034-0.231,0.1-0.3c0.068-0.065,0.1-0.166,0.1-0.3l-0.199,0.4
		V60.901z M292.65,59.701c0-0.131,0.034-0.2,0.101-0.2c0.068,0,0.1-0.065,0.1-0.2l-0.2,0.2V59.701z M294.65,54.901l-0.6-2.2v3.4
		L294.65,54.901z M295.45,48.901v0.2l0.2-0.2H295.45z M295.85,50.301l-0.2-0.2v0.2l0.2,0.2V50.301z M295.85,68.901
		c0,0.131,0.065,0.2,0.2,0.2L295.85,68.901z M298.05,44.701l0.399,0.4h-0.199v0.2c0.131-0.131,0.199-0.231,0.199-0.3
		c0-0.065,0.066-0.166,0.2-0.3H298.05z M298.85,44.101v0.2c0-0.131,0.031-0.231,0.1-0.3c0.066-0.065,0.101-0.166,0.101-0.3
		c0,0.134-0.069,0.2-0.2,0.2V44.101z M299.85,42.701l-0.4-0.2v0.6L299.85,42.701z M300.25,41.901c0-0.131,0.031-0.2,0.1-0.2
		c0.065,0,0.1-0.066,0.1-0.2l-0.199,0.2V41.901z M301.65,39.301l0.2,0.2c0-0.131,0.031-0.2,0.1-0.2c0.066,0,0.101-0.066,0.101-0.2
		l-0.2,0.2H301.65z M302.25,38.501l0.199,0.2l0.4-0.4h-0.4L302.25,38.501z M304.85,34.901l0.2,0.2l0.2,0.2v-0.6L304.85,34.901z
		 M306.25,35.501c-0.4,0.4-0.734,0.669-1,0.8c0.531-0.4,1.065-0.666,1.6-0.8H306.25z M305.65,62.901v0.2l0.4-0.2v-0.4l-0.4,0.2
		V62.901z M308.05,62.501v-0.2l-0.2,0.2H308.05z M310.25,32.501l0.399,1.2c0.666-0.266,1-0.466,1-0.6l-0.399-0.2l-0.4,0.2
		L310.25,32.501z M310.65,45.101v-0.4l-0.2,0.4H310.65z M312.45,31.901h-0.199v0.2l0.399-0.2H312.45z M312.65,32.701l0.2,0.4h-0.4
		c0.266,0,0.5-0.031,0.7-0.1c0.2-0.065,0.432-0.1,0.7-0.1l0.2-0.8l-1.2,0.6H312.65z M314.45,32.701c0.266,0,0.466-0.066,0.601-0.2
		l-0.2-0.4L314.45,32.701z"/>
	<path fill="#FFFFFF" d="M403.646,37.101c0.531,0.134,0.8,0.334,0.8,0.6c-0.269,0-1.5,0.134-3.7,0.4c-2.2,0.269-5.169,0.935-8.9,2
		c0.132,0.669,0.2,1.669,0.2,3c-0.269,4-1.8,8.234-4.6,12.7c-2.8,4.469-6.5,8.634-11.101,12.5c-4.6,3.865-9.834,7.166-15.699,9.9
		c-5.869,2.731-11.869,4.3-18,4.7c-0.935,0-2-0.1-3.2-0.3s-2.369-0.569-3.5-1.1c-1.135-0.534-2.065-1.3-2.8-2.3
		c-0.731-1-1.101-2.3-1.101-3.9c0-0.4,0.069-0.734,0.2-1c-0.131-0.4-0.2-1.069-0.2-2c0.135-2.535,1.069-4.935,2.8-7.2
		c1.731-2.266,3.832-4.4,6.301-6.4c2.465-2,5.1-3.8,7.899-5.4c2.8-1.6,5.331-3,7.601-4.2v0.2v-0.2
		c0.266-0.131,0.665-0.266,1.199-0.4c0.531-0.131,0.801-0.332,0.801-0.6l0.199,0.2c0.132-0.131,0.466-0.332,1-0.6h-0.199
		c0.131,0,0.331-0.066,0.6-0.2l0.6-0.6l2.2-1v0.2l0.601-0.4l3.8-1.6c0.399,0,0.6-0.131,0.6-0.4l1.601-0.8v0.2
		c-0.669,0.269-1,0.469-1,0.6l-0.4,0.2h0.2l-0.4,1.2c0.266-0.131,0.531-0.266,0.8-0.4c0.266-0.131,0.531-0.266,0.801-0.4l-1.2,0.6
		l1.399-1l1.801-1l-0.4-0.2l5.6-2.2c0.132,0,0.266-0.065,0.4-0.2l1.6-0.6v0.2l0.4-0.2c0.131,0,0.2-0.031,0.2-0.1
		c0-0.065,0.131-0.166,0.399-0.3l3.801-0.8l-0.2,0.2l2.399-0.8c-1.334-2.666-3.199-4.6-5.6-5.8s-4.734-1.866-7-2
		c-2.4-0.131-4.734,0.169-7,0.9c-2.269,0.734-4.269,1.6-6,2.6c-1.734,1-3.234,1.969-4.5,2.9c-1.269,0.935-2.1,1.535-2.5,1.8
		c-1.734,1.068-2.734,1.8-3,2.2c-0.269,0.4-0.734,0.935-1.4,1.6c-1.469,3.069-2.734,5.5-3.8,7.3c-1.068,1.8-1.868,2.7-2.399,2.7
		v-0.2c0-0.531,0.131-1,0.399-1.4v-0.6v-1.8v0.4l0.2-0.6c-0.135,0-0.2-0.131-0.2-0.4v-0.4c0-0.4,0.101-0.8,0.3-1.2
		c0.2-0.4,0.432-0.6,0.7-0.6h0.601v-0.2l-0.2-0.6c-0.135-0.131-0.269-0.2-0.4-0.2v-0.2c0.132-0.266,0.2-0.666,0.2-1.2l0.2,0.2v0.4
		l0.399,0.6c0.132-0.266,0.2-0.431,0.2-0.5c0-0.065,0.065-0.231,0.2-0.5l-0.2-0.6l0.2-0.2c0-0.266-0.135-0.466-0.4-0.6l0.2-0.8
		l0.2,0.2l0.2,0.2l0.399,0.2v-0.2c0.132-0.131,0.2-0.332,0.2-0.6v-0.2c0.132,0,0.2-0.131,0.2-0.4l-0.6-0.2l-0.2,0.2h-0.2l0.2-0.4
		l0.2,0.2l-0.2-0.2l0.2-0.2h-0.2v-0.2v-0.2c0.266-0.266,0.431-0.631,0.5-1.1c0.065-0.465,0.231-0.965,0.5-1.5l0.399,0.2l-0.199,0.2
		l-0.2,0.2c-0.135,0.134-0.2,0.269-0.2,0.4l0.2,0.6c0.131,0.134,0.3,0.134,0.5,0c0.2-0.131,0.3-0.331,0.3-0.6l-0.2-0.8h0.4
		c0-0.266,0.031-0.431,0.1-0.5c0.065-0.066,0.101-0.166,0.101-0.3v-0.2l-0.4-0.2l-0.2,0.2l-0.399,0.2c0-0.131,0.165-0.731,0.5-1.8
		c0.331-1.065,0.631-2.131,0.899-3.2l0.2-0.2c0-0.666,0.131-1.266,0.4-1.8c0.266-0.531,0.465-1.065,0.6-1.6l0.4,0.2l0.199-0.4
		l-0.199,0.8l0.399-0.4l0.2-0.2v-0.2l-0.4-0.4l-0.199,0.4c0-0.266-0.069-0.4-0.2-0.4c0.266-0.266,0.466-0.731,0.6-1.4
		c0.132-0.666,0.2-1.131,0.2-1.4v0.2c0.266,0,0.4-0.266,0.4-0.8h-0.2c0.266-0.266,0.531-0.9,0.8-1.9c0.266-1,0.4-1.631,0.4-1.9
		c0.131,0.134,0.199,0.269,0.199,0.4c0-0.4,0.266-1.031,0.801-1.9c0.531-0.866,1.065-1.7,1.6-2.5c0.531-0.8,1.031-1.565,1.5-2.3
		c0.466-0.731,0.7-1.231,0.7-1.5c0.266-0.266,0.665-0.631,1.2-1.1c0.531-0.466,1-0.9,1.399-1.3v0.2c0.132,0,0.2-0.1,0.2-0.3
		c0-0.2,0.131-0.231,0.4-0.1h-0.2c0.531-0.266,1.1-0.565,1.7-0.9c0.6-0.332,1.23-0.566,1.899-0.7v0.4c0.132,0,0.2-0.031,0.2-0.1
		c0-0.066,0.065-0.1,0.2-0.1l-0.4-0.4h0.601c0.399,0,0.6,0.068,0.6,0.2l0.2-0.2h0.2c3.065,0.134,5.199,1.034,6.399,2.7
		c1.2,1.669,1.731,3.435,1.601,5.3c-0.135,2.4-0.77,4.534-1.9,6.4c-1.135,1.869-2.234,3.469-3.3,4.8c1.466-0.531,3.2-0.8,5.2-0.8
		l-0.4,0.4c0.131-0.131,0.731-0.2,1.8-0.2c1.331,0,2.8,0.169,4.4,0.5c1.6,0.334,3.2,0.9,4.8,1.7s3.1,1.9,4.5,3.3
		c1.4,1.4,2.5,3.169,3.3,5.3c1.331-0.266,2.831-0.431,4.5-0.5c1.666-0.066,3.101-0.1,4.3-0.1c0.531,0,0.932,0.069,1.2,0.2
		c0.266,0.134,0.531,0.2,0.8,0.2h-1.8l-2.8,0.8c1.466-0.266,2.731-0.366,3.8-0.3C402.111,37.07,402.977,37.101,403.646,37.101z
		 M335.646,66.901c0.266-0.269,0.5-0.568,0.699-0.9c0.2-0.331,0.432-0.631,0.7-0.9v0.2v-0.2l-1,0.2l0.2,0.8l-0.4,0.2
		c-0.134,0.131-0.199,0.266-0.199,0.4V66.901z M355.646,74.301c0.266,0,0.665-0.135,1.199-0.4l-1-0.2l1-0.4
		c0.801-0.269,1.132-0.4,1-0.4v0.2c0.132,0,0.266-0.069,0.4-0.2l0.2-0.2c0.131,0,0.2-0.035,0.2-0.1c0-0.069,0.065-0.1,0.199-0.1
		l0.4-0.2h0.2l0.8-0.6h-0.2h0.8c2.531-1.734,5.2-3.734,8-6c2.801-2.266,5.4-4.7,7.801-7.3c2.399-2.6,4.465-5.3,6.199-8.1
		c1.731-2.8,2.801-5.666,3.2-8.6c-3.868,1.334-8.068,2.934-12.6,4.8c-4.534,1.869-9.269,4.2-14.2,7c-2.135,1.2-4.469,2.669-7,4.4
		c-2.534,1.734-4.935,3.6-7.2,5.6c-2.269,2-4.169,4.031-5.7,6.1c-1.534,2.065-2.3,4.1-2.3,6.1c0,0.931,1.331,1.531,4,1.8
		c1.065-0.269,2.2-0.434,3.4-0.5c1.2-0.069,2.331-0.168,3.399-0.3h-0.199c-0.135,0-0.2,0.065-0.2,0.2c0.266,0,0.531-0.068,0.8-0.2
		c0.266-0.134,0.531-0.2,0.8-0.2c0-0.134-0.068-0.2-0.2-0.2c1.2-0.269,2.366-0.6,3.5-1c1.132-0.4,2.231-0.935,3.301-1.6V74.301z
		 M337.646,64.501c0.531-0.8,1-1.331,1.399-1.6h-0.2l-0.6,0.4l-0.2,0.6L337.646,64.501z M340.246,61.701
		c0.266-0.266,0.5-0.431,0.7-0.5c0.2-0.066,0.431-0.231,0.7-0.5l-0.2-0.4l-1,1.2L340.246,61.701z M345.446,42.101l0.2,0.2v-0.2
		H345.446z M345.446,57.301l0.2,0.2v-0.2H345.446z M349.045,28.501c0,0.134,0.065,0.269,0.2,0.4v-0.2v0.2l0.4-0.4l-0.601-0.2V28.501
		z M351.045,24.301c0.132-0.131,0.2-0.332,0.2-0.6l-0.2-0.2l-0.2-0.2l-0.199,0.2v0.4l-0.4,0.4H351.045z M351.845,22.501
		c0-0.131,0.031-0.231,0.101-0.3c0.065-0.066,0.1-0.166,0.1-0.3l-0.399,0.4L351.845,22.501z M352.246,21.501
		c0-0.266,0.131-0.666,0.4-1.2v-0.2v0.2c0.131-0.266,0.199-0.5,0.199-0.7s0.066-0.431,0.2-0.7l-0.2,0.2
		c0,0.134-0.068,0.269-0.199,0.4h0.199h-0.8v0.8l0.2,0.6v0.2V21.501z M366.845,13.901c0-0.8-0.334-1.2-1-1.2c-1.469,0-2.8,0.7-4,2.1
		c-1.199,1.4-2.334,3.134-3.399,5.2c-1.069,2.069-2.069,4.269-3,6.6c-0.935,2.334-1.8,4.435-2.601,6.3
		c-0.269,0.269-0.399,0.469-0.399,0.6c0.399-0.266,0.766-0.565,1.1-0.9c0.331-0.331,0.7-0.631,1.101-0.9v0.2
		c0-0.131,0.031-0.166,0.1-0.1c0.065,0.068,0.1,0.034,0.1-0.1h-0.199c0-0.131,0.165-0.366,0.5-0.7
		c0.331-0.331,0.565-0.631,0.699-0.9h0.2c0-0.266,0.101-0.4,0.3-0.4c0.2,0,0.432-0.131,0.7-0.4l0.2,0.2c0-0.266,0.5-0.9,1.5-1.9
		s1.631-1.9,1.9-2.7h0.199c0.266-0.531,0.632-1,1.101-1.4c0.466-0.4,0.831-0.866,1.1-1.4l0.2,0.4c0-0.131,0.031-0.231,0.1-0.3
		c0.066-0.066,0.101-0.166,0.101-0.3l-0.2-0.2c0.266-0.131,0.531-0.566,0.8-1.3c0.266-0.731,0.601-1.1,1-1.1l0.2-0.6l0.2,0.4
		c0-0.131,0.2-0.4,0.6-0.8h-0.2l0.2-0.2h-0.399c0-0.531,0.199-0.931,0.6-1.2c-0.135,0-0.2-0.065-0.2-0.2c0.266-0.531,0.4-1,0.4-1.4
		c0.131,0,0.2,0.068,0.2,0.2c0-0.4,0.031-0.7,0.1-0.9C366.811,14.401,366.845,14.17,366.845,13.901z M352.446,18.301v0.2
		c0.131,0,0.2-0.065,0.2-0.2H352.446z M352.845,18.501v0.2l-0.199-0.2c0,0.134,0.065,0.2,0.199,0.2V18.501z M353.246,33.301
		c0.131-0.131,0.266-0.332,0.4-0.6L353.246,33.301z M354.446,15.101l-0.2,0.2C354.246,15.17,354.311,15.101,354.446,15.101z
		 M354.646,15.301c-0.135,0-0.2,0.068-0.2,0.2h0.2l-0.2,0.8l0.2-0.2c0-0.131,0.031-0.231,0.1-0.3c0.065-0.066,0.1-0.166,0.1-0.3
		l-0.199-0.4V15.301z M355.045,31.901l0.2-0.2h-0.2V31.901z M355.845,13.501c-0.134,0.134-0.199,0.334-0.199,0.6L355.845,13.501z
		 M356.845,12.501c-0.134,0-0.199,0.069-0.199,0.2h0.199V12.501z M357.246,11.901v0.2l0.4-0.2H357.246z M357.845,11.701l0.2-0.2
		h-0.2V11.701z M362.646,47.301v0.2l1.199-0.6l-0.199-0.2L362.646,47.301z M363.246,70.701l0.2-0.2
		C363.311,70.501,363.246,70.567,363.246,70.701z M367.045,14.701v-0.2v-0.2V14.701z M367.246,44.101l-0.2,0.4
		C367.045,44.37,367.111,44.235,367.246,44.101z M371.446,43.701c0.266-0.131,0.531-0.231,0.8-0.3c0.266-0.065,0.531-0.166,0.8-0.3
		c-0.269,0-0.435,0.034-0.5,0.1c-0.068,0.069-0.169,0.1-0.3,0.1L371.446,43.701h-0.2H371.446z M375.045,41.501
		c0.132,0,0.266-0.065,0.4-0.2h-0.2L375.045,41.501z M377.246,40.901l0.4,0.6c0.531-0.266,1.031-0.431,1.5-0.5
		c0.465-0.065,0.965-0.231,1.5-0.5v-0.2l-1.2,0.4l-0.2,0.2h-0.4v0.2L377.246,40.901z M382.045,40.101v0.2l0.601-0.4L382.045,40.101z
		 M383.246,38.901c-0.4,0-0.669,0.069-0.8,0.2c0.131,0,0.266-0.031,0.399-0.1C382.977,38.936,383.111,38.901,383.246,38.901z
		 M382.446,53.101c0.266-0.531,0.665-1.2,1.2-2l0.199-1l-0.8,1.4l-0.2,0.4L382.446,53.101z M383.246,39.701l0.2,0.2
		c0.8-0.4,1.665-0.6,2.6-0.6v-0.8l-1.399,0.6c-0.135,0.134-0.27,0.2-0.4,0.2c-0.135,0-0.269,0.068-0.4,0.2L383.246,39.701z
		 M395.646,37.301h1h0.399h-0.6l-0.601-0.2C395.845,37.235,395.777,37.301,395.646,37.301z"/>
	<path fill="#FFFFFF" d="M418.444,49.301c-1.734,5.068-3.3,9.434-4.7,13.1c-1.4,3.669-2.5,6.3-3.3,7.9
		c-1.069,2.666-1.835,3.565-2.3,2.7c-0.469-0.869-0.77-2.168-0.9-3.9c0.131-0.4,0.4-0.969,0.8-1.7c0.4-0.734,0.666-1.168,0.8-1.3
		c0-0.131-0.068-0.2-0.199-0.2h0.199l-0.199-0.2c0-0.131,0.065-0.231,0.199-0.3c0.132-0.065,0.2-0.231,0.2-0.5v-0.2
		c-1.868,1.6-3.834,3.1-5.899,4.5c-2.069,1.4-4.234,2.1-6.5,2.1c-2.535,0.131-4.301-0.635-5.301-2.3c-1-1.668-1.5-3.3-1.5-4.9
		c-0.131-0.666-0.131-1.4,0-2.2c0-0.531-0.065-0.865-0.199-1c0.269-3.065,0.769-5.766,1.5-8.1c0.73-2.332,2.031-4.766,3.899-7.3
		c0-0.266,0.031-0.4,0.101-0.4c0.065,0,0.1-0.065,0.1-0.2v-0.2l0.4-0.6l0.199,0.2v-0.2c0-0.131,0.031-0.231,0.101-0.3
		c0.065-0.066,0.1-0.166,0.1-0.3l0.4-0.6l0.399-0.4l1.601-1.4c0.266-0.666,0.731-1.2,1.399-1.6c0.666-0.4,1.266-0.931,1.801-1.6
		l0.199-0.2l0.601-0.4v0.2l0.2-0.2v-0.2l0.199-0.2l0.2,0.2l1-0.8l1-0.8c0.132,0,0.231-0.031,0.3-0.1
		c0.066-0.065,0.166-0.1,0.301-0.1v-0.2h0.199h0.801l0.399-0.4c0.666-0.266,1.3-0.531,1.9-0.8c0.6-0.266,1.165-0.4,1.7-0.4l-0.4,0.2
		h-0.4l-0.199,0.4c0.266,0,0.5-0.031,0.699-0.1c0.2-0.065,0.432-0.1,0.7-0.1v-0.4h0.4c0.131-0.131,0.266-0.2,0.399-0.2v0.2
		l-0.199,0.2h0.399c-0.399,0-0.6,0.069-0.6,0.2h0.399h-0.199c0.131,0,0.365-0.065,0.699-0.2c0.332-0.131,0.566-0.2,0.7-0.2h0.2
		c0,0.269-0.2,0.469-0.6,0.6l0.399-0.6l1,0.2c0.531,0,1.466,1.269,2.8,3.8l1.2,0.2l0.2-0.4l0.2-0.2
		c0.266-0.531,0.399-1.065,0.399-1.6h0.2l-0.2,0.2l0.601,0.2v-0.6l-0.601-0.2c0-0.131,0.066-0.266,0.2-0.4l0.2,0.2h0.2l-0.2-0.2
		c0.131,0,0.2-0.066,0.2-0.2l0.399,0.4h-0.199h-0.4c0,0.135,0.065,0.2,0.2,0.2v-0.2c0.266,0,0.531,0.2,0.8,0.6
		c0.531,0.8,0.865,2.134,1,4c0,1.069-0.3,2.369-0.9,3.9C419.744,44.936,419.109,46.901,418.444,49.301z M392.644,52.101l0.399-0.8
		v-0.4l-0.399,0.6V52.101z M395.644,65.101c0,0.4,0.131,0.7,0.399,0.9c0.266,0.2,0.466,0.366,0.601,0.5c0.266,0,0.5-0.034,0.699-0.1
		c0.2-0.068,0.432-0.1,0.7-0.1c0.132,0,0.2,0.065,0.2,0.2l0.2-0.2h0.2l0.6-0.2l0.2-0.2c0.266-0.266,0.665-0.465,1.2-0.6
		c0.531-0.131,0.8-0.466,0.8-1c2.266-1.466,4-3.031,5.2-4.7c1.199-1.666,2.331-3.766,3.399-6.3l0.601-0.6v-0.4l0.199-0.4v-0.2v-0.2
		v-0.2l0.2-0.6l0.2-0.4v-0.4l0.6-1.6v-0.2v-0.2l0.2-0.6v0.6l0.8,0.8c0-0.4,0.066-0.6,0.2-0.6l-0.2-0.6l0.2-0.2l-0.399-0.8v0.2
		l-0.2-0.6l0.2-2.2l0.199-0.8l0.2-0.4c-0.134,0-0.2-0.066-0.2-0.2l0.2-0.2l0.2-1.4l0.2-1.2v-0.6c0-0.4-0.2-1.065-0.601-2
		c-0.399-0.931-0.868-1.4-1.399-1.4c-0.269,0-0.835,0.168-1.7,0.5c-0.869,0.334-1.935,1.134-3.2,2.4c-1.269,1.269-2.7,3.2-4.3,5.8
		c-1.6,2.6-3.334,6.234-5.2,10.9c-0.399,1.469-0.734,3.1-1,4.9C395.775,62.001,395.644,63.635,395.644,65.101z M401.644,38.701v0.2
		l0.399-0.4v-0.2l-0.2,0.4H401.644z M405.444,61.101l-0.4-0.2l0.2,0.6h-0.4v0.2L405.444,61.101z M406.444,60.301l-0.4,0.2l-0.2,0.4
		L406.444,60.301z M407.244,59.501l0.4-0.4l-0.2-0.2L407.244,59.501z M408.444,58.501h0.2v-0.4h0.199L408.444,58.501z
		 M410.444,55.501c0.131-0.266,0.2-0.465,0.2-0.6l-0.2,0.2V55.501z M411.444,53.701l-0.4,0.6h0.2c0-0.131,0.065-0.266,0.2-0.4
		V53.701z M412.043,50.501l-0.2,0.4h0.2V50.501z M412.843,44.701c-0.134,0-0.199,0.069-0.199,0.2h0.199V44.701z M413.444,41.101
		h-0.2c0,0.134,0.065,0.2,0.2,0.2V41.101z M414.043,43.901c0-0.266,0.132-0.666,0.4-1.2l-0.2-0.2h-0.2v0.4l-0.2,0.4l-0.6,0.4
		L414.043,43.901z M413.444,46.901v-0.2l0.2-0.4C413.509,46.436,413.444,46.635,413.444,46.901z M415.043,38.101l-0.399-0.8
		c0.131,0.134,0.199,0.4,0.199,0.8c-0.134,0.134-0.199,0.269-0.199,0.4l-0.601,0.2l0.601,0.4c0,0.134,0.065,0.2,0.199,0.2h0.2
		c-0.134,0.4-0.169,0.7-0.1,0.9c0.065,0.2,0.031,0.434-0.101,0.7h-0.199l0.199-0.2c0-0.131-0.068-0.2-0.199-0.2v-0.4l-0.601-0.8v1.2
		v0.8l0.4-0.2v0.4c0,0.269,0.065,0.469,0.2,0.6C415.175,40.901,415.309,39.57,415.043,38.101z"/>
	<path fill="#FFFFFF" d="M463.443,24.301c0,0.8-1.669,1.4-5,1.8c0,0.269-0.899,0.5-2.7,0.7c-1.8,0.2-4,0.4-6.6,0.6
		c-2.6,0.2-5.369,0.369-8.3,0.5c-2.935,0.135-5.534,0.269-7.8,0.4v0.8c0,1.069-0.2,2.669-0.601,4.8
		c-0.399,2.135-1.269,5.069-2.6,8.8c-1.069,3.2-2.269,6.6-3.601,10.2c-1.334,3.6-2.6,6.9-3.8,9.9s-2.269,5.5-3.2,7.5
		c-0.931,2-1.465,3-1.6,3c-0.4,0-0.6-1.069-0.6-3.2c-0.132,0.266-0.266,0.5-0.4,0.7c-0.131,0.2-0.2,0.365-0.2,0.5v-0.4l-0.2-0.2
		l-0.199-0.8l0.199,0.2v-0.2c-0.131,0-0.266-0.068-0.399-0.2h0.2c0-0.134-0.031-0.2-0.101-0.2c-0.065,0-0.1-0.069-0.1-0.2l0.2-0.8
		h0.199l0.801,0.2l-0.801-0.8c0-0.4,0.069-0.6,0.2-0.6l0.2,0.4l0.6,0.4l0.2-0.2l-0.2-0.4l-0.199-0.4l-0.2-0.2l-0.2-0.2h-0.2l0.4-0.4
		c0,0.131,0.068,0.2,0.2,0.2l0.399,0.2v-0.4l0.2-0.2v-0.2l-0.6-0.2l-0.4,0.2v-0.4l0.2,0.2h0.2c-0.132,0-0.2-0.134-0.2-0.4v-0.2v-0.6
		h0.2l-0.2-0.2c0-0.131,0.034-0.2,0.1-0.2c0.069,0,0.101-0.065,0.101-0.2l0.6,0.2h-0.2c-0.266,0-0.399,0.069-0.399,0.2l0.199,0.2
		l0.2,0.2l0.4,0.2v-0.4l-0.2-0.4h0.4v-0.4l-0.601-0.2l-0.2-0.2c0-0.4,0.169-1,0.5-1.8c0.335-0.8,0.5-1.6,0.5-2.4h0.4v0.4l0.4-0.2
		v0.2v-0.4l-0.2-0.2l-0.2,0.2l-0.2-0.2c0-0.131,0.101-0.365,0.3-0.7c0.2-0.332,0.301-0.631,0.301-0.9l-0.2-0.2
		c0.269-0.266,0.399-0.666,0.399-1.2c0-0.531,0.135-0.731,0.4-0.6l-0.2-0.2c0-0.266,0.266-0.9,0.8-1.9
		c0.531-1,0.801-1.631,0.801-1.9l-0.2-0.2c0.266-0.266,0.399-0.466,0.399-0.6v-0.2c0.266-1.466,0.801-3.3,1.601-5.5
		c0.8-2.2,2-5.231,3.6-9.1v-0.2l0.4-1l-0.2-0.2c0.266-0.666,0.6-1.332,1-2v-0.2l0.2-0.2c0-0.131-0.069-0.2-0.2-0.2h0.2l0.399-0.8
		l0.4-0.6l0.2-0.4l0.399-0.2h-0.199c0.266-0.266,0.431-0.5,0.5-0.7c0.065-0.2,0.165-0.366,0.3-0.5c-1.2,0-2.4,0.035-3.601,0.1
		c-1.199,0.069-2.399,0.1-3.6,0.1c-5.2,0-9.331-0.166-12.4-0.5c-3.065-0.332-5.399-0.731-7-1.2c-1.6-0.465-2.631-0.9-3.1-1.3
		c-0.466-0.4-0.7-0.731-0.7-1c0-0.131,0.135-0.2,0.4-0.2c-0.266-0.131-0.466-0.2-0.601-0.2c-0.131,0-0.266-0.066-0.399-0.2h0.399
		l0.801-0.4h-0.2h0.2l0.199-0.4v0.2c0.135,0,0.2-0.031,0.2-0.1c0-0.065,0.135-0.1,0.4-0.1c0.269,0.134,0.469,0.2,0.6,0.2
		c0.135,0,0.335,0.069,0.601,0.2h0.199h1h0.601c0.269,0,0.399,0.069,0.399,0.2c0.27,0,0.469-0.031,0.601-0.1
		c0.134-0.066,0.334-0.1,0.6-0.1c0.269,0,0.469,0.034,0.601,0.1c0.134,0.068,0.334,0.1,0.6,0.1l-0.2,0.2h0.2
		c0-0.131,0.068-0.2,0.2-0.2c0.134,0,0.2-0.065,0.2-0.2c0.134,0.134,0.334,0.2,0.6,0.2c0.269,0,0.469-0.065,0.6-0.2v0.2
		c0.135-0.131,0.27-0.2,0.4-0.2c0.4,0,0.734,0.134,1,0.4l0.8-0.4l0.8,0.2c0.27-0.131,0.601-0.2,1-0.2h1.2h0.601v0.2
		c0.269-0.131,0.668-0.2,1.199-0.2h1.2h0.601l-0.2,0.2c0.399,0,0.634-0.031,0.7-0.1c0.068-0.066,0.234-0.1,0.5-0.1h0.199
		c0.135,0,0.2-0.031,0.2-0.1c0-0.065,0.069-0.1,0.2-0.1c0.4,0.134,0.8,0.2,1.2,0.2h-0.2h0.2h0.399l-0.199,0.4h0.8l0.2-0.2l-0.2-0.4
		c0.531,0,0.931,0.069,1.2,0.2c0-0.131,0.065-0.2,0.199-0.2c0.132,0,0.266,0.035,0.4,0.1c0.131,0.069,0.266,0.1,0.4,0.1
		c0.131,0,0.199-0.031,0.199-0.1c0-0.065,0.066-0.1,0.2-0.1l-0.2,0.2h0.2c0.132-0.131,0.331-0.2,0.601-0.2h1.199h2.4v0.4h1.2v-0.4
		h-0.4l-0.2,0.2l-0.199-0.2h1.199h0.2h0.601c0.266,0,0.399-0.065,0.399-0.2c0.266,0.269,0.4,0.334,0.4,0.2h0.2h0.8l-0.2,0.2h2
		l0.2-0.2c0.531,0,1.031-0.031,1.5-0.1c0.466-0.065,0.966-0.1,1.5-0.1c0.131,0,0.266,0.068,0.399,0.2h0.2h0.2h0.4h0.199
		c1.332,0,2.2,0,2.601,0c0.399,0,0.766,0.035,1.1,0.1c0.331,0.069,0.731,0.1,1.2,0.1c0.466,0,1.432,0,2.9,0l0.399,0.2h0.4h0.399
		c0-0.131,0.066-0.166,0.2-0.1c0.132,0.068,0.2,0.034,0.2-0.1h0.6h0.4l1.6-0.2v0.2l0.801-0.4v0.2c-0.27,0-0.4,0.069-0.4,0.2h-0.2
		v0.4h1.2v-0.4l0.4-0.4h1.8h0.399h0.4h0.2l0.2,0.2l1.199-0.2v0.2l0.801-0.2v0.2l0.199-0.2h1.601c0.665,0.134,1.431,0.234,2.3,0.3
		c0.865,0.069,1.432,0.169,1.7,0.3l-0.601,0.2v-0.2v0.2c0.4,0,0.666,0.034,0.801,0.1C463.174,24.27,463.309,24.301,463.443,24.301z
		 M403.243,24.101v-0.4v0.2V24.101z M404.043,23.901l0.199,0.2v-0.2H404.043z M418.843,59.701h-0.2l-0.2,0.2l0.2,0.2v-0.2l0.2,0.2
		v-0.2V59.701z M419.443,57.301h-0.399l0.199,0.2l-0.399,0.2h0.6V57.301z M419.843,55.701l0.2-0.4h-0.4h0.2V55.701z M423.843,23.901
		h1l-0.601-0.2C424.109,23.701,423.974,23.77,423.843,23.901z M426.043,23.901c0.131-0.131,0.1-0.2-0.101-0.2s-0.3-0.066-0.3-0.2
		c-0.135,0-0.2,0.069-0.2,0.2l-0.399,0.2H426.043z M430.443,28.901c0.132-0.131,0.231-0.2,0.3-0.2c0.066,0,0.166-0.066,0.301-0.2
		l-0.2-0.2c-0.4,0-0.669,0.068-0.8,0.2L430.443,28.901z M431.243,28.301c-0.134,0-0.199,0.068-0.199,0.2L431.243,28.301z
		 M436.043,23.701v-0.2l-0.4,0.2H436.043z M453.443,23.501c-0.134,0-0.2-0.065-0.2-0.2L453.443,23.501z M455.843,23.501v0.2l0.2-0.2
		H455.843z"/>
	<path fill="#FFFFFF" d="M454.841,42.101c0,1.869-0.234,4.435-0.7,7.7c-0.469,3.269-1.4,6.5-2.8,9.7c-1.4,3.2-3.369,6-5.9,8.4
		c-2.534,2.4-5.8,3.6-9.8,3.6c-1.869,0-3.369-0.369-4.5-1.1c-1.135-0.734-2-1.568-2.6-2.5c-0.601-0.934-1-1.9-1.2-2.9
		s-0.3-1.766-0.3-2.3c0-1.466,0.199-3,0.6-4.6s0.8-3,1.2-4.2l1-1v-0.2l0.2-0.2v-0.2v-0.2v-0.4l0.6-0.8l0.2-0.2l1-2.4h0.2v-0.6v0.2
		c0.266-0.931,1-2,2.199-3.2h0.4h0.4l0.199,0.2l0.2-0.2l-0.2-0.8v0.2v-0.2c0-0.131-0.034-0.2-0.1-0.2c-0.068,0-0.1-0.066-0.1-0.2
		l-0.2-0.4c0.266-0.131,0.399-0.3,0.399-0.5s0.066-0.366,0.2-0.5h0.2l-0.2,0.2c-0.134,0-0.2,0.2-0.2,0.6l0.4,1l0.8-1l0.4-0.8
		l-0.4-0.4c0-0.266,0.065-0.431,0.2-0.5c0.131-0.066,0.2-0.166,0.2-0.3h-0.4l0.4-0.8l0.2,0.2l0.199,0.4v0.2l1-0.8l1.2-0.2l-1-0.4
		h-0.2h-0.399l0.399-0.2v0.2c0,0.134,0.2,0.069,0.601-0.2h-0.4c0-0.266,0.2-0.6,0.601-1c0.399-0.4,0.73-0.8,1-1.2l0.399,0.2
		c0-0.4,0.266-0.731,0.8-1l0.2,0.2l-0.2,0.2l-0.399-0.2l-0.2,0.2c-0.135,0-0.2,0.069-0.2,0.2v0.2l0.2,0.2l-0.2,0.4v0.2l0.2-0.2
		l0.8-0.4h-0.2l0.4-0.8v0.2h0.2h0.399h-0.399v0.6l-0.2,0.6c0.131-0.131,0.365-0.3,0.7-0.5c0.331-0.2,0.565-0.431,0.7-0.7l0.399-0.4
		l0.2-0.2v-0.2v-0.2l-0.6-0.8h0.399h0.2c0.666-0.266,1.1-0.465,1.3-0.6c0.2-0.131,0.632-0.2,1.3-0.2h1h2.2c1.331,0,2.331,0.334,3,1
		c0.666,0.669,1.166,1.435,1.5,2.3c0.331,0.869,0.565,1.734,0.7,2.6C454.772,40.87,454.841,41.57,454.841,42.101z M431.841,51.301
		c0.131-0.266,0.231-0.631,0.3-1.1c0.065-0.466,0.231-0.832,0.5-1.1v-0.2v-1.4l-0.8,1.8h0.2l-0.2,0.4v0.6V51.301z M441.441,63.301
		c1.2-1.2,2.266-2.7,3.2-4.5c0.932-1.8,1.731-3.731,2.4-5.8c0.665-2.065,1.199-4.166,1.6-6.3c0.4-2.131,0.6-4,0.6-5.6
		c0-0.666-0.068-1.331-0.199-2c-0.135-0.666-0.535-1.266-1.2-1.8c0.266,0,0.031,0.3-0.7,0.9c-0.734,0.6-1.734,1.634-3,3.1
		c-1.269,1.469-2.669,3.434-4.2,5.9c-1.534,2.469-2.899,5.5-4.1,9.1c-0.669,1.2-1.169,2.9-1.5,5.1c-0.335,2.2-0.3,3.5,0.1,3.9
		c0.531,0.269,1.065,0.4,1.601,0.4c0.266,0,0.665,0,1.199,0c0.531,0,0.866-0.066,1-0.2h-0.199l-0.2,0.2l-0.8-0.2
		c0.399,0,1.131-0.166,2.199-0.5c1.066-0.331,1.731-0.831,2-1.5l0.2-0.4V63.301z M436.441,44.701c-0.134,0-0.2,0.069-0.2,0.2
		L436.441,44.701z M439.441,38.701v-0.8l-0.6,0.8l0.6,0.2V38.701z M445.441,34.701l-0.2,0.2h-0.199h0.199L445.441,34.701z"/>
	<path fill="#FFFFFF" d="M489.439,28.701c0.531,0,0.8,0.8,0.8,2.4c0,1.069-0.234,2.669-0.699,4.8c-0.469,2.135-1.435,4.869-2.9,8.2
		c-1.2,2.8-2.469,5.834-3.8,9.1c-1.335,3.269-2.601,6.269-3.8,9c-1.2,2.734-2.27,5-3.2,6.8c-0.935,1.8-1.601,2.7-2,2.7
		c-0.135,0-0.2-0.2-0.2-0.6c0-0.269,0.031-0.6,0.1-1c0.066-0.4,0.166-0.935,0.301-1.6c-0.535,0.666-1,1.131-1.4,1.4v-0.2l0.2-0.4
		l-0.2-0.2v-0.6l0.2,0.2v-0.2c0-0.134-0.034-0.2-0.101-0.2c-0.068,0-0.1-0.069-0.1-0.2h0.2c0-0.134-0.034-0.2-0.101-0.2
		c-0.068,0-0.1-0.068-0.1-0.2l0.4-0.6h0.199l0.801,0.2l-0.4-0.6l-0.4-0.4l0.2-0.2v-0.2h0.2v0.4l0.8,0.6v-0.6l-0.2-0.4l-0.199-0.2
		c0-0.131-0.069-0.266-0.2-0.4v-0.4l0.2,0.2l0.199,0.2l0.601-0.2l0.399-0.2l-0.8-0.4l-0.399-0.2l0.199,0.2
		c0-0.131,0.031-0.166,0.101-0.1c0.065,0.069,0.1,0.035,0.1-0.1c-0.134,0-0.2-0.131-0.2-0.4l0.2-0.2l-0.2-0.4h0.2l-0.2-0.2l0.4-0.4
		l0.4,0.2h-0.2l-0.2,0.2h-0.2l0.4,0.2l-0.2,0.2l0.4,0.2l0.399-0.2v-0.2l-0.2-0.4h0.2l0.2-0.2l0.2,0.2v-0.2l-0.2-0.2l-0.6-0.2
		l-0.2-0.2c0-0.266,0.131-0.565,0.399-0.9c0.266-0.332,0.4-0.766,0.4-1.3h0.2c0-0.4,0.1-0.731,0.3-1c0.2-0.266,0.3-0.531,0.3-0.8
		l0.2,0.2l0.2-0.2l-0.2,0.4l0.4-0.2v0.2c0.131,0,0.199-0.065,0.199-0.2l-0.199-0.2l-0.2-0.2l-0.2,0.2l-0.2-0.2
		c0.132-0.131,0.266-0.331,0.4-0.6c0.266-0.531,0.399-0.866,0.399-1v-0.2c0,0.134,0.031,0.034,0.101-0.3
		c0.065-0.332,0.165-0.7,0.3-1.1c0.131-0.4,0.231-0.8,0.3-1.2c0.065-0.4,0.101-0.531,0.101-0.4c-2.27,2.4-4.2,4.4-5.801,6
		c-1.6,1.6-3.3,3.3-5.1,5.1c-1.8,1.8-3.369,3.3-4.7,4.5c-0.935,0-1.5-0.234-1.7-0.7c-0.199-0.469-0.269-0.969-0.199-1.5
		c0.065-0.531,0.199-1.031,0.399-1.5c0.2-0.465,0.231-0.766,0.101-0.9h0.199c-0.269-0.266-0.399-0.531-0.399-0.8v-0.8
		c0-0.131-0.034-0.231-0.101-0.3c-0.068-0.066-0.1-0.166-0.1-0.3l0.2-0.2v-0.2v-0.2c0-1.2,0.2-2.332,0.6-3.4v0.2
		c0.132-0.131,0.2-0.3,0.2-0.5s-0.334-0.366-1-0.5h0.4l0.399,0.2h0.2c0-1.731-0.169-2.432-0.5-2.1c-0.334,0.334-0.435,0.369-0.3,0.1
		c-2,4.269-3.569,7.534-4.7,9.8s-2.031,3.931-2.7,5c-0.665,1.065-1.165,1.831-1.5,2.3c-0.331,0.466-0.631,1.031-0.899,1.7
		c0,0.131-0.066,0.266-0.2,0.4v0.2c-0.531,0-0.8-0.269-0.8-0.8v-0.6c-0.132,0-0.2,0.131-0.2,0.4l-0.2-0.8c0.135,0,0.2,0.031,0.2,0.1
		c0,0.066,0.068,0.1,0.2,0.1c-0.266,0.131-0.301,0.1-0.101-0.1c0.2-0.2,0.169-0.434-0.1-0.7v0.2v-0.6v0.2c0.134,0,0.2-0.269,0.2-0.8
		v0.2c0,0.131,0.134,0.2,0.399,0.2c0.135,0,0.269,0.065,0.4,0.2c0.134-0.269,0.2-0.568,0.2-0.9c0-0.334,0.068-0.7,0.199-1.1l0.2-0.2
		c0-0.134-0.065-0.269-0.2-0.4c0-0.4,0-0.769,0-1.1c0-0.334,0.101-0.9,0.301-1.7c0.199-0.8,0.568-1.931,1.1-3.4
		c0.534-1.466,1.269-3.6,2.2-6.4c-0.132-0.131-0.2-0.266-0.2-0.4c0-0.266,0.2-1,0.6-2.2c0.4-1.2,0.731-2.4,1-3.6h0.2
		c0.132-0.666,0.366-1.331,0.7-2c0.331-0.666,0.565-1.331,0.7-2l0.2,0.2c0.131-0.131,0.199-0.332,0.199-0.6v-0.2
		c0.132-0.131,0.332-0.6,0.601-1.4c0.266-0.8,0.466-1.4,0.6-1.8v0.2c0-0.131,0.065-0.266,0.2-0.4c0-0.131,0.031-0.2,0.1-0.2
		c0.066,0,0.101-0.066,0.101-0.2l0.399,0.6l0.4-1l-0.2-0.4l0.2-0.2h-0.4c0.266-0.266,0.531-0.731,0.801-1.4
		c0.266-0.666,0.665-1,1.199-1c0.132,0,0.466,0.134,1,0.4c0.266-0.131,0.932-0.2,2-0.2c0.801,0.135,1.432,0.635,1.9,1.5
		c0.466,0.869,0.7,1.435,0.7,1.7v0.2c0,0.4,0.031,0.769,0.1,1.1c0.065,0.334,0.101,0.635,0.101,0.9
		c0.131,1.869,0.031,3.934-0.301,6.2c-0.334,2.269-0.769,4.269-1.3,6c0.666-0.666,2-2.331,4-5c1.065-1.331,2.266-2.866,3.601-4.6
		v-0.2l0.399-0.4v0.2c0-0.131,0.031-0.231,0.101-0.3c0.065-0.066,0.1-0.166,0.1-0.3v-0.2l0.6-0.6l0.2-0.4l1-1.4l0.4-0.8v0.2
		c0.131-0.131,0.2-0.266,0.2-0.4l0.399-0.8c-0.134,0.269-0.2,0.469-0.2,0.6v0.2l0.601,1c0,0.134,0.065,0.269,0.2,0.4l0.399-0.2h0.4
		c-0.135,0-0.2,0.069-0.2,0.2c0.666-0.931,1.266-1.766,1.8-2.5c0.531-0.731,0.932-1.5,1.2-2.3l-0.2,0.4l-0.2-0.2
		c0,0.134-0.034,0.169-0.1,0.1c-0.068-0.066-0.1-0.031-0.1,0.1c0,0.269-0.101,0.6-0.301,1c-0.199,0.4-0.368,0.8-0.5,1.2l-0.199-0.2
		c0,0.534-0.27,0.934-0.801,1.2h-0.399l0.399-0.2h0.2c0.266,0,0.4-0.2,0.4-0.6v-0.6l-0.2-0.2c-0.4,0-0.6,0.135-0.6,0.4l-0.2,0.2h0.2
		l-0.4,1l-0.4-0.2l-0.199,0.6l0.199-0.8v-0.4l0.2-0.8l-0.2,0.2v-0.8l1.601-2.2l0.2-0.6l0.399-0.4h-0.2c0-0.131,0.031-0.2,0.101-0.2
		c0.065,0,0.1-0.065,0.1-0.2h0.2l1-1.4l0.6-1.2l0.2,0.2l-0.2-0.2l0.4-0.4l0.6-1.6c0.666-0.8,1.301-1.766,1.9-2.9
		c0.6-1.131,1.031-1.832,1.3-2.1l-0.2,0.8v-0.2v0.2l-0.199,0.6v0.6l-0.2,1.2v-0.2l1.399-1.6l-0.399-0.2h0.2l0.399,0.2l0.2,0.4h-0.2
		l0.2,0.2l-0.6,0.8v0.2v0.4c1.065-1.731,1.665-2.6,1.8-2.6c0.131,0,0.2,0.135,0.2,0.4c0,0.269-0.035,0.534-0.101,0.8
		c-0.068,0.269-0.1,0.534-0.1,0.8c0.399-0.131,0.6-0.465,0.6-1V28.701z M450.839,72.501c-0.531,0-0.8,0.066-0.8,0.2L450.839,72.501z
		 M465.839,60.101c0.399-0.4,0.665-0.731,0.8-1h-0.2h-0.399v0.2l0.199,0.2l-0.399,0.4V60.101z M467.639,57.901h-0.2
		c0-0.131-0.134-0.065-0.399,0.2v0.2l-0.2,0.6v-0.2c0.266-0.266,0.466-0.531,0.6-0.8H467.639z M468.04,57.301
		c0.131-0.131,0.23-0.266,0.3-0.4c0.065-0.131,0.165-0.266,0.3-0.4l-0.2-0.2L468.04,57.301z M469.439,55.501v-0.2h0.2v-0.2
		c0.131,0,0.2-0.065,0.2-0.2c-0.135,0.135-0.2,0.234-0.2,0.3C469.639,55.27,469.571,55.37,469.439,55.501z M472.439,51.701
		c-0.134,0-0.269,0.069-0.399,0.2l-0.2,0.2h0.2L472.439,51.701z M472.839,51.101l0.2-0.4l0.199-0.2c0.132,0,0.2-0.065,0.2-0.2
		c-0.134,0.134-0.234,0.269-0.3,0.4C473.071,50.835,472.97,50.97,472.839,51.101z M475.839,45.501l0.399,0.4l0.4-0.6l-0.4-0.2
		L475.839,45.501z M476.239,61.701c0-0.131,0.066-0.266,0.2-0.4h-0.399L476.239,61.701z M476.439,58.701c0,0.134,0.065,0.2,0.2,0.2
		l0.2,0.2l0.2-0.4H476.439z M477.04,56.701l0.399-0.2v-0.2h0.2l0.2,0.2l0.2,0.2l-0.2,0.2h-0.2L477.04,56.701z M478.839,54.501h-0.4
		l-0.2,0.2v0.2l0.4,0.2h-0.2v0.4h0.2c0-0.266,0.065-0.465,0.2-0.6v-0.2V54.501z M478.239,56.101c0.132-0.131,0.2-0.266,0.2-0.4
		l-0.2-0.2v0.4V56.101z M478.839,54.501c0.131-0.131,0.2-0.266,0.2-0.4L478.839,54.501z M479.439,38.701c0,0.134-0.068,0.2-0.2,0.2
		L479.439,38.701z M479.439,39.301c0-0.131-0.068-0.2-0.2-0.2L479.439,39.301z M481.639,38.901l0.8-0.8l-0.399-0.4l-0.2-0.4
		l-0.601,0.4l-1,0.8l1,0.4v0.2c0.132,0,0.2-0.065,0.2-0.2H481.639z M481.639,35.501c-0.135,0-0.2,0.134-0.2,0.4l0.2-0.2V35.501z
		 M482.839,37.501l0.399-0.4l0.2-1.2h-0.399l0.199-0.2c0.132-0.131,0.2-0.266,0.2-0.4v-0.4l-0.399-1l-0.601,1.8l0.2,0.4l-0.2,0.4
		c0,0.134-0.034,0.2-0.1,0.2c-0.069,0-0.101,0.069-0.101,0.2l0.2,0.2l0.2,0.2L482.839,37.501z M483.639,33.101l0.2,1l0.2,0.4l1-0.2
		c0-0.131,0.031-0.231,0.1-0.3c0.065-0.065,0.1-0.166,0.1-0.3l-0.6-0.6c-0.135,0-0.2,0.069-0.2,0.2v-0.2H483.639z M485.04,32.501
		l0.199,0.2l0.2-0.2h-0.2l-0.199-0.2V32.501z M486.239,31.701c0,0.134,0.066,0.2,0.2,0.2L486.239,31.701z M486.639,30.501
		c0,0.134,0.065,0.2,0.2,0.2L486.639,30.501z M486.639,31.101v0.2V31.101z M487.04,30.301v0.2h-0.2L487.04,30.301z"/>
</g>
<g>
	<path fill="#FFFFFF" d="M380.511,113.634c0.1,0.74,0.205,1.52,0.314,2.34s0.205,1.609,0.285,2.369c0.08,0.761,0.13,1.451,0.15,2.07
		c0.02,0.62,0,1.096-0.061,1.426c-0.06,0.329-0.18,0.469-0.359,0.42c-0.18-0.051-0.44-0.365-0.78-0.945
		c0-1.381-0.065-2.686-0.194-3.915c-0.131-1.23-0.296-2.465-0.496-3.705c-0.46,0-0.91-0.075-1.35-0.226
		c-0.439-0.149-0.84-0.319-1.2-0.51c-0.36-0.189-0.646-0.39-0.854-0.6c-0.211-0.21-0.315-0.385-0.315-0.525
		c0.14,0.041,0.36,0.09,0.66,0.15c0.3,0.06,0.614,0.115,0.944,0.165s0.66,0.09,0.99,0.12c0.33,0.029,0.596,0.045,0.795,0.045
		c-0.119-0.9-0.234-1.711-0.345-2.43c-0.11-0.721-0.22-1.42-0.329-2.101c-0.111-0.68-0.221-1.375-0.33-2.085
		c-0.111-0.71-0.216-1.505-0.315-2.385c-0.62-0.259-1.245-0.5-1.875-0.72c-0.63-0.22-1.235-0.47-1.815-0.75
		c-0.039-0.12-0.07-0.205-0.09-0.255s-0.025-0.095-0.016-0.135c0.012-0.04,0.041-0.085,0.091-0.135s0.135-0.125,0.255-0.225
		c0.16-0.04,0.535,0.025,1.125,0.195c0.59,0.17,1.29,0.41,2.1,0.72c0.811,0.31,1.68,0.68,2.61,1.11c0.931,0.43,1.83,0.87,2.7,1.32
		c0.869,0.45,1.65,0.901,2.34,1.35c0.689,0.45,1.195,0.865,1.516,1.245c0.299,0.24,0.504,0.521,0.614,0.84
		c0.11,0.32,0.14,0.65,0.091,0.99c-0.051,0.341-0.176,0.681-0.375,1.021c-0.201,0.34-0.451,0.659-0.75,0.959
		c-0.301,0.281-0.656,0.576-1.066,0.885c-0.41,0.311-0.854,0.601-1.334,0.871c-0.48,0.27-1,0.5-1.561,0.689
		C381.72,113.479,381.13,113.593,380.511,113.634z M380.121,112.253c0.94,0,1.775-0.1,2.506-0.3c0.729-0.2,1.344-0.479,1.845-0.84
		c0.499-0.36,0.864-0.78,1.095-1.261c0.23-0.479,0.305-0.979,0.225-1.5c-0.04-0.399-0.311-0.805-0.81-1.215
		c-0.5-0.409-1.105-0.81-1.815-1.199c-0.709-0.391-1.459-0.77-2.25-1.14c-0.79-0.37-1.494-0.725-2.115-1.065
		c0.041,0.42,0.096,0.875,0.166,1.365c0.069,0.491,0.154,1.061,0.255,1.709c0.1,0.65,0.225,1.416,0.375,2.295
		C379.746,109.983,379.921,111.034,380.121,112.253z"/>
	<path fill="#FFFFFF" d="M384.771,113.033c0.379,0.021,0.799,0.075,1.26,0.165c0.459,0.09,0.91,0.21,1.35,0.359
		c0.439,0.15,0.845,0.32,1.215,0.511s0.676,0.405,0.916,0.646c0.239,0.22,0.379,0.555,0.42,1.004c0.039,0.45,0.01,0.945-0.09,1.485
		c-0.102,0.54-0.256,1.095-0.466,1.665s-0.445,1.085-0.705,1.545c-0.26,0.461-0.54,0.84-0.84,1.141
		c-0.3,0.299-0.58,0.449-0.84,0.449c-0.44,0-0.81-0.104-1.11-0.314c-0.3-0.211-0.539-0.465-0.72-0.766
		c-0.181-0.3-0.315-0.615-0.405-0.945c-0.09-0.329-0.145-0.614-0.164-0.854c-0.061-1.06-0.07-1.999-0.031-2.819
		c0.041-0.82,0.11-1.5,0.211-2.041c-0.061-0.1-0.121-0.189-0.18-0.27c-0.061-0.08-0.121-0.154-0.181-0.225s-0.13-0.135-0.21-0.195
		c0.08-0.04,0.16-0.1,0.24-0.18C384.601,113.273,384.71,113.153,384.771,113.033z M385.851,120.173
		c0.06,0.08,0.139,0.166,0.24,0.256c0.1,0.09,0.225,0.16,0.375,0.209c0.149,0.051,0.305,0.056,0.465,0.016
		c0.159-0.04,0.33-0.15,0.51-0.33c0.479-0.5,0.84-1.015,1.08-1.545c0.24-0.529,0.395-1.029,0.465-1.5
		c0.07-0.47,0.06-0.885-0.03-1.245s-0.235-0.62-0.435-0.78c-0.16-0.1-0.296-0.185-0.405-0.255c-0.11-0.069-0.251-0.135-0.42-0.194
		c-0.171-0.061-0.386-0.125-0.646-0.195s-0.6-0.165-1.02-0.285c-0.2,0.641-0.34,1.28-0.42,1.92c-0.08,0.641-0.115,1.226-0.105,1.755
		c0.01,0.53,0.05,0.99,0.12,1.38C385.695,119.769,385.771,120.034,385.851,120.173z"/>
	<path fill="#FFFFFF" d="M391.371,112.554c-0.02-0.181,0.074-0.226,0.285-0.136c0.21,0.091,0.424,0.186,0.645,0.285
		c0.08,0.46,0.141,0.825,0.18,1.095c0.041,0.271,0.07,0.525,0.09,0.766c0.021,0.24,0.041,0.5,0.061,0.779
		c0.02,0.281,0.05,0.65,0.09,1.11c0.18-0.46,0.4-0.885,0.66-1.274c0.26-0.391,0.596-0.725,1.006-1.006
		c0.409-0.279,0.899-0.484,1.469-0.615c0.57-0.129,1.256-0.174,2.056-0.135c0,0.16-0.056,0.296-0.165,0.405
		c-0.11,0.11-0.365,0.195-0.766,0.255c-0.58,0.101-1.084,0.295-1.515,0.585s-0.8,0.626-1.11,1.005
		c-0.31,0.381-0.56,0.785-0.75,1.215c-0.189,0.431-0.344,0.826-0.465,1.186c-0.02,0.18-0.045,0.436-0.074,0.766
		c-0.03,0.329-0.051,0.68-0.061,1.049c-0.01,0.371-0.02,0.73-0.029,1.08c-0.011,0.351,0.004,0.626,0.045,0.825
		c0.02,0.101-0.025,0.176-0.135,0.226c-0.111,0.049-0.236,0.084-0.375,0.104c-0.141,0.021-0.271,0.01-0.391-0.03
		s-0.18-0.109-0.18-0.209c0.039-2.061-0.016-3.836-0.166-5.326C391.625,115.068,391.491,113.733,391.371,112.554z"/>
	<path fill="#FFFFFF" d="M397.73,115.283c0.061-0.26,0.2-0.47,0.42-0.63c0.221-0.16,0.445-0.25,0.676-0.27
		c0.229-0.021,0.43,0.035,0.6,0.164c0.17,0.131,0.234,0.346,0.195,0.646c-0.021,0.16-0.11,0.3-0.27,0.42
		c-0.161,0.12-0.346,0.2-0.556,0.239c-0.21,0.041-0.415,0.021-0.615-0.06C397.98,115.714,397.83,115.544,397.73,115.283z
		 M399.621,120.233c0,0.221-0.051,0.415-0.15,0.585s-0.235,0.306-0.404,0.405c-0.171,0.1-0.365,0.154-0.586,0.164
		c-0.22,0.011-0.449-0.045-0.689-0.164c-0.08-0.32-0.056-0.58,0.074-0.78c0.131-0.2,0.305-0.34,0.525-0.42s0.445-0.101,0.676-0.06
		C399.294,120.003,399.48,120.094,399.621,120.233z"/>
	<path fill="#FFFFFF" d="M410.54,115.464c0.06,0.239,0.101,0.369,0.12,0.389c0.02,0.041,0.04,0.07,0.061,0.091
		c0.1-0.021,0.274-0.115,0.524-0.285s0.53-0.36,0.841-0.569c0.309-0.211,0.619-0.416,0.93-0.615c0.31-0.2,0.574-0.35,0.795-0.45
		c0.16,0.04,0.244,0.07,0.255,0.09c0.01,0.021-0.005,0.05-0.046,0.09c-1.119,0.88-2.159,1.88-3.119,3
		c0.18,1.64,0.33,2.96,0.449,3.96c0.121,1,0.215,1.814,0.285,2.445c0.07,0.63,0.11,1.14,0.121,1.529
		c0.01,0.391-0.006,0.795-0.045,1.215c-0.041,0.461-0.116,0.836-0.226,1.125c-0.11,0.291-0.245,0.525-0.405,0.705
		c-0.16,0.181-0.335,0.325-0.525,0.436c-0.189,0.109-0.375,0.205-0.555,0.285c-0.42,0.12-0.8,0.175-1.14,0.165
		c-0.341-0.011-0.646-0.065-0.915-0.165c-0.27-0.101-0.51-0.235-0.721-0.405c-0.209-0.17-0.395-0.354-0.555-0.555
		c-0.18-0.2-0.35-0.466-0.51-0.795c-0.16-0.33-0.275-0.73-0.345-1.2c-0.07-0.471-0.075-1.016-0.015-1.635
		c0.06-0.621,0.229-1.33,0.51-2.131c0.18-0.52,0.379-1.004,0.6-1.455c0.22-0.449,0.46-0.885,0.721-1.305
		c0.26-0.42,0.555-0.834,0.885-1.244s0.694-0.846,1.095-1.306c0-0.159-0.045-0.585-0.136-1.274c-0.09-0.69-0.205-1.52-0.344-2.49
		c-0.141-0.971-0.301-2.02-0.48-3.15c-0.18-1.129-0.36-2.22-0.54-3.27c-0.181-1.051-0.351-2.005-0.511-2.865
		c-0.16-0.86-0.289-1.5-0.389-1.92c0.059-0.02,0.124-0.07,0.194-0.15c0.069-0.08,0.14-0.16,0.21-0.24
		c0.07-0.08,0.145-0.155,0.225-0.225c0.08-0.07,0.17-0.095,0.271-0.075c0.06-0.1,0.145,0.045,0.255,0.435
		c0.109,0.39,0.234,0.95,0.375,1.68c0.14,0.73,0.285,1.59,0.436,2.58c0.149,0.99,0.305,2.03,0.465,3.12s0.314,2.189,0.465,3.3
		S410.4,114.483,410.54,115.464z M406.82,125.903c0.14,0.42,0.289,0.754,0.449,1.005c0.16,0.25,0.33,0.444,0.511,0.585
		c0.181,0.14,0.37,0.244,0.569,0.314c0.2,0.07,0.391,0.136,0.57,0.195c-0.04-0.02,0.02-0.015,0.18,0.016
		c0.16,0.029,0.291,0.024,0.391-0.016c0.22-0.04,0.415-0.125,0.585-0.255s0.325-0.274,0.465-0.435c0.2-0.221,0.305-0.631,0.315-1.23
		c0.01-0.6-0.035-1.325-0.135-2.175c-0.101-0.851-0.236-1.79-0.405-2.819c-0.171-1.03-0.325-2.086-0.466-3.166
		c-0.42,0.541-0.824,1.096-1.215,1.666c-0.39,0.569-0.73,1.174-1.02,1.814c-0.29,0.64-0.51,1.33-0.66,2.07
		C406.804,124.213,406.759,125.022,406.82,125.903z"/>
	<path fill="#FFFFFF" d="M419.78,113.214c-0.021,0.119-0.065,0.369-0.136,0.75c-0.07,0.379-0.145,0.824-0.225,1.334
		s-0.15,1.046-0.21,1.605c-0.06,0.561-0.095,1.09-0.104,1.59c-0.011,0.5,0.02,0.926,0.09,1.275s0.185,0.564,0.345,0.645
		c0.46,0.221,0.931,0.146,1.41-0.225s1.04-0.936,1.681-1.695c0.059,0,0.064,0.08,0.014,0.24c-0.049,0.16-0.13,0.335-0.239,0.525
		c-0.11,0.189-0.22,0.379-0.33,0.569s-0.194,0.315-0.255,0.375c-0.16,0.2-0.391,0.425-0.689,0.675c-0.301,0.25-0.621,0.45-0.961,0.6
		c-0.34,0.15-0.665,0.216-0.975,0.195c-0.311-0.02-0.565-0.199-0.766-0.539c-0.1-0.24-0.16-0.535-0.18-0.886
		c-0.02-0.35-0.02-0.705,0-1.065c0.02-0.359,0.05-0.689,0.09-0.989s0.07-0.521,0.09-0.66c-0.42,0.78-0.899,1.521-1.439,2.22
		c-0.54,0.701-1.07,1.25-1.59,1.65c-0.521,0.4-1,0.615-1.44,0.645c-0.44,0.03-0.78-0.225-1.021-0.765
		c-0.139-0.521-0.139-1.104,0-1.755c0.141-0.65,0.352-1.234,0.631-1.755c0.42-0.72,0.859-1.38,1.32-1.98
		c0.459-0.6,0.949-1.11,1.47-1.53c0.52-0.42,1.065-0.725,1.635-0.914C418.564,113.158,419.16,113.113,419.78,113.214z
		 M414.14,120.833c0.199,0.041,0.52-0.109,0.959-0.449c0.44-0.34,0.9-0.815,1.381-1.426c0.479-0.609,0.914-1.32,1.305-2.13
		s0.645-1.665,0.766-2.565c-0.08,0-0.195,0-0.346,0s-0.325,0.061-0.525,0.181c-0.76,0.5-1.41,1.085-1.949,1.755
		c-0.541,0.67-0.961,1.32-1.26,1.95c-0.301,0.63-0.48,1.195-0.541,1.694C413.87,120.343,413.939,120.673,414.14,120.833z"/>
	<path fill="#FFFFFF" d="M423.529,112.884c0,0.56-0.005,1.119-0.015,1.68c-0.011,0.561-0.021,1.1-0.03,1.619
		c-0.01,0.521-0.02,1.011-0.029,1.471c-0.011,0.46-0.025,0.87-0.045,1.23c0-0.08,0.045-0.275,0.135-0.586
		c0.09-0.31,0.215-0.664,0.375-1.064s0.334-0.825,0.525-1.275c0.189-0.449,0.395-0.85,0.614-1.199s0.444-0.625,0.675-0.826
		c0.23-0.199,0.445-0.26,0.645-0.18c0.44,0.2,0.75,0.49,0.931,0.87s0.31,0.815,0.39,1.306s0.16,1.035,0.24,1.635
		s0.26,1.229,0.54,1.89c0.12,0.3,0.295,0.521,0.524,0.66c0.23,0.14,0.451,0.239,0.66,0.3c0.211,0.061,0.381,0.096,0.511,0.105
		s0.175,0.045,0.135,0.104c-0.5,0.38-0.931,0.511-1.29,0.39c-0.359-0.119-0.665-0.385-0.915-0.795
		c-0.25-0.409-0.455-0.899-0.614-1.47c-0.161-0.569-0.306-1.12-0.436-1.649c-0.131-0.53-0.245-0.98-0.346-1.351
		c-0.1-0.37-0.209-0.555-0.33-0.555c-0.18,0.021-0.375,0.19-0.584,0.51c-0.211,0.32-0.426,0.72-0.646,1.2s-0.431,1.005-0.63,1.574
		c-0.2,0.57-0.385,1.105-0.555,1.605s-0.305,0.93-0.405,1.29s-0.16,0.581-0.181,0.66c-0.299,0-0.484,0.01-0.555,0.03
		c-0.07,0.02-0.185-0.08-0.345-0.301c0.101-1.76,0.136-3.424,0.104-4.994c-0.029-1.57-0.074-2.936-0.135-4.096
		c0-0.18,0.045-0.27,0.135-0.27c0.091,0,0.19,0.04,0.301,0.12c0.109,0.08,0.225,0.16,0.345,0.239
		C423.349,112.843,423.449,112.884,423.529,112.884z"/>
	<path fill="#FFFFFF" d="M436.429,113.214c-0.021,0.119-0.065,0.369-0.135,0.75c-0.07,0.379-0.146,0.824-0.226,1.334
		s-0.149,1.046-0.21,1.605c-0.061,0.561-0.096,1.09-0.105,1.59s0.021,0.926,0.091,1.275c0.069,0.35,0.185,0.564,0.345,0.645
		c0.46,0.221,0.93,0.146,1.41-0.225s1.039-0.936,1.68-1.695c0.061,0,0.064,0.08,0.016,0.24c-0.051,0.16-0.131,0.335-0.24,0.525
		c-0.11,0.189-0.221,0.379-0.33,0.569c-0.11,0.19-0.195,0.315-0.255,0.375c-0.161,0.2-0.39,0.425-0.69,0.675
		c-0.3,0.25-0.62,0.45-0.96,0.6c-0.341,0.15-0.665,0.216-0.975,0.195c-0.311-0.02-0.565-0.199-0.765-0.539
		c-0.102-0.24-0.16-0.535-0.181-0.886c-0.021-0.35-0.021-0.705,0-1.065c0.021-0.359,0.05-0.689,0.091-0.989
		c0.039-0.3,0.069-0.521,0.09-0.66c-0.42,0.78-0.9,1.521-1.44,2.22c-0.54,0.701-1.07,1.25-1.591,1.65c-0.52,0.4-1,0.615-1.439,0.645
		c-0.439,0.03-0.779-0.225-1.02-0.765c-0.141-0.521-0.141-1.104,0-1.755c0.14-0.65,0.35-1.234,0.63-1.755
		c0.42-0.72,0.859-1.38,1.319-1.98c0.461-0.6,0.95-1.11,1.471-1.53c0.52-0.42,1.064-0.725,1.635-0.914
		C435.214,113.158,435.809,113.113,436.429,113.214z M430.789,120.833c0.2,0.041,0.521-0.109,0.961-0.449
		c0.439-0.34,0.899-0.815,1.379-1.426c0.48-0.609,0.916-1.32,1.306-2.13s0.646-1.665,0.765-2.565c-0.08,0-0.195,0-0.345,0
		s-0.325,0.061-0.524,0.181c-0.761,0.5-1.41,1.085-1.951,1.755c-0.539,0.67-0.959,1.32-1.26,1.95c-0.3,0.63-0.479,1.195-0.539,1.694
		C430.519,120.343,430.589,120.673,430.789,120.833z"/>
	<path fill="#FFFFFF" d="M451.578,103.703c0.181,0.4,0.295,0.66,0.346,0.78c0.05,0.12,0.095,0.32,0.135,0.6
		c-0.24-0.2-0.449-0.37-0.63-0.51c-0.18-0.14-0.36-0.265-0.54-0.375c-0.18-0.11-0.38-0.205-0.6-0.285
		c-0.221-0.08-0.48-0.15-0.78-0.21c-0.8-0.1-1.556-0.07-2.265,0.09c-0.711,0.161-1.311,0.416-1.801,0.765
		c-0.49,0.35-0.835,0.781-1.035,1.291c-0.199,0.51-0.199,1.064,0,1.664c0.221,0.66,0.561,1.296,1.021,1.905
		c0.46,0.61,0.985,1.206,1.575,1.785c0.59,0.581,1.22,1.125,1.891,1.636c0.669,0.51,1.309,0.989,1.92,1.439
		c0.609,0.449,1.174,0.855,1.694,1.215s0.92,0.67,1.2,0.93c0.619-0.319,1.199-0.59,1.74-0.81c0.539-0.22,1.1-0.44,1.68-0.66h0.18
		c0.08,0.021,0.09,0.08,0.03,0.181c-0.181,0.16-0.396,0.33-0.646,0.51s-0.505,0.365-0.765,0.555
		c-0.261,0.19-0.515,0.375-0.765,0.555s-0.476,0.341-0.676,0.48c0.58,0.58,0.961,1.105,1.141,1.574
		c0.18,0.471,0.189,0.931,0.029,1.381c-0.16,0.449-0.49,0.91-0.989,1.38c-0.501,0.47-1.15,0.975-1.95,1.515
		c-0.52,0.36-1.08,0.67-1.68,0.93s-1.155,0.416-1.665,0.465c-0.511,0.051-0.921-0.045-1.229-0.284
		c-0.311-0.24-0.416-0.69-0.316-1.351c0.32-1.08,0.91-2.08,1.771-3s1.851-1.85,2.97-2.789c0-0.061-0.194-0.23-0.584-0.511
		c-0.391-0.28-0.891-0.64-1.5-1.079c-0.611-0.44-1.281-0.95-2.011-1.531c-0.729-0.579-1.431-1.189-2.1-1.83
		c-0.671-0.639-1.265-1.309-1.785-2.01c-0.521-0.699-0.87-1.39-1.05-2.069c-0.24-0.86-0.295-1.61-0.165-2.25
		c0.13-0.64,0.34-1.175,0.63-1.605c0.289-0.43,0.609-0.765,0.96-1.005c0.35-0.24,0.635-0.4,0.854-0.48
		c0.461-0.14,0.926-0.26,1.396-0.36s0.944-0.13,1.425-0.09s0.965,0.175,1.455,0.405
		C450.583,102.868,451.078,103.223,451.578,103.703z M449.119,122.693c-0.041,0.14,0.01,0.255,0.15,0.345
		c0.139,0.09,0.369,0.125,0.689,0.105c0.319-0.021,0.725-0.115,1.215-0.285s1.074-0.455,1.755-0.855
		c0.5-0.34,0.886-0.709,1.155-1.109s0.43-0.795,0.48-1.186c0.049-0.39-0.016-0.75-0.195-1.08s-0.48-0.595-0.9-0.795
		c-0.2,0.101-0.535,0.336-1.005,0.705c-0.47,0.371-0.95,0.795-1.44,1.275c-0.49,0.479-0.925,0.98-1.305,1.5
		S449.138,122.293,449.119,122.693z"/>
	<path fill="#FFFFFF" d="M457.488,113.033c0.381,0.021,0.801,0.075,1.261,0.165s0.909,0.21,1.35,0.359
		c0.44,0.15,0.845,0.32,1.216,0.511c0.369,0.19,0.674,0.405,0.914,0.646c0.24,0.22,0.38,0.555,0.42,1.004
		c0.04,0.45,0.01,0.945-0.09,1.485s-0.255,1.095-0.465,1.665s-0.445,1.085-0.705,1.545c-0.26,0.461-0.54,0.84-0.84,1.141
		c-0.3,0.299-0.58,0.449-0.84,0.449c-0.44,0-0.811-0.104-1.11-0.314c-0.3-0.211-0.54-0.465-0.72-0.766
		c-0.18-0.3-0.314-0.615-0.405-0.945c-0.09-0.329-0.145-0.614-0.165-0.854c-0.06-1.06-0.069-1.999-0.029-2.819
		s0.109-1.5,0.209-2.041c-0.06-0.1-0.119-0.189-0.18-0.27c-0.06-0.08-0.119-0.154-0.18-0.225s-0.13-0.135-0.21-0.195
		c0.08-0.04,0.16-0.1,0.239-0.18C457.319,113.273,457.428,113.153,457.488,113.033z M458.568,120.173
		c0.061,0.08,0.141,0.166,0.24,0.256s0.225,0.16,0.375,0.209c0.15,0.051,0.305,0.056,0.465,0.016s0.33-0.15,0.51-0.33
		c0.48-0.5,0.841-1.015,1.08-1.545c0.24-0.529,0.396-1.029,0.466-1.5c0.069-0.47,0.06-0.885-0.03-1.245s-0.235-0.62-0.436-0.78
		c-0.16-0.1-0.295-0.185-0.404-0.255c-0.11-0.069-0.25-0.135-0.42-0.194c-0.17-0.061-0.386-0.125-0.645-0.195
		c-0.261-0.07-0.601-0.165-1.021-0.285c-0.2,0.641-0.341,1.28-0.42,1.92c-0.081,0.641-0.116,1.226-0.105,1.755
		c0.011,0.53,0.05,0.99,0.12,1.38C458.414,119.769,458.488,120.034,458.568,120.173z"/>
	<path fill="#FFFFFF" d="M465.168,120.714c0.14,0.1,0.37-0.07,0.69-0.511c0.319-0.439,0.629-1.005,0.93-1.694
		c0.3-0.69,0.55-1.426,0.75-2.205c0.199-0.78,0.26-1.46,0.18-2.041c0-0.119,0.05-0.194,0.15-0.225
		c0.1-0.029,0.215-0.045,0.345-0.045s0.26,0.01,0.39,0.03c0.131,0.021,0.225,0.04,0.285,0.06c-0.04,0.44-0.096,0.995-0.165,1.665
		c-0.07,0.671-0.115,1.335-0.135,1.995c-0.021,0.66,0.005,1.26,0.075,1.8s0.234,0.891,0.494,1.05
		c0.221,0.141,0.476,0.131,0.766-0.029c0.289-0.16,0.57-0.36,0.84-0.6c0.27-0.24,0.515-0.455,0.735-0.646
		c0.22-0.19,0.36-0.255,0.42-0.195c-0.08,0.341-0.251,0.671-0.511,0.99c-0.26,0.32-0.555,0.59-0.885,0.81
		c-0.33,0.221-0.68,0.375-1.05,0.465s-0.704,0.076-1.005-0.045c-0.12-0.02-0.215-0.135-0.285-0.345s-0.13-0.454-0.18-0.735
		c-0.051-0.279-0.09-0.579-0.12-0.899c-0.03-0.319-0.065-0.61-0.104-0.87c-0.16,0.32-0.341,0.68-0.541,1.08
		c-0.199,0.4-0.4,0.779-0.6,1.141c-0.2,0.359-0.39,0.67-0.57,0.93c-0.18,0.26-0.33,0.409-0.449,0.449
		c-0.4,0.16-0.711,0.195-0.93,0.105c-0.221-0.09-0.371-0.215-0.451-0.375c-0.119-0.061-0.205-0.265-0.254-0.615
		c-0.051-0.35-0.09-0.795-0.121-1.335c-0.029-0.54-0.045-1.149-0.045-1.83c0-0.68,0-1.374,0-2.085c0-0.709-0.01-1.41-0.029-2.1
		c-0.021-0.69-0.051-1.324-0.09-1.905c0.139,0,0.279,0.011,0.42,0.03c0.119,0.02,0.24,0.045,0.359,0.074
		c0.12,0.031,0.221,0.096,0.301,0.195c0.1,0.461,0.114,1.271,0.045,2.43c-0.07,1.16-0.125,2.561-0.166,4.201
		c0,0.06,0.006,0.175,0.016,0.344c0.01,0.171,0.029,0.355,0.061,0.556c0.029,0.2,0.079,0.39,0.149,0.569
		C464.953,120.533,465.048,120.653,465.168,120.714z"/>
	<path fill="#FFFFFF" d="M477.048,112.943c0.22-0.021,0.365,0.045,0.436,0.194c0.069,0.15,0.024,0.426-0.135,0.826
		c-0.381,1.02-0.775,2.01-1.186,2.969c-0.41,0.961-0.855,1.891-1.335,2.791c0.46-0.181,0.89-0.37,1.29-0.57
		c0.399-0.199,0.81-0.4,1.23-0.6c0.42-0.2,0.854-0.4,1.305-0.601c0.449-0.2,0.945-0.39,1.484-0.569c0.32,0,0.535-0.016,0.645-0.045
		c0.11-0.031,0.226,0.064,0.346,0.284c-0.721,0.261-1.391,0.561-2.01,0.9c-0.621,0.34-1.226,0.7-1.815,1.079
		c-0.59,0.381-1.181,0.766-1.771,1.156c-0.59,0.39-1.205,0.744-1.844,1.064c-0.102,0-0.206-0.025-0.315-0.075
		c-0.11-0.05-0.21-0.114-0.3-0.194s-0.16-0.16-0.211-0.24c-0.049-0.08-0.055-0.141-0.014-0.18c0.299-0.521,0.624-1.08,0.975-1.681
		c0.35-0.601,0.68-1.204,0.99-1.815c0.309-0.609,0.59-1.219,0.84-1.83c0.25-0.609,0.424-1.194,0.524-1.754
		c-0.101-0.041-0.306,0.025-0.614,0.194c-0.311,0.171-0.705,0.38-1.186,0.63s-1.025,0.516-1.635,0.795
		c-0.61,0.281-1.275,0.51-1.995,0.69c-0.04,0-0.095,0.005-0.165,0.015c-0.07,0.011-0.125,0-0.165-0.029
		c-0.04-0.03-0.035-0.086,0.015-0.166c0.05-0.079,0.176-0.199,0.375-0.359c0.221-0.12,0.59-0.335,1.11-0.645
		c0.521-0.311,1.09-0.635,1.71-0.976c0.619-0.34,1.24-0.635,1.859-0.885C476.108,113.068,476.628,112.943,477.048,112.943z"/>
	<path fill="#FFFFFF" d="M487.337,113.214c-0.02,0.119-0.064,0.369-0.135,0.75c-0.07,0.379-0.145,0.824-0.225,1.334
		s-0.15,1.046-0.211,1.605c-0.06,0.561-0.095,1.09-0.104,1.59c-0.011,0.5,0.021,0.926,0.091,1.275
		c0.069,0.35,0.184,0.564,0.344,0.645c0.461,0.221,0.931,0.146,1.41-0.225c0.48-0.37,1.04-0.936,1.681-1.695
		c0.06,0,0.064,0.08,0.015,0.24s-0.131,0.335-0.24,0.525c-0.109,0.189-0.22,0.379-0.33,0.569c-0.109,0.19-0.194,0.315-0.254,0.375
		c-0.161,0.2-0.391,0.425-0.69,0.675s-0.62,0.45-0.96,0.6c-0.341,0.15-0.666,0.216-0.975,0.195c-0.311-0.02-0.566-0.199-0.766-0.539
		c-0.101-0.24-0.16-0.535-0.18-0.886c-0.021-0.35-0.021-0.705,0-1.065c0.02-0.359,0.049-0.689,0.09-0.989
		c0.039-0.3,0.07-0.521,0.09-0.66c-0.42,0.78-0.9,1.521-1.439,2.22c-0.541,0.701-1.07,1.25-1.591,1.65s-1,0.615-1.44,0.645
		c-0.439,0.03-0.779-0.225-1.02-0.765c-0.14-0.521-0.14-1.104,0-1.755c0.141-0.65,0.351-1.234,0.631-1.755
		c0.42-0.72,0.859-1.38,1.319-1.98c0.46-0.6,0.95-1.11,1.47-1.53s1.065-0.725,1.635-0.914
		C486.123,113.158,486.718,113.113,487.337,113.214z M481.698,120.833c0.2,0.041,0.521-0.109,0.96-0.449s0.9-0.815,1.38-1.426
		c0.479-0.609,0.915-1.32,1.306-2.13c0.39-0.81,0.645-1.665,0.765-2.565c-0.08,0-0.195,0-0.345,0c-0.15,0-0.326,0.061-0.525,0.181
		c-0.76,0.5-1.41,1.085-1.95,1.755s-0.96,1.32-1.26,1.95s-0.479,1.195-0.54,1.694C481.427,120.343,481.498,120.673,481.698,120.833z
		"/>
</g>
<g>
</g>
<g>
</g>
<g>
</g>
<g>
</g>
<g>
</g>
<g>
</g>
</svg>
