<?xml version="1.0" encoding="utf-8"?>
<!-- Generator: Adobe Illustrator 16.0.0, SVG Export Plug-In . SVG Version: 6.00 Build 0)  -->
<!DOCTYPE svg PUBLIC "-//W3C//DTD SVG 1.1//EN" "http://www.w3.org/Graphics/SVG/1.1/DTD/svg11.dtd">
<svg version="1.1" id="Layer_1" xmlns="http://www.w3.org/2000/svg" xmlns:xlink="http://www.w3.org/1999/xlink" x="0px" y="0px"
	 width="113.333px" height="60px" viewBox="0 0 113.333 60" enable-background="new 0 0 113.333 60" xml:space="preserve">
<g>
	<path fill="#CC2036" d="M56.479,8.121L67.458,19.1c0.698,0.698,0.698,1.831,0,2.529c-0.698,0.697-1.831,0.697-2.528,0l-9.715-9.715
		L45.5,21.628c-0.699,0.698-1.831,0.698-2.529,0c-0.698-0.698-0.698-1.83,0-2.528L53.951,8.12c0.349-0.349,0.806-0.523,1.264-0.523
		C55.673,7.597,56.13,7.771,56.479,8.121z"/>
</g>
<g>
	<path fill="#CC2036" d="M13.556,46.09c-0.315,0.098-0.513,0.138-0.592,0.118c-0.079-0.021-0.188-0.168-0.326-0.444
		c-0.414-1.104-0.898-2.383-1.45-3.833s-1.105-2.91-1.657-4.38c-0.553-1.47-1.08-2.881-1.583-4.232
		C7.445,31.967,7.035,30.828,6.72,29.9c0-0.119,0.064-0.192,0.192-0.223c0.128-0.029,0.271-0.039,0.429-0.029
		c0.158,0.011,0.301,0.04,0.429,0.089c0.129,0.05,0.192,0.104,0.192,0.163c0.454,1.362,0.863,2.581,1.229,3.656
		c0.365,1.075,0.735,2.131,1.11,3.166c0.375,1.036,0.789,2.106,1.243,3.212c0.454,1.104,0.996,2.367,1.627,3.788
		c0.611-2.328,1.129-4.598,1.554-6.808c0.424-2.209,0.759-4.192,1.006-5.949c0.247-1.756,0.429-3.191,0.548-4.307
		c0.118-1.114,0.197-1.751,0.237-1.909c0-0.099,0.059-0.167,0.177-0.207c0.119-0.039,0.247-0.059,0.385-0.059
		s0.262,0.024,0.37,0.073c0.108,0.05,0.163,0.114,0.163,0.192c-0.059,0.435-0.173,1.233-0.34,2.397
		c-0.167,1.165-0.37,2.506-0.606,4.026c-0.237,1.52-0.499,3.112-0.784,4.779c-0.287,1.668-0.568,3.222-0.844,4.662
		c-0.276,1.44-0.547,2.663-0.814,3.67C13.956,45.29,13.734,45.893,13.556,46.09z"/>
	<path fill="#CC2036" d="M18.025,37.063c0.375,0.02,0.789,0.074,1.243,0.163c0.454,0.089,0.897,0.207,1.332,0.354
		c0.434,0.148,0.833,0.316,1.199,0.504s0.666,0.399,0.903,0.636c0.237,0.218,0.375,0.548,0.415,0.991
		c0.039,0.444,0.009,0.933-0.089,1.466c-0.099,0.532-0.251,1.08-0.459,1.643c-0.207,0.562-0.439,1.07-0.695,1.523
		c-0.257,0.454-0.533,0.829-0.829,1.125s-0.573,0.444-0.829,0.444c-0.434,0-0.799-0.104-1.095-0.312
		c-0.296-0.207-0.533-0.458-0.71-0.754s-0.311-0.607-0.399-0.933s-0.143-0.606-0.163-0.844c-0.059-1.045-0.069-1.973-0.029-2.782
		c0.04-0.809,0.108-1.479,0.207-2.012c-0.059-0.099-0.118-0.188-0.178-0.267c-0.059-0.079-0.118-0.152-0.177-0.223
		c-0.06-0.068-0.128-0.133-0.208-0.192c0.079-0.039,0.158-0.098,0.237-0.177C17.857,37.299,17.966,37.181,18.025,37.063z
		 M19.09,44.106c0.059,0.079,0.138,0.163,0.237,0.252c0.099,0.089,0.222,0.158,0.37,0.207s0.3,0.055,0.458,0.015
		c0.158-0.039,0.326-0.148,0.503-0.325c0.473-0.493,0.829-1.002,1.065-1.524s0.389-1.017,0.458-1.48
		c0.069-0.463,0.06-0.873-0.029-1.228c-0.089-0.355-0.232-0.611-0.429-0.77c-0.158-0.099-0.292-0.183-0.4-0.252
		s-0.247-0.133-0.414-0.192c-0.168-0.06-0.38-0.123-0.636-0.192c-0.257-0.068-0.592-0.163-1.006-0.281
		c-0.198,0.632-0.336,1.263-0.415,1.895c-0.079,0.632-0.114,1.209-0.104,1.731c0.01,0.522,0.049,0.977,0.119,1.361
		C18.938,43.707,19.011,43.969,19.09,44.106z"/>
	<path fill="#CC2036" d="M26.164,39.814c0,0.06,0.03,0.336,0.089,0.829s0.128,1.095,0.207,1.806c0.079,0.71,0.173,1.475,0.281,2.294
		c0.108,0.818,0.208,1.598,0.296,2.338c0.089,0.739,0.173,1.391,0.252,1.953c0.079,0.563,0.128,0.922,0.148,1.08
		c-0.119-0.02-0.217-0.039-0.296-0.059c-0.079-0.021-0.158-0.069-0.237-0.148c-0.079-0.079-0.173-0.192-0.281-0.34
		c-0.109-0.148-0.262-0.36-0.459-0.637c-0.256-1.815-0.458-3.398-0.606-4.75s-0.271-2.452-0.37-3.3
		c-0.355,0.473-0.611,0.789-0.77,0.946c-0.158,0.158-0.256,0.237-0.296,0.237c-0.059,0-0.069-0.089-0.03-0.267
		c0.02-0.099,0.04-0.197,0.06-0.296s0.04-0.188,0.059-0.267c0.02-0.078,0.049-0.147,0.089-0.207c0.138-0.197,0.262-0.395,0.37-0.592
		c0.108-0.197,0.192-0.375,0.252-0.533c0.079-0.196,0.138-0.385,0.177-0.562c-0.02-0.218-0.035-0.404-0.044-0.563
		c-0.01-0.158-0.015-0.32-0.015-0.488s-0.005-0.341-0.015-0.519c-0.01-0.178-0.015-0.404-0.015-0.681c0-0.256,0-0.646,0-1.169
		c0-0.522,0-1.104,0-1.746c0-0.641,0.01-1.317,0.03-2.027c0.02-0.71,0.044-1.386,0.074-2.028c0.029-0.641,0.069-1.224,0.118-1.746
		c0.049-0.522,0.104-0.922,0.163-1.199c0.138-0.571,0.35-1.011,0.637-1.316c0.286-0.306,0.586-0.483,0.902-0.533
		c0.315-0.049,0.626,0.03,0.933,0.237c0.306,0.207,0.537,0.528,0.695,0.962c0.178,0.434,0.267,0.996,0.267,1.687
		c0,0.691-0.06,1.446-0.178,2.265c-0.119,0.819-0.281,1.672-0.488,2.56c-0.208,0.888-0.429,1.752-0.666,2.59
		c-0.237,0.839-0.474,1.623-0.71,2.353C26.548,38.71,26.341,39.322,26.164,39.814z M25.927,38.128
		c0.493-1.44,0.898-2.856,1.214-4.247c0.315-1.391,0.547-2.639,0.695-3.745c0.148-1.104,0.197-1.998,0.148-2.679
		c-0.049-0.681-0.192-1.03-0.429-1.05c-0.375-0.139-0.671-0.01-0.888,0.385c-0.217,0.395-0.39,0.946-0.518,1.657
		c-0.128,0.71-0.212,1.523-0.251,2.441c-0.04,0.918-0.055,1.831-0.044,2.738c0.01,0.908,0.024,1.767,0.044,2.575
		C25.917,37.014,25.927,37.654,25.927,38.128z"/>
	<path fill="#CC2036" d="M32.764,37.122c0.848-0.06,1.682-0.123,2.5-0.192s1.672-0.144,2.56-0.223
		c0.197,0.021,0.326,0.124,0.385,0.311c0.06,0.188-0.02,0.302-0.236,0.341c-0.73,0.079-1.569,0.188-2.516,0.325
		c-0.947,0.139-1.845,0.316-2.693,0.533c0.039,0.611,0.059,1.238,0.059,1.879c0,0.642,0.015,1.273,0.044,1.895
		c0.029,0.621,0.089,1.224,0.177,1.806c0.089,0.582,0.232,1.12,0.429,1.612c0.276,0.336,0.552,0.533,0.829,0.593
		c0.276,0.059,0.538,0.044,0.785-0.045c0.247-0.089,0.474-0.227,0.681-0.414s0.389-0.37,0.547-0.548c0.138-0.138,0.251-0.138,0.34,0
		c0.089,0.139,0.005,0.346-0.251,0.622c-0.118,0.138-0.266,0.286-0.444,0.443c-0.178,0.158-0.39,0.291-0.636,0.399
		c-0.247,0.108-0.523,0.178-0.829,0.208c-0.306,0.029-0.636-0.006-0.991-0.104c-0.454-0.118-0.79-0.483-1.006-1.095
		c-0.217-0.611-0.38-1.327-0.488-2.146c-0.109-0.818-0.183-1.672-0.222-2.561c-0.04-0.888-0.089-1.687-0.148-2.397
		c-0.868,0.079-1.505,0.148-1.909,0.208c-0.405,0.059-0.696,0.099-0.873,0.118c-0.178,0.02-0.296,0.01-0.355-0.029
		c-0.059-0.04-0.168-0.129-0.326-0.267c0.02-0.099,0.025-0.192,0.015-0.281c-0.01-0.089-0.01-0.163,0-0.222
		c0.01-0.06,0.049-0.119,0.118-0.178c0.069-0.06,0.202-0.108,0.399-0.148c0.296-0.078,0.726-0.123,1.288-0.133
		c0.563-0.01,1.11-0.055,1.643-0.134c-0.02-0.631-0.04-1.124-0.059-1.479c-0.02-0.355-0.04-0.666-0.059-0.933
		c-0.02-0.266-0.035-0.527-0.044-0.784c-0.01-0.256-0.015-0.592-0.015-1.006c0-0.099,0.054-0.173,0.163-0.222
		c0.108-0.05,0.231-0.079,0.37-0.089c0.138-0.01,0.266,0.01,0.385,0.059c0.118,0.05,0.197,0.124,0.236,0.223
		c0.06,0.177,0.099,0.438,0.119,0.784c0.02,0.345,0.034,0.71,0.044,1.095c0.01,0.385,0.015,0.774,0.015,1.169
		C32.793,36.511,32.783,36.846,32.764,37.122z"/>
	<path fill="#CC2036" d="M42.648,37.24c-0.02,0.118-0.064,0.365-0.133,0.739c-0.069,0.376-0.144,0.814-0.222,1.317
		c-0.079,0.503-0.148,1.031-0.207,1.584c-0.059,0.552-0.094,1.075-0.104,1.568c-0.01,0.493,0.02,0.913,0.089,1.258
		c0.069,0.346,0.182,0.558,0.34,0.636c0.454,0.218,0.917,0.144,1.391-0.222c0.474-0.364,1.025-0.922,1.657-1.672
		c0.06,0,0.063,0.079,0.015,0.236c-0.05,0.158-0.128,0.331-0.236,0.519c-0.109,0.188-0.218,0.375-0.326,0.562
		c-0.108,0.188-0.192,0.312-0.251,0.37c-0.158,0.197-0.385,0.42-0.681,0.666c-0.296,0.247-0.612,0.444-0.947,0.592
		c-0.336,0.148-0.656,0.213-0.962,0.192c-0.306-0.02-0.558-0.196-0.755-0.532c-0.099-0.237-0.158-0.528-0.178-0.873
		c-0.02-0.346-0.02-0.695,0-1.051s0.049-0.681,0.089-0.977s0.069-0.513,0.089-0.651c-0.415,0.77-0.888,1.5-1.42,2.19
		s-1.056,1.233-1.569,1.628c-0.513,0.395-0.987,0.606-1.42,0.636c-0.435,0.029-0.77-0.222-1.006-0.755
		c-0.138-0.513-0.138-1.09,0-1.731c0.138-0.641,0.345-1.218,0.622-1.731c0.414-0.71,0.848-1.361,1.302-1.953
		c0.454-0.592,0.937-1.095,1.45-1.509c0.513-0.415,1.051-0.716,1.613-0.903C41.45,37.186,42.037,37.142,42.648,37.24z
		 M37.084,44.758c0.197,0.039,0.513-0.108,0.947-0.444c0.434-0.335,0.888-0.804,1.361-1.405c0.474-0.603,0.903-1.303,1.288-2.102
		c0.385-0.8,0.636-1.643,0.755-2.53c-0.079,0-0.192,0-0.341,0c-0.148,0-0.321,0.059-0.518,0.177
		c-0.75,0.494-1.391,1.071-1.924,1.731c-0.533,0.661-0.947,1.303-1.243,1.924c-0.296,0.622-0.474,1.18-0.533,1.673
		S36.887,44.6,37.084,44.758z"/>
	<path fill="#CC2036" d="M45.282,36.589c-0.02-0.178,0.074-0.222,0.281-0.133s0.419,0.183,0.637,0.281
		c0.078,0.454,0.138,0.813,0.178,1.08c0.039,0.267,0.068,0.518,0.089,0.755c0.019,0.236,0.039,0.493,0.059,0.77
		s0.049,0.641,0.089,1.095c0.178-0.454,0.395-0.873,0.651-1.258c0.256-0.385,0.587-0.715,0.991-0.991s0.888-0.479,1.45-0.607
		c0.563-0.128,1.238-0.172,2.027-0.133c0,0.158-0.055,0.291-0.163,0.399s-0.359,0.192-0.754,0.252
		c-0.573,0.099-1.071,0.291-1.495,0.577c-0.425,0.286-0.789,0.616-1.095,0.991c-0.307,0.375-0.553,0.774-0.74,1.198
		c-0.188,0.425-0.34,0.814-0.459,1.17c-0.02,0.177-0.044,0.429-0.073,0.754c-0.03,0.326-0.05,0.671-0.06,1.036
		s-0.02,0.721-0.029,1.065c-0.011,0.346,0.004,0.617,0.044,0.814c0.02,0.099-0.024,0.173-0.133,0.222
		c-0.109,0.049-0.232,0.084-0.37,0.104c-0.139,0.02-0.267,0.01-0.385-0.029c-0.118-0.04-0.178-0.108-0.178-0.208
		c0.039-2.031-0.015-3.783-0.163-5.253C45.534,39.07,45.401,37.753,45.282,36.589z"/>
	<path fill="#CC2036" d="M61.738,37.24c-0.02,0.118-0.063,0.365-0.133,0.739c-0.069,0.376-0.144,0.814-0.222,1.317
		c-0.079,0.503-0.148,1.031-0.207,1.584c-0.06,0.552-0.095,1.075-0.104,1.568s0.02,0.913,0.089,1.258
		c0.069,0.346,0.183,0.558,0.341,0.636c0.453,0.218,0.917,0.144,1.391-0.222c0.474-0.364,1.026-0.922,1.657-1.672
		c0.06,0,0.064,0.079,0.016,0.236c-0.05,0.158-0.129,0.331-0.237,0.519s-0.217,0.375-0.325,0.562
		c-0.108,0.188-0.192,0.312-0.252,0.37c-0.158,0.197-0.385,0.42-0.681,0.666c-0.296,0.247-0.611,0.444-0.947,0.592
		c-0.335,0.148-0.656,0.213-0.962,0.192c-0.306-0.02-0.558-0.196-0.754-0.532c-0.1-0.237-0.158-0.528-0.178-0.873
		c-0.021-0.346-0.021-0.695,0-1.051c0.02-0.355,0.049-0.681,0.089-0.977c0.039-0.296,0.068-0.513,0.089-0.651
		c-0.415,0.77-0.889,1.5-1.421,2.19c-0.533,0.69-1.056,1.233-1.568,1.628c-0.514,0.395-0.988,0.606-1.421,0.636
		c-0.435,0.029-0.77-0.222-1.007-0.755c-0.138-0.513-0.138-1.09,0-1.731c0.139-0.641,0.346-1.218,0.622-1.731
		c0.414-0.71,0.848-1.361,1.302-1.953c0.455-0.592,0.938-1.095,1.451-1.509c0.514-0.415,1.051-0.716,1.613-0.903
		S61.126,37.142,61.738,37.24z M56.174,44.758c0.196,0.039,0.513-0.108,0.946-0.444c0.435-0.335,0.889-0.804,1.363-1.405
		c0.474-0.603,0.902-1.303,1.287-2.102c0.385-0.8,0.637-1.643,0.755-2.53c-0.079,0-0.192,0-0.341,0c-0.147,0-0.32,0.059-0.518,0.177
		c-0.75,0.494-1.392,1.071-1.924,1.731c-0.534,0.661-0.948,1.303-1.244,1.924c-0.296,0.622-0.474,1.18-0.532,1.673
		C55.907,44.274,55.976,44.6,56.174,44.758z"/>
	<path fill="#CC2036" d="M64.195,37.063c0.374,0.02,0.788,0.074,1.242,0.163s0.898,0.207,1.332,0.354
		c0.434,0.148,0.834,0.316,1.199,0.504c0.364,0.188,0.666,0.399,0.902,0.636c0.236,0.218,0.375,0.548,0.414,0.991
		c0.04,0.444,0.01,0.933-0.089,1.466c-0.099,0.532-0.251,1.08-0.458,1.643c-0.208,0.562-0.439,1.07-0.696,1.523
		c-0.256,0.454-0.532,0.829-0.828,1.125s-0.572,0.444-0.829,0.444c-0.434,0-0.799-0.104-1.095-0.312
		c-0.296-0.207-0.533-0.458-0.71-0.754c-0.178-0.296-0.312-0.607-0.4-0.933s-0.143-0.606-0.162-0.844
		c-0.06-1.045-0.069-1.973-0.03-2.782c0.04-0.809,0.108-1.479,0.208-2.012c-0.06-0.099-0.119-0.188-0.178-0.267
		c-0.06-0.079-0.119-0.152-0.178-0.223c-0.06-0.068-0.128-0.133-0.207-0.192c0.079-0.039,0.158-0.098,0.236-0.177
		C64.027,37.299,64.135,37.181,64.195,37.063z M65.26,44.106c0.059,0.079,0.138,0.163,0.236,0.252s0.222,0.158,0.37,0.207
		c0.147,0.049,0.301,0.055,0.459,0.015c0.157-0.039,0.325-0.148,0.503-0.325c0.474-0.493,0.828-1.002,1.065-1.524
		c0.236-0.522,0.39-1.017,0.459-1.48c0.068-0.463,0.059-0.873-0.03-1.228c-0.089-0.355-0.231-0.611-0.429-0.77
		c-0.158-0.099-0.291-0.183-0.399-0.252c-0.109-0.069-0.247-0.133-0.415-0.192c-0.167-0.06-0.38-0.123-0.636-0.192
		c-0.257-0.068-0.592-0.163-1.007-0.281c-0.197,0.632-0.335,1.263-0.414,1.895s-0.113,1.209-0.104,1.731s0.049,0.977,0.118,1.361
		S65.181,43.969,65.26,44.106z"/>
	<path fill="#CC2036" d="M79.347,37.122c0.848-0.06,1.682-0.123,2.501-0.192c0.818-0.069,1.672-0.144,2.56-0.223
		c0.197,0.021,0.326,0.124,0.385,0.311c0.06,0.188-0.02,0.302-0.236,0.341c-0.73,0.079-1.568,0.188-2.516,0.325
		c-0.947,0.139-1.846,0.316-2.693,0.533c0.039,0.611,0.059,1.238,0.059,1.879c0,0.642,0.016,1.273,0.045,1.895
		s0.089,1.224,0.178,1.806s0.231,1.12,0.429,1.612c0.276,0.336,0.553,0.533,0.829,0.593c0.275,0.059,0.537,0.044,0.784-0.045
		c0.246-0.089,0.474-0.227,0.681-0.414s0.39-0.37,0.548-0.548c0.138-0.138,0.251-0.138,0.34,0c0.089,0.139,0.005,0.346-0.251,0.622
		c-0.119,0.138-0.267,0.286-0.444,0.443c-0.178,0.158-0.39,0.291-0.637,0.399s-0.522,0.178-0.828,0.208
		c-0.307,0.029-0.637-0.006-0.992-0.104c-0.454-0.118-0.789-0.483-1.006-1.095c-0.218-0.611-0.38-1.327-0.488-2.146
		s-0.183-1.672-0.222-2.561c-0.04-0.888-0.089-1.687-0.148-2.397c-0.868,0.079-1.505,0.148-1.909,0.208
		c-0.404,0.059-0.695,0.099-0.873,0.118s-0.296,0.01-0.354-0.029c-0.06-0.04-0.168-0.129-0.326-0.267
		c0.02-0.099,0.024-0.192,0.015-0.281s-0.01-0.163,0-0.222c0.01-0.06,0.05-0.119,0.119-0.178c0.068-0.06,0.202-0.108,0.399-0.148
		c0.296-0.078,0.725-0.123,1.287-0.133s1.11-0.055,1.643-0.134c-0.02-0.631-0.04-1.124-0.059-1.479
		c-0.021-0.355-0.04-0.666-0.06-0.933c-0.02-0.266-0.035-0.527-0.045-0.784c-0.01-0.256-0.015-0.592-0.015-1.006
		c0-0.099,0.055-0.173,0.163-0.222c0.108-0.05,0.231-0.079,0.37-0.089c0.138-0.01,0.267,0.01,0.385,0.059
		c0.118,0.05,0.197,0.124,0.236,0.223c0.06,0.177,0.099,0.438,0.118,0.784c0.02,0.345,0.035,0.71,0.045,1.095
		s0.015,0.774,0.015,1.169C79.376,36.511,79.367,36.846,79.347,37.122z"/>
	<path fill="#CC2036" d="M84.615,37.063c0.374,0.02,0.788,0.074,1.242,0.163s0.898,0.207,1.332,0.354
		c0.434,0.148,0.834,0.316,1.199,0.504c0.364,0.188,0.666,0.399,0.902,0.636c0.236,0.218,0.375,0.548,0.414,0.991
		c0.04,0.444,0.01,0.933-0.089,1.466c-0.099,0.532-0.251,1.08-0.458,1.643c-0.208,0.562-0.439,1.07-0.696,1.523
		c-0.256,0.454-0.532,0.829-0.828,1.125s-0.572,0.444-0.829,0.444c-0.434,0-0.799-0.104-1.095-0.312
		c-0.296-0.207-0.533-0.458-0.71-0.754c-0.178-0.296-0.312-0.607-0.4-0.933s-0.143-0.606-0.162-0.844
		c-0.06-1.045-0.069-1.973-0.03-2.782c0.04-0.809,0.108-1.479,0.208-2.012c-0.06-0.099-0.119-0.188-0.178-0.267
		c-0.06-0.079-0.119-0.152-0.178-0.223c-0.06-0.068-0.128-0.133-0.207-0.192c0.079-0.039,0.158-0.098,0.236-0.177
		C84.447,37.299,84.555,37.181,84.615,37.063z M85.68,44.106c0.059,0.079,0.138,0.163,0.236,0.252s0.222,0.158,0.37,0.207
		c0.147,0.049,0.301,0.055,0.459,0.015c0.157-0.039,0.325-0.148,0.503-0.325c0.474-0.493,0.828-1.002,1.065-1.524
		c0.236-0.522,0.39-1.017,0.459-1.48c0.068-0.463,0.059-0.873-0.03-1.228c-0.089-0.355-0.231-0.611-0.429-0.77
		c-0.158-0.099-0.291-0.183-0.399-0.252c-0.109-0.069-0.247-0.133-0.415-0.192c-0.167-0.06-0.38-0.123-0.636-0.192
		c-0.257-0.068-0.592-0.163-1.007-0.281c-0.197,0.632-0.335,1.263-0.414,1.895s-0.113,1.209-0.104,1.731s0.049,0.977,0.118,1.361
		S85.601,43.969,85.68,44.106z"/>
	<path fill="#CC2036" d="M98.169,37.832c0.078,0.04,0.172,0.089,0.281,0.147c0.108,0.06,0.212,0.148,0.311,0.267
		s0.183,0.271,0.252,0.459c0.068,0.188,0.104,0.429,0.104,0.726c-0.04,1.025-0.296,1.953-0.77,2.781
		c-0.474,0.829-1.041,1.529-1.702,2.102s-1.347,0.997-2.057,1.272c-0.711,0.276-1.313,0.375-1.806,0.296
		c0,1.914,0.015,3.512,0.044,4.795c0.03,1.282,0.05,2.333,0.06,3.152c0.01,0.818,0.01,1.436,0,1.85s-0.04,0.7-0.089,0.858
		c-0.05,0.157-0.138,0.231-0.267,0.222c-0.128-0.01-0.291-0.034-0.488-0.074c-0.039,0.06-0.069,0.01-0.089-0.147
		c-0.02-0.139-0.034-0.385-0.044-0.74c-0.011-0.355-0.015-0.907-0.015-1.657c0-0.06-0.005-0.399-0.015-1.021
		c-0.011-0.621-0.021-1.4-0.03-2.338s-0.029-1.968-0.059-3.093c-0.03-1.125-0.064-2.22-0.104-3.285
		c-0.04-1.065-0.085-2.052-0.134-2.96c-0.049-0.907-0.113-1.607-0.192-2.101c0-0.04-0.01-0.139-0.029-0.296
		c-0.02-0.158-0.045-0.355-0.074-0.593c-0.029-0.236-0.068-0.492-0.118-0.77c-0.049-0.275-0.104-0.542-0.163-0.799
		c0.336-0.02,0.563,0.015,0.681,0.104c0.119,0.089,0.237,0.192,0.355,0.311c0.118,0.375,0.231,0.978,0.341,1.806
		c0.107,0.829,0.231,1.953,0.369,3.374c0.04-0.197,0.144-0.474,0.312-0.828c0.167-0.355,0.389-0.735,0.665-1.14
		s0.593-0.804,0.947-1.199c0.355-0.395,0.73-0.729,1.125-1.006s0.794-0.469,1.198-0.577S97.774,37.654,98.169,37.832z M94.44,44.491
		c0.907-0.375,1.623-0.858,2.146-1.45s0.903-1.179,1.14-1.761c0.237-0.582,0.355-1.1,0.355-1.554s-0.089-0.74-0.267-0.858
		c-0.395-0.257-0.77-0.286-1.125-0.089c-0.354,0.197-0.7,0.434-1.035,0.71c-0.178,0.158-0.425,0.439-0.74,0.844
		s-0.632,0.854-0.947,1.347s-0.587,0.991-0.813,1.494c-0.228,0.504-0.341,0.942-0.341,1.317c0.079,0.099,0.197,0.168,0.355,0.207
		c0.118,0.04,0.281,0.05,0.488,0.029C93.863,44.709,94.125,44.63,94.44,44.491z"/>
	<path fill="#CC2036" d="M100.804,37.063c0.374,0.02,0.788,0.074,1.242,0.163s0.898,0.207,1.332,0.354
		c0.434,0.148,0.834,0.316,1.199,0.504c0.364,0.188,0.666,0.399,0.902,0.636c0.236,0.218,0.375,0.548,0.414,0.991
		c0.04,0.444,0.01,0.933-0.089,1.466c-0.099,0.532-0.251,1.08-0.458,1.643c-0.208,0.562-0.439,1.07-0.696,1.523
		c-0.256,0.454-0.532,0.829-0.828,1.125s-0.572,0.444-0.829,0.444c-0.434,0-0.799-0.104-1.095-0.312
		c-0.296-0.207-0.533-0.458-0.71-0.754c-0.178-0.296-0.312-0.607-0.4-0.933s-0.143-0.606-0.162-0.844
		c-0.06-1.045-0.069-1.973-0.03-2.782c0.04-0.809,0.108-1.479,0.208-2.012c-0.06-0.099-0.119-0.188-0.178-0.267
		c-0.06-0.079-0.119-0.152-0.178-0.223c-0.06-0.068-0.128-0.133-0.207-0.192c0.079-0.039,0.158-0.098,0.236-0.177
		C100.636,37.299,100.745,37.181,100.804,37.063z M101.87,44.106c0.059,0.079,0.138,0.163,0.236,0.252s0.222,0.158,0.37,0.207
		c0.147,0.049,0.301,0.055,0.459,0.015c0.157-0.039,0.325-0.148,0.503-0.325c0.474-0.493,0.828-1.002,1.065-1.524
		c0.236-0.522,0.39-1.017,0.459-1.48c0.068-0.463,0.059-0.873-0.03-1.228c-0.089-0.355-0.231-0.611-0.429-0.77
		c-0.158-0.099-0.291-0.183-0.399-0.252c-0.109-0.069-0.247-0.133-0.415-0.192c-0.167-0.06-0.38-0.123-0.636-0.192
		c-0.257-0.068-0.592-0.163-1.007-0.281c-0.197,0.632-0.335,1.263-0.414,1.895s-0.113,1.209-0.104,1.731s0.049,0.977,0.118,1.361
		S101.791,43.969,101.87,44.106z"/>
</g>
</svg>
