<?xml version="1.0" encoding="utf-8"?>
<!-- Generator: Adobe Illustrator 16.0.0, SVG Export Plug-In . SVG Version: 6.00 Build 0)  -->
<!DOCTYPE svg PUBLIC "-//W3C//DTD SVG 1.1//EN" "http://www.w3.org/Graphics/SVG/1.1/DTD/svg11.dtd">
<svg version="1.1" xmlns="http://www.w3.org/2000/svg" xmlns:xlink="http://www.w3.org/1999/xlink" x="0px" y="0px" width="728px"
	 height="161px" viewBox="0 0 728 161" enable-background="new 0 0 728 161" xml:space="preserve">
<g id="Layer_2">
</g>
<g id="Layer_1">
	<g>
		<path fill="#AC206D" d="M170.34,37.928l0.223,0.447c0,0.15-0.038,0.261-0.112,0.335c-0.077,0.077-0.111,0.188-0.111,0.334
			c0.146,0.597,0.223,1.937,0.223,4.02c-0.15,2.232-0.485,5.212-1.005,8.931c-0.523,3.722-1.601,8.411-3.237,14.066
			c-1.64,5.956-3.611,12.281-5.917,18.979c-2.31,6.698-4.577,12.839-6.81,18.421s-4.243,10.232-6.029,13.955
			c-1.786,3.719-2.902,5.582-3.349,5.582c-0.15,0-0.223-0.15-0.223-0.446c0-0.894,0.446-2.83,1.339-5.806
			c-0.446,0.743-0.893,1.486-1.339,2.232c-0.447,0.743-0.82,1.19-1.117,1.34l0.447-1.116l-0.223-1.34l0.223,0.446v-0.446
			c0-0.149-0.039-0.223-0.112-0.223c-0.077,0-0.111-0.15-0.111-0.447l0.223,0.224c0-0.15-0.077-0.3-0.223-0.446l0.223-0.224
			l0.446-1.34h0.224h0.893l-0.893-1.34c0.296-0.597,0.446-0.97,0.446-1.116l0.224,0.224l-0.224,0.223l0.224,0.224l0.669,1.116
			l0.224-1.34l-0.447-0.893c0-0.3-0.077-0.523-0.223-0.67l0.223-0.67l0.223,0.224l0.224,0.223l0.446,0.224v-0.67l0.893-0.67
			l-1.116-0.224h-0.447v-0.446l0.224,0.446c0-0.149,0.035-0.223,0.111-0.223c0.073,0,0.112-0.077,0.112-0.224h-0.223v-0.446
			c0-0.15,0.035-0.335,0.111-0.559c0.073-0.223,0.112-0.484,0.112-0.781h0.223l-0.223-0.224l0.447-0.893h0.446l-0.223,0.223h-0.223
			l-0.224,0.447v0.223l0.67,0.67l0.223-0.223l0.224-0.224v-0.224l-0.224-0.893h0.67v-0.446l0.224,1.339
			c0-0.3,0.035-0.484,0.111-0.558c0.073-0.077,0.112-0.262,0.112-0.559l-0.447-0.446l-0.446-0.446l-0.224,0.223l-0.223,0.224
			c-0.15-0.15-0.223-0.373-0.223-0.67c0.446-0.446,0.705-1.081,0.781-1.897c0.073-0.82,0.258-1.602,0.559-2.345h0.223
			c-0.15-0.446-0.077-0.97,0.223-1.563c0.296-0.593,0.447-1.189,0.447-1.786l0.223,0.224l0.223-0.446v0.893l0.447-0.446l0.223-0.224
			v-0.223l-0.67-0.447v0.447c0-0.146-0.077-0.224-0.223-0.224c0.146-0.146,0.185-0.335,0.112-0.559
			c-0.077-0.223,0.035-0.335,0.334-0.335c0-0.146-0.038-0.223-0.111-0.223c-0.077,0-0.112-0.073-0.112-0.224l0.447-0.893
			c0.296-0.594,0.446-0.967,0.446-1.117h-0.223c0.296-0.446,0.408-1.189,0.335-2.232c-0.077-1.04,0.035-1.563,0.335-1.563
			c0-0.146-0.077-0.223-0.223-0.223c0-1.04,0.408-2.456,1.228-4.242c0.816-1.786,1.301-2.977,1.451-3.573
			c0-0.146,0.073-0.446,0.223-0.893c0.146-0.297,0.258-0.632,0.335-1.005c0.073-0.37,0.258-0.705,0.558-1.005v0.224
			c0.146-0.146,0.224-0.447,0.224-0.894v0.224c0.296-0.594,0.446-1.116,0.446-1.563c0-0.446,0.073-0.966,0.223-1.562l0.894,0.446
			v0.446c0,0.15,0.073,0.224,0.223,0.224l0.223,0.224c0.146-0.594,0.296-1.116,0.447-1.563c0.146-0.446,0.296-0.966,0.446-1.562
			l-0.446,0.223c0,0.15-0.039,0.224-0.112,0.224c-0.077,0-0.112,0.224-0.112,0.67l-1.563,0.67l0.447-0.67
			c0.296-0.297,0.408-0.37,0.335-0.224c-0.077,0.15-0.039,0.077,0.112-0.223v-0.224v-0.224l0.446-0.67
			c0-2.232,0.52-4.389,1.563-6.475c-4.616,8.784-8.562,16.076-11.834,21.882c-3.276,5.805-6.067,10.459-8.373,13.955
			c-2.31,3.495-4.13,6.14-5.47,7.926s-2.383,3.088-3.126,3.908c-0.747,0.816-1.228,1.374-1.451,1.674
			c-0.224,0.297-0.335,0.743-0.335,1.34c-0.447,0-0.893-0.819-1.34-2.456l-0.223,0.224c-0.15,0-0.224,0.073-0.224,0.223l0.224-0.669
			v0.223l0.223-0.223c0-0.301-0.039-0.374-0.112-0.224c-0.077,0.146-0.111,0.073-0.111-0.224v0.447l-0.224-0.67l-0.893-1.117
			l0.224,0.224v-0.446l-0.447-0.224h0.223l-0.446-0.446v-1.116c0.146,0,0.223-0.077,0.223-0.224h0.893l-1.116-0.894
			c0-0.149-0.039-0.3-0.112-0.446c-0.077-0.149-0.111-0.3-0.111-0.446l0.223,0.224l0.223,0.223l0.893,0.446v-0.446l-0.223-0.223
			l-0.67-0.67c0-0.301-0.15-0.447-0.446-0.447l0.223-0.446l0.446,0.224l0.224-0.224l0.223-0.67v-0.446l-1.116,0.446v-0.446
			l0.223,0.223l-0.223-0.223h0.223c-0.3,0-0.412-0.111-0.335-0.335c0.073-0.224-0.039-0.635-0.335-1.229h0.223l-0.223-0.223
			c0-0.15,0.035-0.262,0.112-0.335c0.073-0.077,0.111-0.188,0.111-0.335h0.447l-0.223,0.223l-0.224,0.224v0.446l0.224-0.223
			l0.893,0.223v-0.446l-0.447-0.446l0.447-0.224l-0.224-0.446l0.447,0.446v-0.446l-0.893-0.224l-0.223,0.224l-0.224-1.116
			c-0.3-0.447-0.412-0.894-0.335-1.34c0.073-0.446,0.035-0.894-0.111-1.34h0.223c-0.3-0.297-0.412-0.705-0.335-1.229
			c0.073-0.52,0.112-1.004,0.112-1.451l0.223-0.223l0.223,0.446l0.224-0.224c0.146,0,0.223-0.073,0.223-0.223l-0.447-0.447
			l-0.223,0.447c-0.3-0.297-0.447-0.521-0.447-0.67c0-0.146,0.073-0.224,0.224-0.224c0-0.146-0.077-0.297-0.224-0.446
			c0-0.146,0.073-0.297,0.224-0.446c0-0.146-0.039-0.259-0.112-0.335c-0.077-0.073-0.112-0.186-0.112-0.335
			c0.146,0,0.224-0.146,0.224-0.447c-0.3,0-0.447-0.369-0.447-1.116v-1.116c0-0.146,0.035-0.258,0.112-0.335
			c0.073-0.073,0.111-0.185,0.111-0.335c0-0.593-0.038-1.151-0.111-1.675c-0.077-0.52-0.112-1.078-0.112-1.675
			c0-0.296,0.035-0.669,0.112-1.116c0.073-0.446,0.111-0.816,0.111-1.116c-0.3,0.15-0.335,0.077-0.111-0.224
			c0.223-0.296,0.185-0.593-0.112-0.893c0.146,0,0.223-0.297,0.223-0.894c0-0.593,0-1.116,0-1.562l0.224,0.223
			c-0.15-0.296-0.224-1.339-0.224-3.126l0.894,0.224c0,0.3,0.146,0.446,0.446,0.446h0.223v-2.456l-0.446,0.447l-0.223,0.223
			c0,0.15,0.073,0.3,0.223,0.447l-1.117,0.669v-0.446c0-0.296,0.035-0.37,0.112-0.223c0.073,0.149,0.112,0.076,0.112-0.224v-0.224
			v-0.67v-0.893c0-0.446-0.15-0.743-0.447-0.894V73.43c-1.34,4.019-2.791,8.149-4.354,12.392c-1.563,4.243-3.126,8.188-4.689,11.834
			c-1.563,3.646-3.014,6.884-4.354,9.713c-1.339,2.826-2.383,4.763-3.126,5.806c0,0.146-0.038,0.223-0.111,0.223
			c-0.077,0-0.112,0.073-0.112,0.224c0,0.297,0.146,0.559,0.447,0.781c0.296,0.224,0.446,0.408,0.446,0.559
			c0,0.146-0.15,0.224-0.446,0.224c-0.597,0-0.82-0.112-0.67-0.335c0.146-0.224-0.3-0.858-1.34-1.898h-0.223h0.223
			c-0.15-0.149-0.3-0.224-0.446-0.224h0.223c-0.3,0-0.447-0.076-0.447-0.223c0.146,0,0.185-0.038,0.112-0.111
			c-0.077-0.077-0.039-0.112,0.112-0.112l-0.224,0.224c-0.15,0-0.223-0.15-0.223-0.446l0.67,0.223c0-0.3-0.077-0.523-0.223-0.67
			c0,0.146-0.039,0.224-0.112,0.224c-0.077,0-0.112,0.073-0.112,0.224l0.224-1.117l-0.224-1.116l-0.67,0.446
			c0.15-0.3,0.224-0.522,0.224-0.669c0-0.15,0.077-0.301,0.223-0.447l-0.223-0.223c0-0.301,0.038-0.559,0.111-0.782
			c0.077-0.223,0.112-0.484,0.112-0.781l0.67,0.224v-0.67h-0.447c0.146-0.3,0.224-0.635,0.224-1.005
			c0-0.373,0.073-0.781,0.223-1.229l0.223,0.224l0.223-0.224l-0.446-0.446c0.146,0,0.223-0.373,0.223-1.116l0.223,0.224
			c-0.15-0.301-0.077-0.559,0.224-0.782c0.296-0.223,0.446-0.411,0.446-0.558c-0.15-0.15-0.223-0.373-0.223-0.67
			c0-0.894,0.258-1.859,0.781-2.902c0.52-1.04,0.928-2.083,1.228-3.126l0.224,0.223l0.223-0.223c0-0.146-0.039-0.224-0.112-0.224
			c-0.077,0-0.111-0.073-0.111-0.224c0-0.296,0.111-0.631,0.335-1.005c0.223-0.369,0.335-0.704,0.335-1.004l0.223,0.223v-0.223
			v-0.447l0.223,0.224v0.224v0.223c0.146-0.146,0.223-0.297,0.223-0.446c0-0.146,0.073-0.297,0.224-0.446l-0.224-0.224h0.224h-0.447
			c0-0.593,0.146-0.967,0.447-1.116h-0.224c0.297-1.04,0.967-2.68,2.01-4.912l0.67,0.223c0-0.296,0.146-0.593,0.446-0.893
			l-0.223-0.224l-0.446,0.224l-0.224,0.446l0.447-1.116c-0.15-0.743-0.039-1.078,0.335-1.005c0.37,0.077,0.558-0.335,0.558-1.229
			l0.223,0.447c0-0.297,0.035-0.481,0.112-0.559c0.073-0.073,0.111-0.185,0.111-0.335h0.224c0-0.146,0.035-0.258,0.111-0.335
			c0.073-0.073,0.112-0.258,0.112-0.558v-0.224v-0.224c0.146-0.296,0.296-0.854,0.447-1.674c0.146-0.816,0.296-1.229,0.446-1.229
			c0.146,0,0.223,0.077,0.223,0.224v-0.224h0.224l-0.224-0.224h0.224v-0.446l0.223-0.224c0-0.296,0.035-0.52,0.112-0.669
			c0.073-0.147,0.111-0.37,0.111-0.67l0.447,0.223c0.146-0.146,0.223-0.296,0.223-0.446l-0.67-0.224l1.563-5.358
			c0.593-1.933,1.117-3.796,1.563-5.582c0.447-1.786,0.966-3.646,1.563-5.582l0.223-0.223v0.223l0.224-0.223V57.8l0.223-0.223
			l-0.447-0.224l0.447-1.563l0.223-0.893l-0.223-0.223h0.447v-1.116l0.223-2.233c0.296-0.593,0.52-1.263,0.67-2.01
			c0.146-0.743,0.296-1.263,0.446-1.563l0.224,0.894l0.223-0.67l0.223-0.447l0.67-0.893h-0.223c0.296-0.593,0.52-1.116,0.67-1.563
			c0.146-0.447,0.296-0.816,0.446-1.116l-0.223,0.223h0.223l-0.223,0.223l0.67,0.67V44.85l0.223,0.446
			c0,0.15-0.039,0.412-0.112,0.782c-0.077,0.373-0.111,0.708-0.111,1.005h-0.224c0,0.3,0,0.635,0,1.004
			c0,0.374-0.077,0.635-0.223,0.782c0.296-1.636,0.558-2.714,0.782-3.238c0.223-0.52,0.334-1.078,0.334-1.674v0.223l-1.116-0.67
			l0.223-0.223c0-0.297,0.073-0.447,0.224-0.447v0.224l0.223-0.447v0.223l0.223-0.223l0.223,0.447c0.147,0.15,0.37,0.373,0.67,0.669
			c0.297,0.3,0.593,0.82,0.893,1.563c0-0.593,0.073-0.893,0.224-0.893c0.446,1.64,0.966,3.796,1.563,6.475
			c0.446,2.233,0.854,5.136,1.228,8.708c0.37,3.573,0.558,7.892,0.558,12.95c0,6.402-0.262,12.95-0.782,19.649
			c-0.523,6.698-1.004,12.354-1.451,16.969c0.296-0.746,0.593-1.378,0.893-1.897c0.297-0.523,0.67-1.082,1.117-1.675v0.224
			c0-0.15,0.035-0.188,0.111-0.112c0.073,0.073,0.112,0.035,0.112-0.111h-0.223v-0.224v-0.223c0.446-0.447,0.669-0.894,0.669-1.34
			h0.224c-0.747,0.297-0.597-0.077,0.446-1.116c1.04-1.043,1.86-2.826,2.456-5.359h0.224c0.146-0.593,0.408-1.151,0.781-1.674
			c0.37-0.521,0.631-1.005,0.782-1.452l0.223,0.224l0.223-0.446l-0.223-0.224c0.296-0.297,0.558-0.705,0.781-1.228
			c0.224-0.521,0.481-0.929,0.782-1.229l0.223-0.67l0.223,0.446c0.297-0.296,0.447-0.52,0.447-0.67v-0.446h-0.447
			c0.147-0.296,0.297-0.854,0.447-1.675c0.146-0.816,0.296-1.301,0.447-1.451l0.446,0.224c0.296-0.743,0.631-1.563,1.005-2.456
			c0.37-0.894,0.705-1.71,1.005-2.456l0.67,0.446c0.146-0.146,0.258-0.297,0.334-0.446c0.073-0.146,0.185-0.297,0.335-0.446
			l-0.223-0.447l-0.223-0.223l-0.67,0.893l0.67-1.562l0.223,0.223c0-0.446,0.112-0.781,0.335-1.005
			c0.223-0.223,0.631-0.781,1.228-1.674l0.223,1.116l-0.223,0.223c-0.15,0-0.223,0.077-0.223,0.224l-0.224,0.67
			c0.297-0.446,0.559-0.928,0.782-1.451c0.223-0.52,0.481-1.005,0.781-1.451l-0.223,0.223c-0.15,0.15-0.223,0.301-0.223,0.447
			h-0.223l0.446-0.67l0.223-1.34c0.297-0.446,0.67-1.151,1.117-2.121c0.446-0.967,0.743-1.451,0.893-1.451
			c0.146,0,0.223,0.076,0.223,0.223l0.224-0.223h-0.224l0.224-0.224h-0.224h0.224v-0.224l0.446-0.67
			c0.146-0.146,0.52-0.893,1.116-2.232c0.593-1.34,1.34-2.903,2.233-4.689s1.821-3.607,2.791-5.47
			c0.966-1.86,1.898-3.384,2.791-4.577l0.447-0.447v-0.447l0.446-0.446v-0.67l0.894-0.893l-0.224-0.223l0.893-1.34l0.224-0.447
			l-0.224,0.224l0.447-0.893l-0.223,0.223c0,0.15,0.073,0.3,0.223,0.446l0.893,1.117c0,0.15-0.039,0.223-0.112,0.223
			c-0.077,0,0.185,0,0.782,0v-0.223l0.446-0.67l-0.446-0.223h0.446l0.447-0.447v-0.67l-0.447-0.223h-0.223l-0.223,0.223
			c-0.15,0.15-0.223,0.3-0.223,0.447l0.223,0.67h-0.67v0.446l-0.223-0.67v-1.116v0.223l-0.224-0.67l1.117-2.009l0.446-0.893h-0.223
			c0-0.146,0.035-0.224,0.112-0.224c0.073,0,0.111-0.073,0.111-0.223l1.563-2.009l0.894-2.01c0.446-0.743,1.004-1.486,1.674-2.233
			c0.67-0.743,1.151-1.189,1.451-1.339h-0.223l-0.223,0.893v1.116c0-0.146,0.035-0.258,0.112-0.335
			c0.073-0.073,0.111-0.185,0.111-0.335v0.67l0.67,1.117v0.446c0.743-1.34,1.189-2.379,1.34-3.126
			c-0.15-0.146-0.224-0.296-0.224-0.446c0-0.146,0.073-0.224,0.224-0.224C169.296,36.588,169.593,37.035,170.34,37.928z
			 M103.69,108.373c0.073-0.077,0.111-0.038,0.111,0.111l-0.223-0.223C103.579,108.408,103.613,108.446,103.69,108.373z
			 M104.025,108.038l-0.224-0.224v0.224H104.025z M104.472,106.028l-0.223-0.223l0.223,0.446V106.028z M109.831,89.06
			c0,0.149,0.073,0.3,0.223,0.446c0.296-0.894,0.52-1.486,0.67-1.786v-0.224l-0.67,0.224v0.223l0.223,0.67h-0.446V89.06z
			 M119.208,63.382c0-0.296,0.073-0.52,0.223-0.67h-0.223V63.382z M122.334,51.102l-0.224,0.446l0.447,0.223v-0.446L122.334,51.102z
			 M123.228,87.496v0.224l0.223-0.224H123.228z M124.567,91.068v-0.223l-0.223-0.224c0-0.146-0.077-0.224-0.223-0.224h-0.223
			l0.223,0.447l-0.893,0.223h0.223h-0.223l0.223,0.67l0.447,0.224v0.224h0.446l0.223-0.224l-0.223-0.446l-0.223,0.223l-0.223-0.446
			h0.446L124.567,91.068z M123.897,94.864c0.146-0.146,0.223-0.296,0.223-0.446l-0.223-0.224h-0.224h-0.223v0.447l-0.223,0.223
			H123.897z M123.451,80.798l0.223,0.224v-0.224H123.451z M123.451,84.37c0.146,0,0.296-0.073,0.447-0.223L123.451,84.37z
			 M123.897,87.496h-0.447h0.223l-0.223,0.224l0.447,0.446l0.446-0.67H123.897z M123.674,90.176h-0.223
			c0,0.149,0.073,0.223,0.223,0.223V90.176z M124.121,98.214v-0.446l-0.67,0.446l0.223,0.224v-0.224v0.224l0.224-0.224H124.121z
			 M124.567,77.448c0-0.593-0.077-0.893-0.223-0.893l-0.67-0.224l0.67,1.116H124.567z M123.674,83.7c0,0.15,0.073,0.224,0.224,0.224
			L123.674,83.7z M123.897,85.264c0-0.146-0.077-0.224-0.224-0.224C123.674,85.19,123.747,85.264,123.897,85.264z M123.674,85.934
			c0,0.3,0.073,0.446,0.224,0.446L123.674,85.934z M123.897,93.078c0,0.15,0.073,0.224,0.223,0.224l0.446,0.223l-0.223-0.669h-0.67
			L123.897,93.078z M123.897,82.808h0.669v-1.116L123.897,82.808z M125.237,43.287v-0.223c-0.15,0-0.523,0.15-1.116,0.446
			l0.893-0.223H125.237z M124.344,48.199l-0.223,0.223v-0.223H124.344z M124.344,68.518V68.07V68.518h-0.223H124.344z
			 M124.344,72.09l-0.223,0.446h0.223v-0.893l-0.223,0.446H124.344z M124.121,72.983l0.223,0.223V72.76L124.121,72.983z
			 M124.121,76.109h0.446v-0.894l-0.446,0.446V76.109z M124.344,47.752c0,0.15,0.035,0.188,0.112,0.112
			c0.073-0.073,0.111-0.035,0.111,0.112L124.344,47.752z M124.791,102.01l-0.447-0.224v0.446L124.791,102.01z M128.14,112.727
			l-0.223,0.224L128.14,112.727z M129.926,106.922v0.223l-0.223,0.447L129.926,106.922z M130.819,105.582l0.223,0.224v-0.224
			H130.819z M140.197,86.156l-0.447,0.447c-0.15-0.146-0.223-0.37-0.223-0.67l0.67-0.447v0.224l0.223-0.894h-0.223v-0.223
			l0.447-0.446h0.223l0.223,0.223c-0.15,0.3-0.3,0.597-0.446,0.894C140.493,85.563,140.343,85.86,140.197,86.156z M143.323,81.021
			l0.446-0.894h-0.446v0.446V81.021z M146.449,75.439c0.296-0.297,0.593-0.743,0.893-1.34l-0.447-0.67l-0.669,2.01H146.449z
			 M148.458,104.466v-0.67h-0.446v0.446L148.458,104.466z M148.682,99.106c0,0.15,0.073,0.301,0.223,0.447V99.33v0.224l0.446-0.447
			l-0.669-0.223V99.106z M149.575,95.088l0.67-0.224l-0.224-0.446l0.447-0.224v0.224l0.446,0.446l-0.446,0.224H149.575z
			 M151.584,90.622l0.224-0.224v-0.446l-0.224-0.223l-0.223,0.446v0.223h-0.223l-0.67-0.223l0.223,0.446l-0.223-0.224l-0.223,0.447
			l1.339,0.893v0.224l0.224,0.224l0.223-0.224v-0.224l-1.117-0.67h0.447c0.146,0,0.223-0.073,0.223-0.223h0.447L151.584,90.622z
			 M150.691,95.534h-0.223l0.446,0.224L150.691,95.534z M151.361,89.282l-0.223,0.224L151.361,89.282z M151.138,93.078v0.446
			l0.446,0.224v-0.893l-0.446-0.224V93.078z M151.808,86.156h0.223v-0.223L151.808,86.156z M152.254,86.156l-0.223,0.224l0.223,0.67
			l0.67-0.67l-0.67-0.446V86.156z M152.701,65.392l0.446-0.894l-0.67,0.224l0.447,0.223l-0.223,0.223V65.392z M153.371,64.052
			l0.446-0.447h-0.223h-0.223V64.052z M153.594,82.138c0,0.149,0.073,0.223,0.223,0.223l0.223-0.223H153.594z M153.817,81.691
			c0,0.149,0.035,0.149,0.112,0c0.073-0.147,0.111-0.074,0.111,0.223l0.224-0.223h-0.224H153.817z M154.264,62.712l0.223-0.67
			C154.337,62.192,154.264,62.416,154.264,62.712z M155.157,80.798c0.296-0.894,0.446-1.413,0.446-1.563l-0.893,1.117
			L155.157,80.798z M156.943,58.247c0-0.147,0.035-0.224,0.112-0.224c0.073,0,0.111-0.073,0.111-0.223l-0.223,0.223V58.247z
			 M157.39,74.1c0-0.297,0.035-0.521,0.111-0.67c0.073-0.146,0.112-0.297,0.112-0.446l-0.67-0.447L157.39,74.1z M157.836,72.313
			c0-0.447,0.073-0.743,0.223-0.894c-0.15,0-0.223,0.038-0.223,0.111c0,0.077-0.077,0.112-0.223,0.112L157.836,72.313z
			 M159.176,52.441h0.67l-0.224-0.446L159.176,52.441z M160.292,63.159c0.146-0.146,0.223-0.447,0.223-0.893l-0.446,0.446h0.223
			l-0.223,0.447H160.292z M160.515,61.372l-0.223,0.67c0-0.146,0.035-0.258,0.112-0.335
			C160.477,61.634,160.515,61.522,160.515,61.372z M161.409,46.413v0.223l-0.224-0.223H161.409z M161.409,46.859l0.223-0.223h-0.223
			V46.859z M163.195,46.413c0,0.15,0.073,0.223,0.223,0.223l0.223-0.223h0.224l-0.224,0.446l-0.223-0.223
			c0,0.15-0.038,0.188-0.112,0.112c-0.077-0.073-0.111-0.035-0.111,0.111c0.146,0,0.223,0.15,0.223,0.447
			c-0.3,0.15-0.446,0.523-0.446,1.116c0.146-0.593,0.52-1.189,1.116-1.786l0.223-0.67h-0.223l0.223-0.223V45.52l-0.446-0.224
			l-0.224-0.223l-0.223-0.223l-0.446,0.893l-0.894,0.223L163.195,46.413z M163.418,43.51c-0.15,0-0.188,0.039-0.112,0.112
			c0.074,0.077,0.035,0.111-0.111,0.111C163.195,43.586,163.268,43.51,163.418,43.51z M163.641,44.403l0.224-0.223h-0.224V44.403z
			 M164.088,43.957h0.447l-0.447,0.446v0.223c0,0.15,0.073,0.3,0.223,0.447v0.223l0.893-1.339l-0.223-0.224
			c0.146-0.146,0.223-0.296,0.223-0.446l-0.669-1.34l-0.224,1.563L164.088,43.957z M164.981,41.277l0.67,1.34V42.17l0.67-0.893
			l-0.447-0.223V41.5L164.981,41.277z M166.767,39.268l0.224,0.223c0-0.146,0.073-0.296,0.223-0.447l-0.223-0.223v0.223
			L166.767,39.268z"/>
		<path fill="#AC206D" d="M192.218,81.244c-1.936,5.659-3.684,10.533-5.247,14.625c-1.563,4.096-2.791,7.033-3.684,8.819
			c-1.193,2.977-2.048,3.981-2.568,3.015c-0.523-0.97-0.858-2.421-1.005-4.354c0.147-0.447,0.447-1.082,0.894-1.898
			c0.446-0.819,0.743-1.305,0.893-1.451c0-0.146-0.077-0.224-0.224-0.224h0.224l-0.224-0.223c0-0.146,0.073-0.259,0.224-0.335
			c0.146-0.073,0.223-0.259,0.223-0.559v-0.223c-2.086,1.786-4.281,3.46-6.587,5.023c-2.31,1.562-4.727,2.345-7.256,2.345
			c-2.83,0.146-4.801-0.709-5.917-2.568c-1.117-1.862-1.675-3.684-1.675-5.47c-0.146-0.743-0.146-1.563,0-2.456
			c0-0.594-0.073-0.967-0.223-1.117c0.3-3.422,0.858-6.437,1.674-9.043c0.816-2.603,2.268-5.32,4.354-8.149
			c0-0.297,0.035-0.446,0.112-0.446c0.073,0,0.112-0.073,0.112-0.224v-0.223l0.446-0.67l0.223,0.223v-0.223
			c0-0.146,0.035-0.259,0.112-0.335c0.073-0.073,0.112-0.186,0.112-0.335l0.446-0.67l0.447-0.447l1.786-1.562
			c0.296-0.743,0.816-1.34,1.563-1.786c0.743-0.446,1.413-1.04,2.01-1.786l0.223-0.224l0.67-0.446v0.223l0.223-0.223v-0.224
			l0.223-0.223l0.224,0.223l1.116-0.894l1.116-0.893c0.146,0,0.258-0.035,0.335-0.112c0.073-0.073,0.185-0.111,0.335-0.111v-0.223
			h0.223h0.894l0.446-0.447c0.743-0.296,1.451-0.593,2.121-0.893c0.67-0.296,1.301-0.447,1.898-0.447l-0.446,0.224h-0.447
			l-0.223,0.446c0.296,0,0.558-0.035,0.781-0.112c0.224-0.073,0.481-0.111,0.782-0.111v-0.447h0.446
			c0.146-0.146,0.297-0.223,0.447-0.223v0.223l-0.223,0.224h0.446c-0.446,0-0.67,0.077-0.67,0.223h0.447h-0.223
			c0.146,0,0.408-0.073,0.781-0.223c0.37-0.147,0.631-0.224,0.782-0.224h0.223c0,0.3-0.223,0.523-0.67,0.67l0.447-0.67l1.116,0.224
			c0.593,0,1.636,1.416,3.126,4.242l1.34,0.224l0.223-0.446l0.223-0.224c0.296-0.593,0.447-1.189,0.447-1.786h0.223l-0.223,0.223
			l0.67,0.224v-0.67l-0.67-0.223c0-0.147,0.073-0.297,0.223-0.447l0.223,0.223h0.224l-0.224-0.223c0.146,0,0.224-0.073,0.224-0.223
			l0.446,0.446h-0.223h-0.447c0,0.15,0.073,0.224,0.224,0.224v-0.224c0.296,0,0.593,0.224,0.893,0.67
			c0.593,0.893,0.966,2.383,1.116,4.466c0,1.193-0.335,2.645-1.005,4.354C193.669,76.37,192.961,78.565,192.218,81.244z
			 M163.415,84.37l0.447-0.893V83.03l-0.447,0.67V84.37z M166.764,98.884c0,0.446,0.146,0.781,0.447,1.005
			c0.296,0.223,0.52,0.408,0.67,0.558c0.296,0,0.558-0.038,0.781-0.111c0.223-0.077,0.481-0.111,0.782-0.111
			c0.146,0,0.223,0.073,0.223,0.223l0.223-0.223h0.223l0.67-0.224l0.223-0.224c0.297-0.296,0.743-0.52,1.34-0.67
			c0.593-0.146,0.893-0.52,0.893-1.116c2.529-1.636,4.466-3.384,5.806-5.247c1.339-1.859,2.603-4.204,3.795-7.033l0.67-0.67v-0.446
			l0.223-0.446v-0.224V83.7v-0.223l0.224-0.67l0.223-0.447v-0.446l0.67-1.786v-0.224v-0.223l0.223-0.67v0.67l0.893,0.893
			c0-0.446,0.073-0.67,0.224-0.67l-0.224-0.67l0.224-0.223l-0.447-0.894v0.224l-0.223-0.67l0.223-2.456l0.223-0.894l0.224-0.446
			c-0.15,0-0.224-0.073-0.224-0.224l0.224-0.223l0.223-1.563l0.223-1.34v-0.669c0-0.447-0.223-1.19-0.67-2.233
			c-0.446-1.04-0.97-1.563-1.563-1.563c-0.3,0-0.931,0.188-1.898,0.558c-0.97,0.373-2.159,1.267-3.572,2.68
			c-1.417,1.416-3.014,3.572-4.801,6.476c-1.786,2.902-3.722,6.96-5.805,12.168c-0.446,1.641-0.82,3.461-1.116,5.471
			C166.911,95.423,166.764,97.247,166.764,98.884z M173.463,69.41v0.224l0.446-0.446v-0.224l-0.223,0.446H173.463z M177.705,94.418
			l-0.447-0.224l0.224,0.67h-0.447v0.224L177.705,94.418z M178.821,93.524l-0.446,0.224l-0.224,0.446L178.821,93.524z
			 M179.714,92.632l0.447-0.446l-0.223-0.224L179.714,92.632z M181.054,91.516h0.223v-0.447h0.224L181.054,91.516z M183.287,88.166
			c0.146-0.297,0.223-0.52,0.223-0.67l-0.223,0.224V88.166z M184.403,86.156l-0.446,0.67h0.223c0-0.146,0.073-0.296,0.223-0.446
			V86.156z M185.073,82.584l-0.223,0.446h0.223V82.584z M185.966,76.109c-0.15,0-0.223,0.076-0.223,0.223h0.223V76.109z
			 M186.636,72.09h-0.223c0,0.15,0.073,0.224,0.223,0.224V72.09z M187.306,75.216c0-0.297,0.146-0.743,0.447-1.34l-0.224-0.224
			h-0.223V74.1l-0.223,0.446l-0.67,0.446L187.306,75.216z M186.636,78.565v-0.224l0.223-0.446
			C186.709,78.045,186.636,78.269,186.636,78.565z M188.422,68.74l-0.446-0.893c0.146,0.149,0.223,0.446,0.223,0.893
			c-0.15,0.15-0.223,0.301-0.223,0.447l-0.67,0.223l0.67,0.447c0,0.149,0.073,0.223,0.223,0.223h0.223
			c-0.15,0.446-0.188,0.781-0.111,1.005c0.073,0.224,0.035,0.485-0.112,0.781h-0.223l0.223-0.223c0-0.146-0.077-0.224-0.223-0.224
			v-0.446l-0.67-0.894v1.34v0.894l0.447-0.224v0.446c0,0.3,0.073,0.523,0.223,0.67C188.569,71.866,188.719,70.38,188.422,68.74z"/>
		<path fill="#AC206D" d="M218.787,60.703c1.933,0.747,3.422,2.232,4.465,4.465c1.04,2.233,1.19,4.839,0.447,7.815
			c-1.043,5.212-3.649,9.936-7.815,14.178c-4.169,4.242-8.411,7.703-12.727,10.383l-1.563,1.116l4.243,2.01l0.669,0.224l0.224-0.447
			l-0.67,0.447l-0.223,0.223c0.296,0.146,0.481,0.224,0.558,0.224c0.073,0,0.258,0.073,0.558,0.223h0.223l-0.223-0.223l0.67-0.224
			l2.233,1.34l0.669,0.224h-0.223l0.223,0.223c0-0.149,0.147-0.223,0.447-0.223l1.34,0.893l0.67,0.447l0.223,0.223v-0.223
			l1.786,0.669c0.447,0.447,0.966,1.005,1.563,1.675c0.593,0.67,1.04,1.151,1.34,1.451h-0.224c1.636,1.34,2.457,2.233,2.457,2.68
			l-0.447,0.224c-0.3,0-2.679-0.635-7.145-1.898c-4.466-1.267-9.528-3.164-15.183-5.693c-0.15-0.15-0.597-0.412-1.34-0.781
			c-0.747-0.374-1.043-0.932-0.893-1.675c-1.34,2.68-2.491,4.131-3.461,4.354c-0.966,0.224-1.451,0.559-1.451,1.005v0.224
			c-0.296,0-0.593-0.15-0.893-0.446c-0.447-0.447-0.67-1.044-0.67-1.786l-0.223,0.223h-0.224l-0.223-0.223l0.223,0.223h0.224
			c0-0.149-0.035-0.188-0.112-0.111c-0.073,0.073-0.185-0.038-0.335-0.335v0.224l-0.223-0.224h0.223l-0.223-0.224l0.446,0.224
			l0.447,0.224c0-0.301,0.077-0.523,0.223-0.67h-0.446l-0.224-0.224h0.224c0-0.15-0.073-0.224-0.224-0.224h0.224l0.223-0.67h-0.223
			l0.223-0.446v-0.224c0-0.149,0.077-0.3,0.223-0.446c0.3-0.3,0.447-0.523,0.447-0.67h0.223c-0.146,0.146-0.146,0.146,0,0
			c0.15-0.149,0.077-0.223-0.223-0.223c0.15,0,0.223-0.077,0.223-0.224l-0.223-0.224h0.223v-0.223c0.15,0,0.223-0.073,0.223-0.224
			c0-0.146,0.077-0.297,0.224-0.446h-0.224l0.224-0.224c0.15-0.893,0.412-1.636,0.781-2.232c0.374-0.594,0.708-1.486,1.005-2.68
			c0.893-1.933,1.675-3.572,2.344-4.912c0.67-1.34,1.34-2.641,2.01-3.907c0.67-1.263,1.151-2.194,1.451-2.791l0.223-0.224v-0.223
			v0.223l0.224-0.223c-0.15,0-0.188-0.035-0.112-0.112c0.073-0.073,0.035-0.111-0.112-0.111v-0.224l0.224-0.67l0.223-0.446
			l0.447,0.224c0.146,0,0.223-0.073,0.223-0.224l-0.447-0.446l0.224-0.67l0.223-0.446v0.223l0.223-0.223h-0.223l0.67-0.447
			l0.223-0.446h-0.223v-0.67c0.296-0.297,0.593-0.593,0.893-0.893c0.296-0.297,0.52-0.447,0.67-0.447l0.223,0.447l0.223,0.669
			l-0.446-0.223c0.446,0.149,0.781,0.484,1.004,1.005c0.224,0.523,0.112,1.824-0.334,3.907c-0.3,1.64-0.708,3.461-1.229,5.471
			c-0.523,2.009-1.155,4.057-1.897,6.14c0.146-0.446,0.446-0.67,0.893-0.67l-0.224-0.223c0.147-0.146,0.37-0.259,0.67-0.335
			c0.297-0.073,0.52-0.259,0.67-0.559c0.146,0,0.146,0.077,0,0.224c0.296-0.447,0.593-0.743,0.893-0.894
			c0.297-0.146,0.743-0.446,1.34-0.893l2.903-2.68c0-0.297,0.111-0.446,0.334-0.446c0.224,0,0.408-0.073,0.559-0.224v-0.224
			c0-0.146,0.073-0.223,0.223-0.223c0.296-0.297,0.705-0.632,1.228-1.005c0.52-0.37,0.928-0.632,1.228-0.781v0.223
			c0.296-0.296,0.37-0.446,0.223-0.446h0.224c0-0.146-0.077-0.224-0.224-0.224c0.593-0.593,1.117-1.34,1.563-2.232l0.447,0.67
			c0.146-0.146,0.223-0.259,0.223-0.335c0-0.073,0.073-0.186,0.223-0.335h-0.893l0.224-0.446l0.223-0.224
			c0.146,0,0.223,0.077,0.223,0.224v-0.224l0.447-0.224h-0.224l0.224-0.223l0.223-0.224h0.223c0.893-0.894,1.34-1.562,1.34-2.01
			c1.04-2.083,1.821-3.796,2.344-5.135c0.52-1.34,0.928-3.05,1.228-5.136c-0.3-1.34-0.893-2.418-1.786-3.238
			c-0.893-0.816-1.825-1.413-2.791-1.786c-0.97-0.37-1.786-0.593-2.456-0.67c-0.67-0.073-0.932-0.112-0.781-0.112
			c-0.747,0-1.305,0.224-1.675,0.67c-0.373,0.447-0.708,0.67-1.005,0.67v-0.223l0.447-0.447c-0.15,0-0.223,0.077-0.223,0.223
			c-0.15,0-0.224-0.073-0.224-0.223l0.224-0.223l-0.224,0.223v-0.223h-0.223l-0.223,0.223v-0.67c0.146,0,0.185,0.039,0.111,0.112
			c-0.077,0.077-0.038,0.112,0.112,0.112c0.146,0.15,0.223,0.15,0.223,0v-0.224v0.224c-0.15-0.146-0.188-0.224-0.111-0.224
			c0.073,0,0.035-0.146-0.112-0.446v0.223l0.223-0.223v0.223l0.224-0.223h-0.224c0-0.146,0.073-0.297,0.224-0.447v0.67l0.446,0.223
			c0-0.146,0.223-0.446,0.67-0.893l-0.223-0.446v-0.67v0.223c0.593-0.593,1.263-1.04,2.009-1.34v0.224
			c0.146-0.447,0.481-0.67,1.005-0.67c0.52,0,0.928,0,1.228,0h0.447c0.296-0.146,0.669-0.223,1.116-0.223
			c0.296,0.15,0.52,0.3,0.67,0.446c0.146,0.15,0.37,0.223,0.67,0.223l-0.224,0.224c0.146,0,0.224,0.077,0.224,0.223
			c0-0.146,0.223-0.223,0.669-0.223c0.297,0.3,0.593,0.446,0.894,0.446v0.224C217.593,59.81,218.19,60.109,218.787,60.703z
			 M198.021,93.748c0,0.446-0.077,0.747-0.224,0.894h0.447v-0.447v-0.446H198.021z M199.138,79.458c0-0.146-0.077-0.224-0.223-0.224
			L199.138,79.458z M199.808,93.748l0.447-0.446l-0.447-0.224l-0.223,0.224c0,0.149-0.15,0.3-0.447,0.446H199.808z M200.254,77.672
			v0.446l0.446-0.223L200.254,77.672z M201.371,92.408c0.296-0.146,0.593-0.369,0.893-0.67v-0.223l-0.446,0.223v0.224h-0.224
			l-0.446-0.67l-0.224,0.446l-0.223,0.224l-0.223,0.446l0.223,0.224c-0.15,0-0.223,0.076-0.223,0.224l-0.223,0.223h0.446
			c0-0.146,0.146-0.37,0.447-0.67h-0.224l0.447-0.223V92.408z M200.478,77.448l0.446,0.224v-0.224H200.478z M201.817,90.846v0.223
			l0.223-0.223H201.817z M202.041,91.068v0.224c0-0.146-0.077-0.224-0.223-0.224l0.223,0.224V91.068z M204.497,89.729
			c0-0.146,0.035-0.224,0.112-0.224c0.073,0,0.111-0.073,0.111-0.224v-0.446l-0.446,0.224v0.223V89.06v0.223l-0.224,0.67
			L204.497,89.729z M206.06,87.72l-0.223,0.446h0.223V87.72z M206.729,87.05l0.223,0.224V87.05H206.729z M207.399,86.156
			c0.146,0.15,0.296,0.224,0.446,0.224L207.399,86.156z M208.739,102.68h0.224l-0.224-0.224V102.68z M209.186,102.456
			c-0.15,0-0.223-0.077-0.223-0.224L209.186,102.456z M209.632,103.126v0.224c0-0.15-0.077-0.224-0.223-0.224H209.632z
			 M210.525,83.254l0.224,0.224l-0.224-0.447V83.254z M211.195,58.693c0-0.146-0.077-0.146-0.223,0l0.223,0.223l-0.223-0.223
			C211.118,58.546,211.195,58.546,211.195,58.693z M211.642,58.693h-0.223l0.223,0.223V58.693z M211.642,103.572l0.446,0.224
			C211.938,103.646,211.788,103.572,211.642,103.572z M212.312,104.688c0.146,0.146,0.37,0.224,0.67,0.224l0.446-0.224H212.312z
			 M212.758,58.47h0.224l-0.447,0.223L212.758,58.47z M214.098,58.693h-0.447H214.098z M213.651,105.358l0.224,0.224v-0.224H213.651
			z"/>
		<path fill="#AC206D" d="M233.743,77.672c-2.233,3.276-4.131,6.775-5.694,10.494c-1.562,3.723-2.344,7.741-2.344,12.058
			c0.296,0.743,0.447,1.189,0.447,1.339c0,0.147,0.446,0.224,1.339,0.224h0.447c0.296,0,0.446-0.076,0.446-0.224v0.224l0.447-0.224
			v0.224c0-0.149,0.035-0.224,0.112-0.224c0.073,0,0.111-0.076,0.111-0.223l0.67-0.224h0.447l1.339-0.67l0.67-0.67V100
			c-0.15,0-0.223,0.073-0.223,0.224v0.446l0.223,1.116c0.297-0.3,0.52-0.446,0.67-0.446l-0.223-0.224l-0.447,0.224l0.447-0.446
			l0.223-0.224l0.223-0.67h-0.223l0.223-0.67l1.34-0.893l0.447-0.224l0.446-0.224c0-0.146-0.077-0.223-0.223-0.223l0.223-0.224
			l0.223,0.224l0.894-0.894l0.669-0.67v0.224l0.224-0.447c0.296-0.146,0.816-0.781,1.563-1.897c0.743-1.116,1.339-1.897,1.786-2.345
			l-0.223,0.447v0.67l0.223,0.223l-0.223,0.446l0.893-0.893h0.223c0,0.149-0.039,0.819-0.112,2.01
			c-0.077,1.192-0.523,2.567-1.339,4.13c-0.82,1.563-2.086,3.126-3.796,4.689c-1.713,1.562-4.131,2.864-7.257,3.907
			c-0.3,0.146-0.82,0.224-1.563,0.224c-1.936,0-3.649-0.781-5.135-2.345c-1.486-1.562-2.233-3.314-2.233-5.247v0.224
			c-0.146,0-0.223-0.077-0.223-0.224v-1.116v-0.446h0.223c-0.296-0.297-0.447-0.67-0.447-1.117c0-0.296,0.039-0.558,0.112-0.781
			c0.077-0.224,0.112-0.481,0.112-0.781v-0.67c0-0.593,0.038-1.151,0.111-1.675c0.077-0.52,0.112-1.078,0.112-1.675v-0.223
			c0-0.146,0.039-0.259,0.112-0.335c0.077-0.073,0.111-0.259,0.111-0.559v-0.224v-0.223h0.224c0-0.146,0.038-0.297,0.111-0.446
			c0.077-0.146,0.112-0.37,0.112-0.67v-0.224c0.3-0.297,0.412-0.52,0.335-0.67c-0.073-0.146-0.035-0.37,0.111-0.67l0.224,0.224
			v-0.224v-0.223c0-0.147,0.077-0.224,0.223-0.224h-0.223c0.296-0.446,0.481-0.928,0.558-1.451c0.073-0.521,0.185-1.005,0.335-1.451
			l0.67,0.223v-0.446l-0.67,0.224l0.223-0.447l0.223-0.223h0.224v-0.224V83.03v-0.223l0.223-0.224l0.223-0.446
			c0.146-0.146,0.224-0.297,0.224-0.446c0-0.147,0.073-0.297,0.223-0.447c0-0.893,0.296-1.971,0.893-3.237
			c0.593-1.263,1.34-2.567,2.233-3.907s1.859-2.603,2.902-3.796c1.04-1.189,2.01-2.156,2.903-2.902l0.447-0.224
			c0-0.146,0.073-0.223,0.223-0.223V66.73l0.446-0.223c0-0.146,0.073-0.223,0.224-0.223v-0.224l0.446-0.446l0.447-0.447l1.563-1.339
			h-0.223c0.446-0.447,0.966-0.855,1.562-1.228c0.593-0.37,1.19-0.705,1.787-1.005h0.223l0.67-0.447v0.223l0.223-0.223l-0.223-0.223
			h0.223l0.447,0.223l1.116-0.446l1.116-0.224c0.147,0,0.258-0.035,0.335-0.111c0.073-0.073,0.185-0.112,0.335-0.112h0.224
			l0.669,0.223l0.67,0.224c0.743,0,1.375,0.3,1.898,0.893c0.52,0.597,0.966,1.228,1.34,1.898c0.37,0.669,0.705,1.674,1.005,3.014
			v0.67c0-0.297-0.15-0.593-0.447-0.893c-0.597-0.593-1.267-0.893-2.009-0.893c-1.193,0-2.83,0.82-4.913,2.456
			C240.588,69.487,237.612,72.76,233.743,77.672z M219.9,96.874c0,0.15,0.038,0.224,0.111,0.224c0.077,0,0.112,0.076,0.112,0.223
			v-0.223v-0.224H219.9z M220.123,93.748v0.224l0.223-0.224H220.123z M220.346,98.214h-0.223H220.346h-0.223l0.223,0.224V98.214z
			 M221.016,90.176h0.223H221.016z M229.724,72.536l0.447-0.446v-0.894l-0.224,0.447l-0.223,0.223V72.536z M229.947,102.456
			c0.297,0,0.447-0.077,0.447-0.224v-0.223L229.947,102.456z M233.52,100.894l-0.223,0.223c0.146-0.149,0.296-0.223,0.446-0.223
			c0.146,0,0.223-0.15,0.223-0.447l-0.446,0.224h-0.223v0.224H233.52z M234.86,98.884l0.669,0.67
			c0.146-0.146,0.297-0.259,0.447-0.335c0.146-0.073,0.296-0.259,0.447-0.559l-0.224-0.223l-0.446,0.669L234.86,98.884z
			 M236.423,97.098l-0.224,0.223C236.346,97.32,236.423,97.247,236.423,97.098z M237.092,97.99h0.224
			c0.146-0.146,0.258-0.296,0.335-0.446c0.073-0.146,0.185-0.297,0.334-0.446l-0.223-0.67l-0.446,1.116L237.092,97.99z
			 M237.539,64.722l0.223,0.223v-0.223H237.539z M238.432,95.758v0.67l0.447-0.447L238.432,95.758z M239.772,62.712v0.223
			l0.446-0.223v-0.446l-0.446,0.223V62.712z M240.218,93.972l0.224-0.224c-0.15,0.15-0.224,0.3-0.224,0.446V93.972z M242.228,62.489
			h-0.223v0.223C242.005,62.565,242.078,62.489,242.228,62.489z M244.014,61.819l-0.223,0.223h0.223V61.819z"/>
		<path fill="#AC206D" d="M276.61,81.244c-1.936,5.659-3.684,10.533-5.247,14.625c-1.563,4.096-2.791,7.033-3.684,8.819
			c-1.193,2.977-2.048,3.981-2.568,3.015c-0.523-0.97-0.858-2.421-1.005-4.354c0.147-0.447,0.447-1.082,0.894-1.898
			c0.446-0.819,0.743-1.305,0.893-1.451c0-0.146-0.077-0.224-0.224-0.224h0.224l-0.224-0.223c0-0.146,0.073-0.259,0.224-0.335
			c0.146-0.073,0.223-0.259,0.223-0.559v-0.223c-2.086,1.786-4.281,3.46-6.587,5.023c-2.31,1.562-4.727,2.345-7.256,2.345
			c-2.83,0.146-4.801-0.709-5.917-2.568c-1.117-1.862-1.675-3.684-1.675-5.47c-0.146-0.743-0.146-1.563,0-2.456
			c0-0.594-0.073-0.967-0.223-1.117c0.3-3.422,0.858-6.437,1.674-9.043c0.816-2.603,2.268-5.32,4.354-8.149
			c0-0.297,0.035-0.446,0.112-0.446c0.073,0,0.112-0.073,0.112-0.224v-0.223l0.446-0.67l0.223,0.223v-0.223
			c0-0.146,0.035-0.259,0.112-0.335c0.073-0.073,0.112-0.186,0.112-0.335l0.446-0.67l0.447-0.447l1.786-1.562
			c0.296-0.743,0.816-1.34,1.563-1.786c0.743-0.446,1.413-1.04,2.01-1.786l0.223-0.224l0.67-0.446v0.223l0.223-0.223v-0.224
			l0.223-0.223l0.224,0.223l1.116-0.894l1.116-0.893c0.146,0,0.258-0.035,0.335-0.112c0.073-0.073,0.185-0.111,0.335-0.111v-0.223
			h0.223h0.894l0.446-0.447c0.743-0.296,1.451-0.593,2.121-0.893c0.67-0.296,1.301-0.447,1.898-0.447l-0.446,0.224h-0.447
			l-0.223,0.446c0.296,0,0.558-0.035,0.781-0.112c0.224-0.073,0.481-0.111,0.782-0.111v-0.447h0.446
			c0.146-0.146,0.297-0.223,0.447-0.223v0.223l-0.223,0.224h0.446c-0.446,0-0.67,0.077-0.67,0.223h0.447h-0.223
			c0.146,0,0.408-0.073,0.781-0.223c0.37-0.147,0.631-0.224,0.782-0.224h0.223c0,0.3-0.223,0.523-0.67,0.67l0.447-0.67l1.116,0.224
			c0.593,0,1.636,1.416,3.126,4.242l1.34,0.224l0.223-0.446l0.223-0.224c0.296-0.593,0.447-1.189,0.447-1.786h0.223l-0.223,0.223
			l0.67,0.224v-0.67l-0.67-0.223c0-0.147,0.073-0.297,0.223-0.447l0.223,0.223h0.224l-0.224-0.223c0.146,0,0.224-0.073,0.224-0.223
			l0.446,0.446h-0.223h-0.447c0,0.15,0.073,0.224,0.224,0.224v-0.224c0.296,0,0.593,0.224,0.893,0.67
			c0.593,0.893,0.966,2.383,1.116,4.466c0,1.193-0.335,2.645-1.005,4.354C278.061,76.37,277.353,78.565,276.61,81.244z
			 M247.807,84.37l0.447-0.893V83.03l-0.447,0.67V84.37z M251.156,98.884c0,0.446,0.146,0.781,0.447,1.005
			c0.296,0.223,0.52,0.408,0.67,0.558c0.296,0,0.558-0.038,0.781-0.111c0.223-0.077,0.481-0.111,0.782-0.111
			c0.146,0,0.223,0.073,0.223,0.223l0.223-0.223h0.223l0.67-0.224l0.223-0.224c0.297-0.296,0.743-0.52,1.34-0.67
			c0.593-0.146,0.893-0.52,0.893-1.116c2.529-1.636,4.466-3.384,5.806-5.247c1.339-1.859,2.603-4.204,3.795-7.033l0.67-0.67v-0.446
			l0.223-0.446v-0.224V83.7v-0.223l0.224-0.67l0.223-0.447v-0.446l0.67-1.786v-0.224v-0.223l0.223-0.67v0.67l0.893,0.893
			c0-0.446,0.073-0.67,0.224-0.67l-0.224-0.67l0.224-0.223l-0.447-0.894v0.224l-0.223-0.67l0.223-2.456l0.223-0.894l0.224-0.446
			c-0.15,0-0.224-0.073-0.224-0.224l0.224-0.223l0.223-1.563l0.223-1.34v-0.669c0-0.447-0.223-1.19-0.67-2.233
			c-0.446-1.04-0.97-1.563-1.563-1.563c-0.3,0-0.931,0.188-1.898,0.558c-0.97,0.373-2.159,1.267-3.572,2.68
			c-1.417,1.416-3.014,3.572-4.801,6.476c-1.786,2.902-3.722,6.96-5.805,12.168c-0.446,1.641-0.82,3.461-1.116,5.471
			C251.302,95.423,251.156,97.247,251.156,98.884z M257.854,69.41v0.224l0.446-0.446v-0.224l-0.223,0.446H257.854z M262.097,94.418
			l-0.447-0.224l0.224,0.67h-0.447v0.224L262.097,94.418z M263.213,93.524l-0.446,0.224l-0.224,0.446L263.213,93.524z
			 M264.106,92.632l0.447-0.446l-0.223-0.224L264.106,92.632z M265.446,91.516h0.223v-0.447h0.224L265.446,91.516z M267.679,88.166
			c0.146-0.297,0.223-0.52,0.223-0.67l-0.223,0.224V88.166z M268.795,86.156l-0.446,0.67h0.223c0-0.146,0.073-0.296,0.223-0.446
			V86.156z M269.465,82.584l-0.223,0.446h0.223V82.584z M270.358,76.109c-0.15,0-0.223,0.076-0.223,0.223h0.223V76.109z
			 M271.028,72.09h-0.223c0,0.15,0.073,0.224,0.223,0.224V72.09z M271.698,75.216c0-0.297,0.146-0.743,0.447-1.34l-0.224-0.224
			h-0.223V74.1l-0.223,0.446l-0.67,0.446L271.698,75.216z M271.028,78.565v-0.224l0.223-0.446
			C271.101,78.045,271.028,78.269,271.028,78.565z M272.814,68.74l-0.446-0.893c0.146,0.149,0.223,0.446,0.223,0.893
			c-0.15,0.15-0.223,0.301-0.223,0.447l-0.67,0.223l0.67,0.447c0,0.149,0.073,0.223,0.223,0.223h0.223
			c-0.15,0.446-0.188,0.781-0.111,1.005c0.073,0.224,0.035,0.485-0.112,0.781h-0.223l0.223-0.223c0-0.146-0.077-0.224-0.223-0.224
			v-0.446l-0.67-0.894v1.34v0.894l0.447-0.224v0.446c0,0.3,0.073,0.523,0.223,0.67C272.96,71.866,273.111,70.38,272.814,68.74z"/>
		<path fill="#AC206D" d="M309.878,56.907l0.223,0.446c0-0.296-0.262,0.597-0.781,2.68c-0.523,2.086-1.228,4.839-2.121,8.261
			c-0.893,3.426-1.937,7.184-3.126,11.275c-1.193,4.097-2.383,7.965-3.573,11.611c-1.193,3.649-2.383,6.775-3.572,9.378
			c-1.193,2.603-2.233,4.13-3.126,4.577c-1.786,0.893-3.126,0.928-4.019,0.111c-0.893-0.819-1.563-2.271-2.01-4.354
			c-0.446-2.083-0.747-4.651-0.893-7.704c-0.15-3.049-0.373-6.437-0.67-10.159v0.224V83.03c0-0.146,0.073-0.296,0.224-0.446
			l0.446-0.224l-0.446-0.223c-0.15,0-0.15,0.076,0,0.223v-0.223c-2.68,6.698-4.913,11.722-6.699,15.071s-3.199,5.84-4.242,7.479
			c-1.04,1.637-1.859,2.715-2.456,3.238c-0.593,0.52-1.04,1.301-1.34,2.344l-0.446,0.447c-0.147,0-0.224-0.077-0.224-0.224v-1.116
			v0.67c-0.146,0-0.223,0.073-0.223,0.223l-0.223-0.893l0.223,0.224c0.15-0.15,0.223-0.447,0.223-0.894l-0.223,0.224l0.223,0.223
			h-0.223v-0.446l-0.223,0.224l0.223-0.894v0.224h0.223c-0.146,0-0.223-0.077-0.223-0.224v-0.446l0.223,0.223v0.447h0.224
			c0-0.597,0.223-1.267,0.669-2.01l-0.446-0.446l0.223,0.223l-0.446-0.446h0.223c0-0.3,0.077-0.67,0.223-1.116
			c0.3-1.043,0.597-1.713,0.893-2.01l0.224-0.224v-0.223c-0.147-0.3,0.038-1.34,0.558-3.126c0.523-1.786,0.858-3.126,1.005-4.02
			l0.446,0.224c-0.296-0.146-0.335-0.224-0.112-0.224c0.224,0,0.335-0.073,0.335-0.223l-0.223,0.223v-0.223
			c0-0.447,0.112-0.929,0.335-1.452c0.223-0.52,0.262-0.928,0.112-1.228l0.223-0.224c0-0.446,0.077-0.781,0.223-1.005
			c0.15-0.223,0.374-0.558,0.67-1.004c0-0.146-0.035-0.224-0.112-0.224c-0.073,0-0.111-0.073-0.111-0.224
			c0-0.893,0.335-1.971,1.005-3.237c0.669-1.263,1.151-2.491,1.451-3.685h0.223c-0.15-1.189,0-2.155,0.447-2.902
			c0.446-0.743,0.816-1.486,1.116-2.232l0.223,0.446c0.146-0.146,0.224-0.258,0.224-0.335c0-0.073,0.073-0.185,0.223-0.335
			l-0.223-0.224c0.146-0.446,0.593-1.786,1.339-4.019l0.224,0.224v-0.447c0-0.146,0.035-0.223,0.111-0.223
			c0.073,0,0.112-0.073,0.112-0.224l0.223,0.224l1.117-1.117l-0.67-0.67l-0.893,0.224c0.446-0.743,0.966-1.451,1.563-2.121
			c0.593-0.67,0.893-1.301,0.893-1.898h0.223c0-0.146-0.077-0.223-0.223-0.223c0-0.146,0.111-0.408,0.335-0.782
			c0.223-0.37,0.781-0.928,1.674-1.674c0.593,0,0.966,0.077,1.117,0.223l1.339-0.446c1.04-0.147,1.748,0,2.121,0.446
			c0.37,0.447,0.559,0.932,0.559,1.451c0,0.523-0.224,1.155-0.67,1.898c0.446,3.873,0.816,8.038,1.116,12.504
			c0.297,4.466,0.67,8.484,1.117,12.058c0.893-2.826,1.859-5.433,2.902-7.815l0.447-0.67c0-0.146,0.073-0.223,0.223-0.223
			l0.223-0.224V83.03l0.224-0.446h0.223V82.36v-0.446v-0.223l0.447-1.563l0.893-2.01l0.446-0.67v-0.446h-0.223l0.446-1.116v0.224
			v0.669v0.224l1.117,0.894c0-0.146,0.146-0.521,0.446-1.117l-0.446,0.67v-1.116l0.223-0.446l-0.67-1.563l1.34-2.679l0.447-0.894
			v-0.446c0-0.146-0.077-0.224-0.224-0.224l0.224-0.223l0.223-0.224l1.116-2.01l0.67-1.339l0.223-0.67l0.447-2.01
			c0.743-1.04,1.413-2.268,2.009-3.684c0.593-1.413,1.04-2.268,1.34-2.568v0.224l-0.223,0.67l-0.223,0.669l0.223,0.447l-0.223,0.447
			c0.743-1.34,1.339-2.233,1.786-2.68L309.878,56.907z M272.814,100.894l0.223,0.223L272.814,100.894l0.223,0.223
			c-0.146,0-0.296-0.076-0.447-0.223H272.814z M273.26,100v0.224l0.223-0.224H273.26z M273.483,98.438v0.223
			c0.15,0,0.188-0.035,0.112-0.111c-0.073-0.073-0.035-0.111,0.112-0.111H273.483z M274.377,96.874l0.223-0.224L274.377,96.874z
			 M286.21,66.508c0.146-0.296,0.258-0.558,0.335-0.782c0.073-0.223,0.335-0.558,0.782-1.004l-0.224-0.224l-1.116,0.894
			c-0.3,0.15-0.446,0.446-0.446,0.893c0,0.15,0.073,0.223,0.223,0.223H286.21z M294.025,94.642v0.893V94.642z M299.607,81.244
			c0-0.146,0.035-0.258,0.112-0.335c0.073-0.073,0.111-0.185,0.111-0.335l-0.669-0.223v0.67L299.607,81.244z M301.394,72.536
			c0.147,0,0.224-0.073,0.224-0.223L301.394,72.536z M301.617,72.983l0.223-0.224h-0.223V72.983z M301.84,75.662V74.77
			c0,0.149-0.077,0.3-0.223,0.446v0.446H301.84z M303.403,71.866c0.296-0.893,0.447-1.562,0.447-2.009l-0.224,1.116l-1.116,0.893
			H303.403z M303.626,67.848l-0.223,0.446l0.223-0.224V67.848z M304.52,68.07c0.146-0.296,0.297-0.558,0.447-0.781
			c0.146-0.223,0.296-0.481,0.446-0.781l-0.446-0.67l-0.223,1.563L304.52,68.07z M305.859,65.168l0.223-0.446h-0.67L305.859,65.168z
			"/>
		<path fill="#AC206D" d="M345.378,64.052c-1.64,4.319-3.388,8.858-5.247,13.62c-1.863,4.766-3.649,9.267-5.359,13.509
			c-1.713,4.242-3.091,7.965-4.131,11.164c-1.043,3.199-1.563,5.32-1.563,6.363c0,0.446,0.147,0.67,0.447,0.67
			c-1.043,0-1.713-1.193-2.01-3.572v0.893l-0.446-0.67l-0.67-0.893l0.223,0.223v-0.446l-0.446-0.446h0.223
			c0-0.15-0.039-0.224-0.112-0.224c-0.077,0-0.111-0.076-0.111-0.223l0.446-1.117c0.146,0,0.224-0.076,0.224-0.223l0.893,0.223
			l-0.447-0.67l-0.893-0.446c0.146-0.3,0.223-0.523,0.223-0.67c0-0.149,0.073-0.3,0.224-0.446v0.224v0.446l1.116,0.67
			c-0.15-0.15-0.223-0.373-0.223-0.67v-0.446l-0.447-0.224l0.223-0.446c-0.15,0-0.188-0.039-0.111-0.112
			c0.073-0.076-0.039-0.185-0.335-0.335l0.446-0.446c0,0.15,0.074,0.224,0.224,0.224l0.446,0.223c0-0.593,0.073-0.966,0.224-1.116
			l-0.447-0.223h-0.67h0.223c-1.786,1.933-4.13,3.868-7.033,5.805c-2.903,1.933-5.771,2.902-8.596,2.902
			c-1.64,0-2.979-0.334-4.019-1.004c-1.043-0.67-1.825-1.452-2.345-2.345c-0.52-0.894-0.893-1.863-1.116-2.902
			c-0.223-1.04-0.335-1.934-0.335-2.68v-2.01c0-0.593-0.073-1.039-0.223-1.34c0.446-3.422,1.155-6.733,2.121-9.936
			c0.966-3.199,2.417-6.141,4.354-8.819c0.593,0,0.893-0.297,0.893-0.894v0.224l0.447-0.447v-0.67l0.669-0.893l0.224-0.224
			l1.563-1.562l0.223-0.224l0.223-0.224h-0.223c0.446-0.743,0.966-1.339,1.563-1.786c0.593-0.446,1.263-0.893,2.009-1.34l0.67-0.446
			l0.447-0.223c0.146-0.147,0.185-0.224,0.111-0.224c-0.077,0-0.038-0.073,0.112-0.223h0.447l2.232-1.34l0.224-0.223
			c0.146,0,0.223-0.035,0.223-0.112c0-0.073,0.146-0.112,0.447-0.112l0.669-0.223l0.67-0.223c0.743-0.297,1.452-0.559,2.121-0.782
			c0.67-0.223,1.302-0.335,1.898-0.335l-0.223,0.224v-0.224l-0.447,0.224l-0.446,0.669c0.446-0.146,1.04-0.223,1.786-0.223v-0.223
			l0.223-0.67h0.224l0.223,0.447c-0.15,0-0.223,0.077-0.223,0.223c0.146,0,0.223-0.073,0.223-0.223v0.223v0.223h0.223v-0.223
			l0.224,0.223c0.296-0.296,0.893-0.446,1.786-0.446h0.223c0,0.3-0.373,0.596-1.116,0.893l0.223,0.223
			c0.743,0,1.675,0.374,2.791,1.116c1.116,0.747,1.821,2.383,2.121,4.913c1.486-4.315,2.826-8.223,4.019-11.723
			c1.19-3.496,2.233-6.287,3.126-8.373l0.223-0.67v-0.446c0.146-0.593,0.297-1.116,0.447-1.563c0.146-0.447,0.223-0.966,0.223-1.563
			l0.224-0.447l0.223-0.223c0-0.146-0.039-0.223-0.112-0.223c-0.077,0-0.111-0.073-0.111-0.223l0.669-0.894l0.224-0.893v-0.446
			v-0.67l0.223-0.223c0.296-0.893,0.446-1.636,0.446-2.233v-0.447h0.224l-0.224,0.224l0.894,0.669v-0.223v0.223l0.446,0.224h-0.223
			c0,0.15,0.035,0.223,0.112,0.223c0.073,0,0.111,0.077,0.111,0.223c-0.15,0.447-0.223,0.893-0.223,1.34h-0.223
			c0.146,0.15,0.223,0.262,0.223,0.335c0,0.077,0.073,0.188,0.223,0.335c0.593-1.19,0.893-2.156,0.893-2.903v-0.223v-0.447
			c0.297,0,0.593,0.335,0.893,1.005c0.297,0.67,0.52,1.825,0.67,3.461c0.146,1.786-0.077,4.281-0.67,7.48
			C348.354,54.862,347.165,58.993,345.378,64.052z M307.867,83.254c0-0.146,0.035-0.258,0.111-0.335
			c0.073-0.073,0.112-0.258,0.112-0.559v-0.446l-0.223,0.67V83.254z M310.1,98.438c0,1.339,0.223,2.155,0.669,2.456
			c0.147-0.15,0.297-0.224,0.447-0.224c0.146,0,0.296-0.077,0.447-0.224c0.296,0,0.446,0.073,0.446,0.224
			c0,0.146,0.073,0.224,0.223,0.224l0.224-0.224h-0.224h0.224v-0.224h0.446l0.447-0.223h-0.223h0.446
			c4.166-1.34,7.218-3.238,9.155-5.694c1.933-2.456,3.646-5.543,5.135-9.266v0.223l0.447-0.67v-0.223V84.37l0.446-0.446v0.224
			v-0.224v-0.446v-0.224l0.223-0.894v-0.446l0.67-1.786l0.224-0.224v-0.223h-0.224l0.224-0.894v0.224c0,0.149,0.073,0.3,0.223,0.446
			l0.893,0.894c0,0.149,0.035,0.223,0.112,0.223c0.073,0,0.111,0.077,0.111,0.224c0.297,0,0.481-0.185,0.558-0.559
			c0.073-0.369,0.185-0.631,0.335-0.781h-0.223l0.223-0.224v-0.893v-0.446l-0.446-0.224h-0.223l-0.224,0.446
			c0,0.15,0.073,0.3,0.224,0.447h0.223v0.893h-0.447l-0.223,0.67v-1.116l-0.447-0.894l-0.223,0.224l-0.223-0.894l0.67-2.456
			l-0.224-0.893l0.224,0.223V74.1c0-0.146-0.039-0.224-0.112-0.224c-0.077,0-0.112-0.073-0.112-0.224l0.447-1.562l0.223-0.224
			l0.224-1.116l-0.447-0.224l0.223-0.446c0-0.296-0.038-0.558-0.111-0.781c-0.077-0.224-0.112-0.481-0.112-0.781v-0.894
			c0-0.446-0.077-0.894-0.223-1.339c-0.15-0.447-0.3-0.816-0.447-1.117c-0.3,0.15-0.558,0.3-0.781,0.447
			c-0.224,0.15-0.485,0.3-0.782,0.446c-0.446,0.447-1.601,1.417-3.461,2.903c-1.863,1.489-3.873,3.572-6.028,6.252
			c-2.16,2.68-4.131,5.955-5.917,9.824C311.663,88.913,310.546,93.378,310.1,98.438z M317.915,68.964l0.224,0.224
			c0-0.146,0.035-0.224,0.111-0.224c0.073,0,0.112-0.073,0.112-0.224v-0.223l-0.223,0.223L317.915,68.964z M320.817,96.65
			c0.296-0.146,0.481-0.258,0.558-0.335c0.073-0.073,0.258-0.185,0.558-0.335l-0.669-0.223l0.223,0.446l-0.447,0.224L320.817,96.65z
			 M323.05,95.088h-0.223h-0.224l-0.223,0.224v0.446L323.05,95.088z M323.72,94.418l0.446-0.446l-0.223-0.447L323.72,94.418z
			 M325.06,92.855c0.146,0,0.297-0.074,0.447-0.224c-0.15,0-0.223,0.076-0.223,0.224H325.06z M327.516,89.952
			c0.147-0.146,0.224-0.296,0.224-0.446l-0.67,0.224L327.516,89.952z M327.739,98.438l0.223-0.224c-0.15,0-0.3-0.073-0.447-0.224
			c0.147,0.15,0.147,0.224,0,0.224L327.739,98.438z M327.739,100.224v0.223l0.223-0.223H327.739z M328.409,88.612l0.223-0.446
			l-0.447,0.446H328.409z M330.195,83.03l0.223,0.224l0.223-0.446l-0.669-0.447L330.195,83.03z M333.321,68.74
			c0-0.146-0.039-0.296-0.112-0.446c-0.077-0.146-0.112-0.37-0.112-0.67c0,0.3,0,0.597,0,0.894c0,0.3-0.077,0.446-0.223,0.446
			l-0.893,0.224l0.67,0.893l0.223,0.224l0.223,0.223c0.147,0.301,0.224,0.747,0.224,1.34l-0.224-0.223v-0.447l-0.223-0.446
			l-1.116-0.67l0.446,1.34l0.224,0.894l0.223,0.223c0,0.447,0.146,0.67,0.446,0.67V74.1l-0.446-0.224l-0.223-0.224h-0.447V74.1
			l0.223,0.446l-0.893,0.67l1.34,0.224l0.223-0.224h0.223l-0.223,0.446l-0.223-0.223v0.223c0.146,0,0.223,0.15,0.223,0.447
			c0-0.297,0.112-1.151,0.335-2.568C333.433,72.128,333.468,70.526,333.321,68.74z M344.932,46.859v0.447V46.859z M346.718,43.51
			c0.146,0,0.223-0.073,0.223-0.223L346.718,43.51z"/>
		<path fill="#AC206D" d="M369.49,73.206c0,2.087-0.262,4.951-0.781,8.597c-0.523,3.649-1.562,7.257-3.127,10.829
			c-1.562,3.572-3.76,6.698-6.586,9.378c-2.829,2.679-6.475,4.019-10.941,4.019c-2.086,0-3.761-0.411-5.023-1.228
			c-1.267-0.82-2.233-1.752-2.903-2.791c-0.67-1.043-1.116-2.121-1.34-3.238c-0.223-1.116-0.335-1.971-0.335-2.567
			c0-1.636,0.224-3.349,0.67-5.136c0.447-1.786,0.893-3.349,1.34-4.688l1.116-1.116V85.04l0.224-0.224v-0.223V84.37v-0.446
			l0.669-0.894l0.224-0.223l1.116-2.68h0.223v-0.67v0.224c0.297-1.04,1.117-2.233,2.456-3.572h0.447h0.447l0.223,0.223l0.223-0.223
			l-0.223-0.894v0.224v-0.224c0-0.146-0.039-0.224-0.112-0.224c-0.077,0-0.111-0.073-0.111-0.223l-0.224-0.447
			c0.297-0.146,0.447-0.335,0.447-0.558c0-0.224,0.073-0.408,0.223-0.559h0.223l-0.223,0.224c-0.15,0-0.223,0.223-0.223,0.67
			l0.446,1.116l0.894-1.116l0.446-0.894l-0.446-0.446c0-0.297,0.073-0.481,0.223-0.559c0.146-0.073,0.223-0.185,0.223-0.335h-0.446
			l0.446-0.893l0.223,0.223l0.224,0.447v0.223l1.116-0.893l1.34-0.224l-1.117-0.446h-0.223h-0.447l0.447-0.224v0.224
			c0,0.149,0.223,0.076,0.67-0.224h-0.447c0-0.296,0.224-0.67,0.67-1.116c0.447-0.446,0.816-0.894,1.117-1.34l0.446,0.224
			c0-0.446,0.296-0.816,0.893-1.117l0.224,0.225l-0.224,0.223l-0.446-0.223l-0.224,0.223c-0.15,0-0.223,0.076-0.223,0.224v0.223
			l0.223,0.224l-0.223,0.446v0.224l0.223-0.224l0.894-0.446h-0.224l0.447-0.893v0.223h0.223h0.447h-0.447v0.67l-0.223,0.67
			c0.146-0.146,0.408-0.335,0.781-0.559c0.37-0.224,0.632-0.481,0.782-0.781l0.446-0.447l0.224-0.223v-0.223v-0.224l-0.67-0.893
			h0.446h0.224c0.743-0.296,1.228-0.52,1.451-0.67c0.223-0.146,0.705-0.223,1.451-0.223h1.117h2.456
			c1.487,0,2.603,0.374,3.349,1.117c0.744,0.747,1.303,1.601,1.676,2.567c0.369,0.97,0.631,1.937,0.781,2.902
			C369.414,71.832,369.49,72.613,369.49,73.206z M343.813,83.478c0.146-0.297,0.258-0.705,0.335-1.229
			c0.073-0.52,0.258-0.928,0.558-1.228v-0.224v-1.563l-0.893,2.01h0.223l-0.223,0.447v0.669V83.478z M354.531,96.874
			c1.339-1.34,2.529-3.015,3.572-5.023c1.04-2.01,1.933-4.166,2.679-6.476c0.743-2.306,1.34-4.65,1.787-7.033
			c0.446-2.38,0.669-4.466,0.669-6.252c0-0.743-0.077-1.486-0.223-2.232c-0.15-0.743-0.597-1.413-1.339-2.01
			c0.296,0,0.035,0.335-0.782,1.005c-0.82,0.67-1.936,1.824-3.349,3.461c-1.417,1.64-2.979,3.834-4.689,6.587
			c-1.713,2.756-3.238,6.14-4.577,10.159c-0.747,1.339-1.305,3.237-1.675,5.693c-0.373,2.456-0.335,3.907,0.112,4.354
			c0.593,0.301,1.189,0.447,1.786,0.447c0.296,0,0.743,0,1.34,0c0.593,0,0.966-0.073,1.116-0.224h-0.223l-0.224,0.224l-0.893-0.224
			c0.447,0,1.263-0.185,2.456-0.559c1.19-0.369,1.933-0.928,2.233-1.674l0.224-0.447V96.874z M348.949,76.109
			c-0.15,0-0.224,0.076-0.224,0.223L348.949,76.109z M352.298,69.41v-0.893l-0.67,0.893l0.67,0.224V69.41z M358.996,64.945
			l-0.223,0.223h-0.223h0.223L358.996,64.945z"/>
		<path fill="#AC206D" d="M416.439,74.494c-1.162,3.064-2.402,6.284-3.723,9.663c-1.322,3.382-2.59,6.575-3.803,9.585
			c-1.215,3.01-2.191,5.651-2.93,7.921c-0.74,2.271-1.109,3.775-1.109,4.516c0,0.316,0.104,0.475,0.316,0.475
			c-0.74,0-1.215-0.846-1.426-2.534v0.634l-0.316-0.476l-0.475-0.634l0.158,0.158v-0.316l-0.316-0.316h0.158
			c0-0.106-0.027-0.159-0.08-0.159c-0.055,0-0.078-0.054-0.078-0.158l0.316-0.792c0.104,0,0.158-0.055,0.158-0.158l0.633,0.158
			l-0.316-0.476l-0.633-0.316c0.104-0.213,0.158-0.371,0.158-0.476c0-0.106,0.051-0.213,0.158-0.316v0.158v0.316l0.793,0.476
			c-0.107-0.106-0.16-0.265-0.16-0.476v-0.316l-0.316-0.158l0.158-0.317c-0.105,0-0.133-0.027-0.078-0.079
			c0.051-0.055-0.027-0.131-0.238-0.237l0.316-0.317c0,0.106,0.053,0.159,0.158,0.159l0.318,0.158c0-0.421,0.051-0.686,0.158-0.792
			l-0.316-0.159h-0.477h0.158c-1.268,1.372-2.93,2.745-4.99,4.119c-2.059,1.372-4.094,2.06-6.1,2.06
			c-1.162,0-2.113-0.237-2.852-0.713c-0.74-0.475-1.293-1.029-1.662-1.663s-0.635-1.322-0.793-2.06s-0.238-1.371-0.238-1.901v-1.426
			c0-0.421-0.051-0.737-0.158-0.95c0.318-2.429,0.82-4.777,1.506-7.05c0.686-2.271,1.715-4.356,3.09-6.258
			c0.42,0,0.633-0.211,0.633-0.634v0.158l0.316-0.316v-0.476l0.477-0.634l0.158-0.158l1.109-1.109l0.158-0.158l0.158-0.158h-0.158
			c0.316-0.527,0.686-0.95,1.107-1.268c0.422-0.316,0.896-0.634,1.426-0.95l0.477-0.317l0.316-0.158
			c0.104-0.104,0.131-0.158,0.08-0.158c-0.055,0-0.027-0.052,0.078-0.158h0.316l1.584-0.951l0.16-0.158
			c0.104,0,0.158-0.024,0.158-0.079c0-0.052,0.104-0.079,0.316-0.079l0.475-0.158l0.477-0.159c0.527-0.21,1.029-0.396,1.504-0.554
			c0.477-0.159,0.924-0.238,1.348-0.238l-0.158,0.158v-0.158l-0.318,0.158l-0.316,0.476c0.316-0.104,0.738-0.158,1.268-0.158v-0.158
			l0.158-0.476h0.158l0.158,0.316c-0.105,0-0.158,0.055-0.158,0.159c0.104,0,0.158-0.053,0.158-0.159v0.159v0.158h0.158v-0.158
			l0.16,0.158c0.209-0.211,0.633-0.317,1.266-0.317h0.16c0,0.213-0.266,0.424-0.793,0.634l0.158,0.159
			c0.527,0,1.188,0.265,1.98,0.792c0.793,0.529,1.293,1.69,1.506,3.485c1.055-3.062,2.004-5.835,2.852-8.317
			c0.844-2.48,1.584-4.461,2.217-5.941l0.158-0.476v-0.317c0.105-0.42,0.211-0.792,0.318-1.109c0.104-0.317,0.158-0.686,0.158-1.109
			l0.158-0.317l0.158-0.158c0-0.104-0.027-0.159-0.08-0.159c-0.055,0-0.078-0.052-0.078-0.158l0.475-0.634l0.158-0.634V59.76v-0.475
			l0.158-0.158c0.211-0.634,0.318-1.161,0.318-1.584v-0.317h0.158l-0.158,0.159l0.633,0.475v-0.158v0.158l0.316,0.158h-0.158
			c0,0.106,0.025,0.159,0.08,0.159c0.051,0,0.078,0.054,0.078,0.158c-0.105,0.317-0.158,0.634-0.158,0.951h-0.158
			c0.104,0.106,0.158,0.186,0.158,0.238c0,0.054,0.053,0.133,0.158,0.237c0.422-0.844,0.635-1.53,0.635-2.059v-0.159v-0.317
			c0.209,0,0.42,0.238,0.633,0.713c0.211,0.476,0.369,1.295,0.475,2.456c0.105,1.268-0.053,3.038-0.475,5.307
			C418.551,67.974,417.707,70.904,416.439,74.494z M389.824,88.118c0-0.104,0.025-0.183,0.08-0.237
			c0.053-0.052,0.078-0.184,0.078-0.396v-0.316l-0.158,0.475V88.118z M391.41,98.891c0,0.951,0.158,1.53,0.475,1.743
			c0.104-0.106,0.211-0.158,0.316-0.158c0.104,0,0.211-0.055,0.316-0.159c0.211,0,0.318,0.053,0.318,0.159
			c0,0.104,0.051,0.158,0.158,0.158l0.158-0.158h-0.158h0.158v-0.159h0.316l0.316-0.158h-0.158h0.316
			c2.957-0.95,5.123-2.297,6.496-4.04c1.371-1.742,2.586-3.933,3.645-6.574v0.158l0.316-0.475v-0.159V88.91l0.316-0.316v0.158
			v-0.158v-0.317v-0.158l0.158-0.634v-0.316l0.475-1.268l0.16-0.158v-0.159h-0.16l0.16-0.633v0.158c0,0.106,0.051,0.213,0.158,0.316
			l0.633,0.634c0,0.106,0.025,0.158,0.08,0.158c0.051,0,0.078,0.055,0.078,0.159c0.211,0,0.342-0.132,0.396-0.396
			c0.053-0.263,0.131-0.448,0.238-0.555h-0.158l0.158-0.158v-0.634v-0.316l-0.318-0.159h-0.158l-0.158,0.317
			c0,0.106,0.053,0.213,0.158,0.316h0.158v0.634h-0.316l-0.158,0.476v-0.792l-0.316-0.634l-0.158,0.158l-0.158-0.634l0.475-1.742
			l-0.158-0.634l0.158,0.158v-0.158c0-0.104-0.027-0.158-0.08-0.158s-0.078-0.053-0.078-0.159l0.316-1.108l0.158-0.158l0.158-0.793
			l-0.316-0.158l0.158-0.316c0-0.211-0.027-0.396-0.078-0.555c-0.055-0.158-0.08-0.342-0.08-0.555v-0.634
			c0-0.316-0.055-0.634-0.158-0.95c-0.105-0.317-0.213-0.579-0.316-0.792c-0.213,0.106-0.396,0.213-0.555,0.316
			c-0.158,0.106-0.344,0.213-0.555,0.317c-0.316,0.316-1.137,1.005-2.455,2.06c-1.322,1.057-2.748,2.534-4.277,4.436
			c-1.533,1.901-2.932,4.226-4.199,6.971C392.518,92.133,391.727,95.302,391.41,98.891z M396.953,77.979l0.16,0.158
			c0-0.104,0.023-0.158,0.078-0.158c0.053,0,0.08-0.053,0.08-0.159v-0.158l-0.158,0.158L396.953,77.979z M399.014,97.624
			c0.211-0.104,0.342-0.184,0.396-0.238c0.051-0.052,0.182-0.131,0.395-0.237l-0.475-0.158l0.158,0.316l-0.316,0.158L399.014,97.624
			z M400.598,96.515h-0.158h-0.158l-0.158,0.158v0.317L400.598,96.515z M401.072,96.039l0.318-0.316l-0.158-0.317L401.072,96.039z
			 M402.023,94.931c0.104,0,0.211-0.052,0.316-0.158c-0.105,0-0.158,0.054-0.158,0.158H402.023z M403.766,92.871
			c0.105-0.104,0.158-0.211,0.158-0.317l-0.475,0.159L403.766,92.871z M403.924,98.891l0.16-0.158c-0.107,0-0.213-0.052-0.318-0.158
			c0.105,0.106,0.105,0.158,0,0.158L403.924,98.891z M403.924,100.158v0.158l0.16-0.158H403.924z M404.4,91.92l0.158-0.316
			l-0.316,0.316H404.4z M405.668,87.96l0.158,0.158l0.158-0.316l-0.475-0.317L405.668,87.96z M407.885,77.82
			c0-0.104-0.027-0.21-0.078-0.316c-0.055-0.104-0.08-0.263-0.08-0.476c0,0.213,0,0.424,0,0.634c0,0.213-0.055,0.317-0.158,0.317
			l-0.633,0.158l0.475,0.634l0.158,0.158l0.158,0.158c0.104,0.213,0.158,0.53,0.158,0.951l-0.158-0.159v-0.316l-0.158-0.317
			l-0.793-0.475l0.318,0.95l0.158,0.634l0.158,0.158c0,0.317,0.104,0.476,0.316,0.476v0.634l-0.316-0.158l-0.158-0.159h-0.316v0.317
			l0.158,0.316l-0.635,0.476l0.951,0.158l0.158-0.158h0.158l-0.158,0.316l-0.158-0.158v0.158c0.104,0,0.158,0.106,0.158,0.317
			c0-0.211,0.08-0.817,0.238-1.822C407.965,80.225,407.988,79.088,407.885,77.82z M416.123,62.295v0.316V62.295z M417.391,59.919
			c0.104,0,0.158-0.052,0.158-0.159L417.391,59.919z"/>
		<path fill="#AC206D" d="M430.223,95.564c0.104-0.104,0.209-0.159,0.316-0.159c0.104,0,0.158,0.055,0.158,0.159
			c0,0.316-0.475,0.898-1.426,1.742c-0.635,0.317-1.322,0.74-2.061,1.268c-0.74,0.529-1.717,1.136-2.93,1.822
			c-1.215,0.686-2.721,1.45-4.516,2.297c-1.797,0.844-4.119,1.742-6.971,2.693h-0.158c-0.738,0-1.371-0.345-1.9-1.03
			c-0.527-0.688-0.793-1.294-0.793-1.821v-0.317l0.158-0.158c0-0.213-0.051-0.476-0.158-0.792c-0.104-0.317-0.104-0.476,0-0.476
			c0-0.106,0.027-0.134,0.08-0.079c0.055,0.052,0.078,0.024,0.078-0.079l-0.158-0.158c0-0.527,0.08-1.082,0.238-1.664
			c0.158-0.579,0.344-1.134,0.555-1.663l0.475,0.158c0-0.421,0.107-0.737,0.316-0.95h-0.158h-0.158l-0.158,0.316l-0.158,0.317
			l0.316-1.109v-0.158c0-0.104,0.027-0.184,0.08-0.237c0.053-0.053,0.078-0.184,0.078-0.396v-0.158c0.107,0,0.158-0.025,0.158-0.079
			c0-0.053,0.055-0.079,0.158-0.079v-0.159c0-0.104,0.027-0.183,0.08-0.237c0.055-0.052,0.078-0.184,0.078-0.396l0.318,0.476
			l0.475-0.95l-0.158,0.158l-0.158,0.158l0.158-0.475l0.158-0.159l-0.158-0.792c0.105-0.104,0.186-0.369,0.238-0.792
			c0.053-0.421,0.133-0.844,0.236-1.268c0.104-0.421,0.211-0.816,0.316-1.188c0.105-0.369,0.211-0.555,0.318-0.555h0.158v-0.158
			h-0.158h0.158l-0.158-0.159h0.158l0.158-0.158l-0.158-0.158l0.158-0.158h-0.158l0.158-0.159c0.104,0,0.158-0.104,0.158-0.316
			h-0.316v-0.158v0.158l0.158-0.158l-0.158-0.476v-0.316v0.158c0.104,0,0.131-0.025,0.078-0.079
			c-0.055-0.053-0.027-0.079,0.08-0.079h0.316h-0.158c0,0.106,0.211-0.317,0.633-1.268c0.422-0.951,0.951-2.06,1.586-3.327
			c0.633-1.268,1.268-2.455,1.9-3.564s1.109-1.822,1.426-2.139l0.633-0.317v-0.158l0.318-0.158c0-0.104,0.051-0.184,0.158-0.237
			c0.104-0.053,0.158-0.132,0.158-0.238l0.475-0.316l0.158-0.158v0.158l0.318-0.158h-0.16l0.951-0.317l0.316-0.316v0.158
			l0.635-0.476v0.159c-0.107,0-0.158,0.026-0.158,0.079c0,0.054-0.055,0.079-0.158,0.079v0.158v1.109
			c0,0.106,0.104,0.158,0.316,0.158l0.158,0.158h-0.158c0.42,0,0.633-0.104,0.633-0.316l-0.158-0.159h0.158l0.158,0.159
			c0.105-0.104,0.264-0.159,0.477-0.159l-0.158-0.158h0.316l-0.158-0.316v-0.159h-0.318h-0.158v0.159l-0.475,0.316l-0.158-0.316
			l-0.316,0.158l0.316-0.317l0.158-0.158l0.316-0.316l0.158-0.476c0.635-0.21,1.109-0.316,1.426-0.316l0.477-0.159h0.316
			l0.158-0.158l0.158,0.158l1.584-0.316l0.158,0.158v-0.158l1.426-0.158c0.527,0.106,1.135,0.213,1.822,0.316
			c0.686,0.106,1.135,0.213,1.348,0.317h-0.318l-0.475,0.158c0.527,0,0.924,0.027,1.188,0.079c0.264,0.055,0.5,0.079,0.713,0.079
			l0.16,0.158c0,0.213-0.396,0.451-1.189,0.713c-0.791,0.266-1.77,0.609-2.93,1.03c-1.164,0.423-2.404,0.95-3.723,1.584
			c-1.322,0.634-2.562,1.48-3.725,2.535c-0.529,0.634-0.977,1.373-1.346,2.218c-0.371,0.847-0.768,1.69-1.188,2.534l0.158-0.158
			l0.158,0.158c0.316-0.316,0.791-0.579,1.426-0.792c0.633-0.21,1.213-0.316,1.742-0.316l0.158,0.158v-0.158v0.158l0.158-0.158
			v0.158h-0.158l0.158-0.158l0.158-0.158l0.318-0.159l0.158,0.159v0.634h0.158v-0.159v-0.634l0.633-0.158v0.158v-0.158v0.158h0.477
			l0.316-0.158c0.527,0.213,0.844,0.476,0.951,0.792h-0.16l-0.158,0.159c0.211,0.213,0.369,0.316,0.477,0.316
			c0.104,0,0.158,0.106,0.158,0.316c0,0.74-0.898,1.612-2.693,2.614c-1.797,1.005-3.592,1.771-5.387,2.297
			c-0.633,0.213-1.188,0.768-1.664,1.664c-0.475,0.898-0.898,1.901-1.268,3.01c-0.371,1.109-0.688,2.218-0.949,3.327
			c-0.266,1.108-0.504,2.034-0.713,2.772c0.316-0.104,0.605-0.211,0.871-0.317c0.262-0.104,0.5-0.21,0.713-0.316h0.475l0.158-0.158
			h0.318c0-0.104,0.051-0.159,0.158-0.159c0.104,0,0.158-0.052,0.158-0.158l0.316-0.158h0.316l0.158-0.158l1.268-0.634
			c0.635-0.421,1.479-0.792,2.535-1.109h0.316l0.316-0.158l0.16-0.158l0.949-0.158l0.635-0.317c0.209,0,0.369-0.052,0.475-0.158
			h0.158l0.477,0.158l0.316-0.316c0.736,0,1.529-0.104,2.375-0.317h-0.316l-0.158,0.158l-0.316,0.476h0.158l-0.158,0.158
			c0.633,0,1.002-0.104,1.109-0.316l-0.158-0.476l0.316-0.158c0.209,0,0.316,0.055,0.316,0.158h-0.158l0.158,0.158l0.158-0.158
			v0.158c0.104,0,0.211-0.052,0.316-0.158l-0.316,0.476c0.104,0,0.053-0.104-0.158-0.317h-0.158c-0.107,0-0.158,0.055-0.158,0.159
			c0.104,0,0.158-0.053,0.158-0.159v0.159v0.158l-0.158,0.158c0.209-0.104,0.396-0.158,0.555-0.158S430.01,95.671,430.223,95.564z
			 M410.418,100.158c0-0.21,0.055-0.368,0.16-0.475h-0.318V100v0.316C410.26,100.21,410.314,100.158,410.418,100.158z
			 M410.578,99.366c0-0.104,0.025-0.21,0.078-0.316c0.055-0.104,0.08-0.263,0.08-0.476c-0.211,0-0.318,0.158-0.318,0.476h0.16
			V99.366z M411.686,95.881c0-0.104,0.027-0.183,0.08-0.237c0.055-0.052,0.078-0.132,0.078-0.238l-0.158,0.317V95.881z
			 M412.004,94.931c0-0.104,0.027-0.158,0.078-0.158c0.055,0,0.08-0.053,0.08-0.159l-0.158,0.159V94.931z M413.588,91.128
			l-0.477-1.742v2.693L413.588,91.128z M414.221,86.376v0.158l0.158-0.158H414.221z M414.537,87.484l-0.158-0.158v0.158l0.158,0.158
			V87.484z M414.537,102.218c0,0.104,0.053,0.158,0.158,0.158L414.537,102.218z M416.281,83.049l0.316,0.316h-0.158v0.159
			c0.104-0.104,0.158-0.184,0.158-0.238c0-0.052,0.051-0.131,0.158-0.237H416.281z M416.914,82.573v0.158
			c0-0.104,0.025-0.183,0.08-0.237c0.051-0.052,0.078-0.131,0.078-0.237c0,0.106-0.055,0.158-0.158,0.158V82.573z M417.707,81.465
			l-0.318-0.159v0.476L417.707,81.465z M418.023,80.831c0-0.104,0.025-0.159,0.078-0.159s0.08-0.052,0.08-0.158l-0.158,0.158V80.831
			z M419.133,78.771l0.158,0.158c0-0.104,0.023-0.158,0.078-0.158c0.053,0,0.08-0.052,0.08-0.158l-0.158,0.158H419.133z
			 M419.607,78.138l0.158,0.158l0.316-0.316h-0.316L419.607,78.138z M421.666,75.286l0.16,0.158l0.158,0.158v-0.475L421.666,75.286z
			 M422.775,75.761c-0.316,0.317-0.582,0.53-0.791,0.634c0.42-0.316,0.844-0.527,1.268-0.634H422.775z M422.301,97.465v0.159
			l0.316-0.159v-0.316l-0.316,0.158V97.465z M424.201,97.148V96.99l-0.158,0.158H424.201z M425.945,73.385l0.316,0.95
			c0.527-0.21,0.791-0.368,0.791-0.475l-0.316-0.158l-0.316,0.158L425.945,73.385z M426.262,83.365v-0.316l-0.158,0.316H426.262z
			 M427.688,72.909h-0.158v0.159l0.316-0.159H427.688z M427.846,73.543l0.158,0.317h-0.316c0.209,0,0.396-0.025,0.555-0.079
			c0.158-0.053,0.342-0.079,0.555-0.079l0.158-0.634l-0.951,0.475H427.846z M429.271,73.543c0.211,0,0.369-0.052,0.475-0.158
			l-0.158-0.316L429.271,73.543z"/>
		<path fill="#AC206D" d="M527.617,67.624c0.594,0.15,0.895,0.373,0.895,0.67c-0.301,0-1.676,0.15-4.131,0.446
			c-2.457,0.301-5.771,1.044-9.938,2.233c0.146,0.746,0.225,1.862,0.225,3.349c-0.301,4.466-2.01,9.193-5.137,14.179
			c-3.125,4.989-7.256,9.64-12.391,13.955c-5.137,4.315-10.98,8-17.527,11.053c-6.553,3.049-13.252,4.8-20.096,5.247
			c-1.043,0-2.234-0.112-3.572-0.335c-1.34-0.224-2.645-0.635-3.908-1.229c-1.266-0.597-2.307-1.451-3.127-2.567
			c-0.814-1.116-1.227-2.567-1.227-4.354c0-0.446,0.076-0.819,0.223-1.116c-0.146-0.446-0.223-1.193-0.223-2.232
			c0.15-2.829,1.193-5.509,3.125-8.038c1.934-2.529,4.277-4.912,7.033-7.146c2.754-2.232,5.693-4.242,8.82-6.028
			c3.125-1.786,5.951-3.35,8.484-4.688v0.223v-0.223c0.297-0.146,0.744-0.297,1.34-0.447c0.594-0.146,0.893-0.369,0.893-0.67
			l0.225,0.224c0.146-0.146,0.52-0.37,1.115-0.67h-0.223c0.146,0,0.369-0.073,0.67-0.224l0.67-0.669l2.455-1.117v0.224l0.67-0.446
			l4.242-1.786c0.447,0,0.67-0.146,0.67-0.447l1.787-0.893v0.223c-0.746,0.301-1.117,0.523-1.117,0.67l-0.445,0.224h0.223
			l-0.447,1.34c0.297-0.146,0.594-0.297,0.895-0.446c0.295-0.147,0.592-0.297,0.893-0.447l-1.34,0.67l1.562-1.116l2.01-1.116
			l-0.447-0.224l6.252-2.456c0.146,0,0.297-0.073,0.447-0.224l1.787-0.67v0.224l0.445-0.224c0.146,0,0.225-0.034,0.225-0.111
			c0-0.073,0.146-0.185,0.445-0.335l4.242-0.893l-0.223,0.223l2.68-0.893c-1.49-2.976-3.572-5.136-6.252-6.476
			c-2.68-1.339-5.285-2.083-7.814-2.232c-2.68-0.147-5.287,0.188-7.816,1.004c-2.531,0.82-4.766,1.787-6.697,2.903
			c-1.938,1.116-3.611,2.198-5.023,3.238c-1.418,1.042-2.346,1.712-2.791,2.009c-1.938,1.193-3.053,2.01-3.35,2.456
			c-0.301,0.446-0.82,1.043-1.562,1.786c-1.641,3.426-3.053,6.141-4.242,8.15c-1.193,2.009-2.088,3.014-2.68,3.014v-0.223
			c0-0.594,0.146-1.117,0.445-1.563v-0.67v-2.01v0.447l0.225-0.67c-0.15,0-0.225-0.146-0.225-0.447v-0.446
			c0-0.446,0.111-0.893,0.336-1.34c0.223-0.446,0.48-0.67,0.781-0.67h0.67v-0.223l-0.223-0.67c-0.15-0.146-0.301-0.224-0.447-0.224
			v-0.223c0.146-0.297,0.223-0.743,0.223-1.34l0.225,0.223v0.447l0.445,0.67c0.146-0.297,0.225-0.481,0.225-0.559
			c0-0.073,0.072-0.258,0.223-0.559l-0.223-0.67l0.223-0.223c0-0.297-0.15-0.52-0.447-0.67l0.225-0.894l0.223,0.224l0.223,0.224
			l0.447,0.223v-0.223c0.146-0.146,0.223-0.37,0.223-0.67V71.42c0.146,0,0.223-0.146,0.223-0.446l-0.67-0.224l-0.223,0.224h-0.223
			l0.223-0.447l0.223,0.224l-0.223-0.224l0.223-0.223h-0.223V70.08v-0.223c0.297-0.297,0.482-0.705,0.559-1.229
			c0.072-0.52,0.258-1.078,0.559-1.674l0.445,0.223l-0.223,0.224l-0.223,0.223c-0.15,0.15-0.225,0.3-0.225,0.446l0.225,0.67
			c0.146,0.15,0.334,0.15,0.559,0c0.223-0.146,0.334-0.369,0.334-0.67l-0.223-0.893h0.445c0-0.297,0.035-0.481,0.113-0.559
			c0.072-0.073,0.111-0.185,0.111-0.334v-0.224l-0.447-0.223l-0.223,0.223l-0.447,0.224c0-0.146,0.186-0.816,0.559-2.01
			c0.369-1.189,0.705-2.379,1.004-3.572l0.225-0.224c0-0.743,0.146-1.413,0.445-2.009c0.297-0.593,0.52-1.19,0.67-1.786l0.447,0.223
			l0.223-0.447l-0.223,0.893l0.447-0.446l0.223-0.223V56.46l-0.447-0.446l-0.223,0.446c0-0.296-0.076-0.446-0.223-0.446
			c0.295-0.297,0.52-0.816,0.67-1.563c0.146-0.743,0.223-1.263,0.223-1.563v0.223c0.297,0,0.445-0.296,0.445-0.893h-0.223
			c0.297-0.296,0.594-1.005,0.893-2.121c0.297-1.117,0.447-1.821,0.447-2.121c0.146,0.15,0.223,0.3,0.223,0.446
			c0-0.446,0.297-1.151,0.895-2.121c0.592-0.966,1.189-1.898,1.785-2.791c0.594-0.893,1.152-1.748,1.676-2.568
			c0.52-0.816,0.781-1.375,0.781-1.674c0.297-0.297,0.742-0.705,1.34-1.228c0.592-0.52,1.115-1.005,1.562-1.452v0.224
			c0.146,0,0.223-0.112,0.223-0.335c0-0.224,0.146-0.258,0.447-0.112h-0.223c0.592-0.296,1.227-0.631,1.896-1.005
			c0.67-0.37,1.375-0.631,2.121-0.781v0.446c0.146,0,0.225-0.035,0.225-0.111c0-0.073,0.072-0.112,0.223-0.112l-0.447-0.446h0.67
			c0.447,0,0.67,0.077,0.67,0.223l0.225-0.223h0.223c3.422,0.15,5.805,1.155,7.145,3.014c1.34,1.863,1.934,3.834,1.787,5.917
			c-0.15,2.679-0.859,5.062-2.121,7.145c-1.268,2.086-2.496,3.873-3.686,5.358c1.637-0.593,3.574-0.893,5.807-0.893l-0.447,0.447
			c0.146-0.146,0.816-0.223,2.01-0.223c1.486,0,3.125,0.188,4.912,0.558c1.787,0.373,3.572,1.005,5.359,1.898
			c1.785,0.893,3.461,2.121,5.023,3.684s2.791,3.538,3.684,5.917c1.486-0.297,3.16-0.481,5.023-0.559
			c1.859-0.073,3.461-0.111,4.801-0.111c0.594,0,1.041,0.077,1.34,0.223c0.297,0.15,0.594,0.225,0.893,0.225H523.6l-3.127,0.893
			c1.637-0.297,3.049-0.408,4.242-0.335C525.904,67.589,526.871,67.624,527.617,67.624z M451.701,100.894
			c0.297-0.301,0.559-0.636,0.783-1.005c0.223-0.37,0.48-0.705,0.781-1.005v0.223v-0.223l-1.117,0.223l0.223,0.894l-0.445,0.224
			c-0.15,0.146-0.225,0.296-0.225,0.446V100.894z M474.029,109.154c0.297,0,0.744-0.149,1.34-0.446l-1.115-0.224l1.115-0.446
			c0.895-0.3,1.264-0.446,1.117-0.446v0.223c0.146,0,0.297-0.076,0.447-0.223l0.223-0.224c0.146,0,0.223-0.038,0.223-0.111
			c0-0.077,0.074-0.112,0.225-0.112l0.445-0.223h0.225l0.893-0.67h-0.223h0.893c2.826-1.937,5.805-4.169,8.932-6.698
			c3.125-2.529,6.027-5.247,8.707-8.15c2.68-2.902,4.986-5.917,6.922-9.043c1.934-3.126,3.127-6.325,3.572-9.601
			c-4.318,1.489-9.008,3.275-14.066,5.358c-5.062,2.087-10.348,4.689-15.854,7.815c-2.383,1.34-4.988,2.979-7.814,4.912
			c-2.83,1.936-5.508,4.019-8.037,6.252c-2.533,2.232-4.654,4.5-6.365,6.81c-1.713,2.307-2.566,4.577-2.566,6.811
			c0,1.039,1.486,1.709,4.465,2.009c1.189-0.3,2.457-0.484,3.797-0.558c1.338-0.077,2.602-0.188,3.795-0.335H465.1
			c-0.15,0-0.225,0.073-0.225,0.224c0.297,0,0.594-0.077,0.895-0.224c0.295-0.15,0.592-0.224,0.893-0.224
			c0-0.149-0.076-0.223-0.223-0.223c1.34-0.301,2.641-0.67,3.906-1.117c1.264-0.446,2.492-1.043,3.684-1.786V109.154z
			 M453.936,98.214c0.592-0.894,1.115-1.486,1.562-1.786h-0.223l-0.67,0.446l-0.225,0.67L453.936,98.214z M456.838,95.088
			c0.297-0.297,0.559-0.481,0.781-0.559c0.223-0.073,0.48-0.258,0.781-0.558l-0.223-0.447l-1.117,1.34L456.838,95.088z
			 M462.643,73.206l0.223,0.224v-0.224H462.643z M462.643,90.176l0.223,0.223v-0.223H462.643z M466.662,58.023
			c0,0.15,0.072,0.3,0.223,0.447v-0.223v0.223l0.447-0.447l-0.67-0.223V58.023z M468.895,53.334c0.146-0.146,0.223-0.37,0.223-0.669
			l-0.223-0.224l-0.223-0.223l-0.225,0.223v0.447l-0.445,0.446H468.895z M469.787,51.325c0-0.146,0.035-0.258,0.113-0.335
			c0.072-0.073,0.111-0.185,0.111-0.335l-0.447,0.447L469.787,51.325z M470.234,50.208c0-0.296,0.146-0.743,0.447-1.339v-0.223
			v0.223c0.146-0.297,0.223-0.558,0.223-0.782c0-0.223,0.074-0.481,0.223-0.781l-0.223,0.223c0,0.15-0.076,0.3-0.223,0.447h0.223
			h-0.893v0.893l0.223,0.67v0.223V50.208z M486.533,41.724c0-0.893-0.373-1.34-1.115-1.34c-1.641,0-3.127,0.782-4.467,2.345
			c-1.338,1.563-2.605,3.499-3.795,5.805c-1.193,2.31-2.311,4.766-3.35,7.368c-1.043,2.606-2.01,4.951-2.902,7.033
			c-0.301,0.3-0.447,0.523-0.447,0.67c0.447-0.296,0.855-0.631,1.229-1.004c0.369-0.37,0.781-0.705,1.229-1.005v0.223
			c0-0.146,0.035-0.185,0.111-0.112c0.074,0.077,0.111,0.039,0.111-0.111h-0.223c0-0.146,0.186-0.408,0.559-0.782
			c0.369-0.37,0.631-0.705,0.781-1.004h0.223c0-0.297,0.111-0.447,0.336-0.447c0.223,0,0.48-0.146,0.781-0.447l0.223,0.224
			c0-0.297,0.559-1.005,1.674-2.121c1.117-1.117,1.822-2.122,2.123-3.015h0.223c0.297-0.593,0.705-1.116,1.229-1.563
			c0.52-0.446,0.928-0.966,1.227-1.563l0.225,0.447c0-0.146,0.035-0.258,0.111-0.335c0.072-0.073,0.111-0.185,0.111-0.335
			l-0.223-0.223c0.295-0.146,0.592-0.631,0.893-1.452c0.297-0.816,0.67-1.228,1.117-1.228l0.223-0.669l0.223,0.446
			c0-0.146,0.225-0.446,0.67-0.893h-0.223l0.223-0.223h-0.445c0-0.593,0.223-1.04,0.668-1.34c-0.148,0-0.223-0.073-0.223-0.223
			c0.297-0.593,0.447-1.117,0.447-1.563c0.146,0,0.223,0.077,0.223,0.223c0-0.446,0.035-0.781,0.111-1.005
			C486.496,42.282,486.533,42.023,486.533,41.724z M470.457,46.636v0.223c0.146,0,0.225-0.073,0.225-0.223H470.457z M470.904,46.859
			v0.224l-0.223-0.224c0,0.15,0.072,0.224,0.223,0.224V46.859z M471.352,63.382c0.146-0.146,0.295-0.37,0.445-0.67L471.352,63.382z
			 M472.691,43.063l-0.225,0.223C472.467,43.14,472.541,43.063,472.691,43.063z M472.914,43.287c-0.15,0-0.223,0.077-0.223,0.223
			h0.223l-0.223,0.893l0.223-0.223c0-0.146,0.035-0.258,0.111-0.335c0.074-0.073,0.111-0.185,0.111-0.335l-0.223-0.446V43.287z
			 M473.361,61.819l0.223-0.223h-0.223V61.819z M474.254,41.277c-0.15,0.15-0.225,0.374-0.225,0.67L474.254,41.277z M475.369,40.161
			c-0.148,0-0.223,0.077-0.223,0.223h0.223V40.161z M475.816,39.491v0.223l0.447-0.223H475.816z M476.486,39.268l0.223-0.224h-0.223
			V39.268z M481.846,79.012v0.223l1.34-0.669l-0.225-0.224L481.846,79.012z M482.516,105.136l0.223-0.224
			C482.588,104.912,482.516,104.985,482.516,105.136z M486.758,42.617v-0.223V42.17V42.617z M486.98,75.439l-0.223,0.446
			C486.758,75.739,486.83,75.589,486.98,75.439z M491.67,74.992c0.297-0.146,0.592-0.258,0.893-0.335
			c0.297-0.073,0.594-0.185,0.893-0.335c-0.299,0-0.484,0.039-0.557,0.112c-0.078,0.076-0.189,0.111-0.336,0.111L491.67,74.992
			h-0.225H491.67z M495.689,72.536c0.146,0,0.295-0.073,0.445-0.223h-0.223L495.689,72.536z M498.145,71.866l0.447,0.67
			c0.592-0.296,1.15-0.481,1.674-0.558c0.52-0.073,1.078-0.259,1.676-0.559v-0.224l-1.34,0.447l-0.225,0.223h-0.445v0.224
			L498.145,71.866z M503.504,70.974v0.223l0.67-0.446L503.504,70.974z M504.844,69.634c-0.447,0-0.748,0.077-0.895,0.224
			c0.146,0,0.297-0.035,0.447-0.112C504.543,69.672,504.693,69.634,504.844,69.634z M503.949,85.486
			c0.297-0.593,0.744-1.339,1.34-2.232l0.225-1.116l-0.895,1.562l-0.223,0.447L503.949,85.486z M504.844,70.526l0.223,0.224
			c0.893-0.446,1.859-0.67,2.902-0.67v-0.893l-1.562,0.67c-0.15,0.149-0.301,0.223-0.447,0.223c-0.15,0-0.299,0.077-0.445,0.224
			L504.844,70.526z M518.688,67.848h1.115h0.447h-0.67l-0.67-0.224C518.91,67.774,518.834,67.848,518.688,67.848z"/>
		<path fill="#AC206D" d="M544.139,81.244c-1.938,5.659-3.684,10.533-5.248,14.625c-1.562,4.096-2.791,7.033-3.684,8.819
			c-1.193,2.977-2.049,3.981-2.568,3.015c-0.523-0.97-0.857-2.421-1.004-4.354c0.146-0.447,0.445-1.082,0.893-1.898
			c0.447-0.819,0.744-1.305,0.893-1.451c0-0.146-0.076-0.224-0.223-0.224h0.223l-0.223-0.223c0-0.146,0.074-0.259,0.223-0.335
			c0.146-0.073,0.225-0.259,0.225-0.559v-0.223c-2.086,1.786-4.281,3.46-6.588,5.023c-2.309,1.562-4.727,2.345-7.256,2.345
			c-2.83,0.146-4.801-0.709-5.918-2.568c-1.115-1.862-1.674-3.684-1.674-5.47c-0.146-0.743-0.146-1.563,0-2.456
			c0-0.594-0.074-0.967-0.223-1.117c0.299-3.422,0.857-6.437,1.674-9.043c0.816-2.603,2.268-5.32,4.354-8.149
			c0-0.297,0.035-0.446,0.111-0.446c0.074,0,0.113-0.073,0.113-0.224v-0.223l0.445-0.67l0.225,0.223v-0.223
			c0-0.146,0.033-0.259,0.111-0.335c0.072-0.073,0.111-0.186,0.111-0.335l0.447-0.67l0.445-0.447l1.787-1.562
			c0.297-0.743,0.816-1.34,1.562-1.786c0.742-0.446,1.412-1.04,2.01-1.786l0.223-0.224l0.67-0.446v0.223l0.223-0.223v-0.224
			l0.225-0.223l0.223,0.223l1.117-0.894l1.115-0.893c0.146,0,0.26-0.035,0.336-0.112c0.072-0.073,0.184-0.111,0.334-0.111v-0.223
			h0.225h0.893l0.447-0.447c0.742-0.296,1.451-0.593,2.121-0.893c0.67-0.296,1.301-0.447,1.896-0.447l-0.445,0.224h-0.447
			l-0.223,0.446c0.297,0,0.557-0.035,0.781-0.112c0.223-0.073,0.48-0.111,0.781-0.111v-0.447h0.447
			c0.146-0.146,0.295-0.223,0.445-0.223v0.223l-0.223,0.224h0.447c-0.447,0-0.67,0.077-0.67,0.223h0.445h-0.223
			c0.146,0,0.408-0.073,0.781-0.223c0.369-0.147,0.631-0.224,0.781-0.224h0.223c0,0.3-0.223,0.523-0.67,0.67l0.447-0.67l1.117,0.224
			c0.592,0,1.635,1.416,3.125,4.242l1.34,0.224l0.223-0.446l0.225-0.224c0.297-0.593,0.445-1.189,0.445-1.786h0.225l-0.225,0.223
			l0.67,0.224v-0.67l-0.67-0.223c0-0.147,0.074-0.297,0.225-0.447l0.223,0.223h0.223l-0.223-0.223c0.146,0,0.223-0.073,0.223-0.223
			l0.447,0.446h-0.223h-0.447c0,0.15,0.074,0.224,0.223,0.224v-0.224c0.297,0,0.594,0.224,0.895,0.67
			c0.592,0.893,0.965,2.383,1.115,4.466c0,1.193-0.334,2.645-1.004,4.354C545.59,76.37,544.881,78.565,544.139,81.244z
			 M515.334,84.37l0.447-0.893V83.03l-0.447,0.67V84.37z M518.684,98.884c0,0.446,0.146,0.781,0.447,1.005
			c0.297,0.223,0.52,0.408,0.67,0.558c0.297,0,0.559-0.038,0.781-0.111c0.223-0.077,0.482-0.111,0.781-0.111
			c0.146,0,0.223,0.073,0.223,0.223l0.225-0.223h0.223l0.67-0.224l0.223-0.224c0.297-0.296,0.744-0.52,1.34-0.67
			c0.594-0.146,0.895-0.52,0.895-1.116c2.529-1.636,4.465-3.384,5.805-5.247c1.34-1.859,2.602-4.204,3.795-7.033l0.67-0.67v-0.446
			l0.225-0.446v-0.224V83.7v-0.223l0.223-0.67l0.223-0.447v-0.446l0.67-1.786v-0.224v-0.223l0.225-0.67v0.67l0.893,0.893
			c0-0.446,0.072-0.67,0.223-0.67l-0.223-0.67l0.223-0.223l-0.447-0.894v0.224l-0.223-0.67l0.223-2.456l0.225-0.894l0.223-0.446
			c-0.15,0-0.223-0.073-0.223-0.224l0.223-0.223l0.223-1.563l0.225-1.34v-0.669c0-0.447-0.225-1.19-0.67-2.233
			c-0.447-1.04-0.971-1.563-1.562-1.563c-0.301,0-0.932,0.188-1.898,0.558c-0.971,0.373-2.16,1.267-3.572,2.68
			c-1.416,1.416-3.016,3.572-4.801,6.476c-1.787,2.902-3.723,6.96-5.805,12.168c-0.447,1.641-0.82,3.461-1.117,5.471
			C518.83,95.423,518.684,97.247,518.684,98.884z M525.383,69.41v0.224l0.447-0.446v-0.224l-0.225,0.446H525.383z M529.625,94.418
			l-0.447-0.224l0.225,0.67h-0.447v0.224L529.625,94.418z M530.742,93.524l-0.447,0.224l-0.223,0.446L530.742,93.524z
			 M531.635,92.632l0.445-0.446l-0.223-0.224L531.635,92.632z M532.975,91.516h0.223v-0.447h0.223L532.975,91.516z M535.207,88.166
			c0.146-0.297,0.223-0.52,0.223-0.67l-0.223,0.224V88.166z M536.324,86.156l-0.447,0.67h0.223c0-0.146,0.074-0.296,0.225-0.446
			V86.156z M536.994,82.584l-0.225,0.446h0.225V82.584z M537.887,76.109c-0.15,0-0.225,0.076-0.225,0.223h0.225V76.109z
			 M538.557,72.09h-0.225c0,0.15,0.074,0.224,0.225,0.224V72.09z M539.227,75.216c0-0.297,0.146-0.743,0.445-1.34l-0.223-0.224
			h-0.223V74.1l-0.225,0.446l-0.67,0.446L539.227,75.216z M538.557,78.565v-0.224l0.223-0.446
			C538.629,78.045,538.557,78.269,538.557,78.565z M540.342,68.74l-0.445-0.893c0.146,0.149,0.223,0.446,0.223,0.893
			c-0.15,0.15-0.223,0.301-0.223,0.447l-0.67,0.223l0.67,0.447c0,0.149,0.072,0.223,0.223,0.223h0.223
			c-0.148,0.446-0.188,0.781-0.111,1.005c0.074,0.224,0.035,0.485-0.111,0.781h-0.223l0.223-0.223c0-0.146-0.076-0.224-0.223-0.224
			v-0.446l-0.67-0.894v1.34v0.894l0.445-0.224v0.446c0,0.3,0.074,0.523,0.225,0.67C540.488,71.866,540.639,70.38,540.342,68.74z"/>
		<path fill="#AC206D" d="M594.377,53.334c0,0.894-1.863,1.563-5.582,2.01c0,0.3-1.006,0.558-3.014,0.781
			c-2.01,0.224-4.467,0.447-7.369,0.67c-2.902,0.224-5.994,0.412-9.266,0.558c-3.277,0.15-6.18,0.3-8.709,0.447v0.893
			c0,1.193-0.223,2.979-0.67,5.359c-0.445,2.383-1.416,5.659-2.902,9.824c-1.193,3.572-2.533,7.368-4.02,11.388
			c-1.488,4.019-2.902,7.703-4.242,11.052c-1.34,3.35-2.533,6.141-3.572,8.373c-1.039,2.233-1.637,3.35-1.785,3.35
			c-0.447,0-0.67-1.193-0.67-3.572c-0.146,0.296-0.297,0.558-0.447,0.781c-0.146,0.224-0.223,0.408-0.223,0.559v-0.447l-0.225-0.223
			l-0.223-0.894l0.223,0.224v-0.224c-0.146,0-0.297-0.076-0.445-0.223h0.223c0-0.15-0.035-0.224-0.111-0.224
			c-0.074,0-0.111-0.077-0.111-0.224l0.223-0.893h0.223l0.895,0.223l-0.895-0.893c0-0.447,0.078-0.67,0.225-0.67l0.223,0.446
			l0.67,0.446l0.223-0.223l-0.223-0.447l-0.223-0.446l-0.225-0.223l-0.223-0.224h-0.223l0.445-0.446
			c0,0.146,0.078,0.223,0.225,0.223l0.445,0.224v-0.446l0.225-0.224v-0.224l-0.67-0.223l-0.447,0.223V99.33l0.223,0.224h0.225
			c-0.146,0-0.225-0.15-0.225-0.447v-0.223v-0.67h0.225l-0.225-0.224c0-0.146,0.039-0.223,0.111-0.223
			c0.078,0,0.113-0.073,0.113-0.224l0.67,0.224h-0.225c-0.297,0-0.445,0.076-0.445,0.223l0.223,0.224l0.223,0.224l0.447,0.223
			v-0.446l-0.223-0.446h0.445V97.32l-0.67-0.223l-0.223-0.224c0-0.446,0.188-1.116,0.559-2.01c0.373-0.893,0.559-1.786,0.559-2.679
			h0.445v0.446l0.447-0.224v0.224v-0.446l-0.225-0.224l-0.223,0.224l-0.223-0.224c0-0.146,0.111-0.408,0.334-0.781
			c0.225-0.37,0.336-0.705,0.336-1.005l-0.225-0.224c0.301-0.296,0.447-0.743,0.447-1.34c0-0.593,0.15-0.816,0.447-0.67
			l-0.225-0.223c0-0.297,0.297-1.005,0.895-2.121c0.592-1.116,0.893-1.821,0.893-2.121l-0.223-0.224
			c0.297-0.297,0.445-0.52,0.445-0.67V82.36c0.297-1.636,0.895-3.684,1.787-6.14s2.232-5.841,4.02-10.16v-0.223l0.445-1.116
			l-0.223-0.224c0.297-0.743,0.67-1.486,1.117-2.232v-0.224l0.223-0.223c0-0.146-0.076-0.223-0.223-0.223h0.223l0.447-0.893
			l0.445-0.67l0.223-0.447l0.447-0.223h-0.223c0.297-0.296,0.48-0.558,0.559-0.782c0.072-0.223,0.184-0.408,0.334-0.558
			c-1.34,0-2.68,0.039-4.02,0.112c-1.34,0.077-2.68,0.112-4.018,0.112c-5.807,0-10.418-0.185-13.844-0.559
			c-3.424-0.37-6.029-0.816-7.814-1.339c-1.787-0.52-2.939-1.005-3.461-1.452c-0.521-0.446-0.783-0.816-0.783-1.116
			c0-0.146,0.15-0.223,0.447-0.223c-0.297-0.146-0.52-0.224-0.67-0.224c-0.146,0-0.297-0.073-0.447-0.223h0.447l0.893-0.446h-0.223
			h0.223l0.225-0.447v0.223c0.15,0,0.223-0.035,0.223-0.111c0-0.073,0.15-0.112,0.447-0.112c0.299,0.15,0.523,0.223,0.67,0.223
			c0.148,0,0.373,0.077,0.67,0.224h0.223h1.117h0.668c0.301,0,0.447,0.077,0.447,0.223c0.301,0,0.523-0.035,0.67-0.112
			c0.15-0.073,0.373-0.111,0.67-0.111c0.301,0,0.523,0.038,0.67,0.111c0.15,0.077,0.373,0.112,0.67,0.112l-0.223,0.223h0.223
			c0-0.146,0.076-0.223,0.223-0.223c0.15,0,0.225-0.073,0.225-0.223c0.148,0.15,0.373,0.223,0.67,0.223
			c0.299,0,0.521-0.073,0.67-0.223v0.223c0.148-0.146,0.299-0.223,0.445-0.223c0.447,0,0.82,0.15,1.117,0.446l0.893-0.446
			l0.893,0.223c0.301-0.146,0.67-0.223,1.117-0.223h1.34h0.67v0.223c0.299-0.146,0.746-0.223,1.34-0.223h1.34h0.67l-0.225,0.223
			c0.447,0,0.709-0.035,0.781-0.112c0.078-0.073,0.262-0.111,0.559-0.111h0.225c0.148,0,0.223-0.035,0.223-0.112
			c0-0.073,0.076-0.112,0.223-0.112c0.447,0.15,0.893,0.224,1.34,0.224h-0.223h0.223h0.447l-0.225,0.446h0.895l0.223-0.223
			l-0.223-0.447c0.592,0,1.039,0.077,1.34,0.224c0-0.147,0.072-0.224,0.223-0.224c0.146,0,0.297,0.039,0.447,0.112
			c0.146,0.077,0.295,0.112,0.445,0.112c0.146,0,0.225-0.035,0.225-0.112c0-0.073,0.072-0.112,0.223-0.112l-0.223,0.224h0.223
			c0.146-0.147,0.369-0.224,0.67-0.224h1.34h2.68v0.447h1.338v-0.447h-0.445l-0.223,0.224l-0.225-0.224h1.34h0.223h0.67
			c0.297,0,0.447-0.073,0.447-0.223c0.297,0.3,0.447,0.374,0.447,0.223h0.223h0.893l-0.223,0.224h2.232l0.223-0.224
			c0.594,0,1.152-0.035,1.676-0.111c0.52-0.073,1.078-0.112,1.674-0.112c0.146,0,0.297,0.077,0.447,0.223h0.223h0.225h0.445h0.225
			c1.484,0,2.455,0,2.902,0c0.445,0,0.854,0.039,1.227,0.112c0.371,0.077,0.816,0.112,1.34,0.112c0.521,0,1.598,0,3.238,0
			l0.447,0.223h0.445h0.447c0-0.146,0.072-0.185,0.223-0.112c0.146,0.077,0.225,0.039,0.225-0.111h0.67h0.445l1.787-0.224v0.224
			l0.893-0.447v0.223c-0.301,0-0.447,0.077-0.447,0.224h-0.223v0.446h1.34v-0.446l0.447-0.447h2.008h0.447h0.447h0.223l0.223,0.223
			l1.34-0.223v0.223l0.895-0.223v0.223l0.223-0.223h1.785c0.744,0.15,1.6,0.262,2.568,0.335c0.967,0.077,1.598,0.188,1.898,0.335
			l-0.67,0.223v-0.223v0.223c0.447,0,0.742,0.039,0.893,0.112C594.076,53.299,594.227,53.334,594.377,53.334z M527.17,53.111v-0.446
			v0.223V53.111z M528.062,52.888l0.223,0.223v-0.223H528.062z M544.584,92.855h-0.223l-0.223,0.223l0.223,0.224v-0.224l0.223,0.224
			v-0.224V92.855z M545.254,90.176h-0.445l0.223,0.223l-0.447,0.224h0.67V90.176z M545.701,88.39l0.223-0.447h-0.445h0.223V88.39z
			 M550.166,52.888h1.117l-0.67-0.223C550.463,52.665,550.312,52.741,550.166,52.888z M552.623,52.888
			c0.146-0.146,0.111-0.223-0.111-0.223s-0.336-0.073-0.336-0.224c-0.148,0-0.223,0.077-0.223,0.224l-0.447,0.223H552.623z
			 M557.535,58.47c0.146-0.146,0.258-0.223,0.336-0.223c0.072,0,0.184-0.073,0.334-0.224l-0.223-0.223
			c-0.447,0-0.748,0.077-0.895,0.223L557.535,58.47z M558.428,57.8c-0.148,0-0.223,0.077-0.223,0.223L558.428,57.8z M563.787,52.665
			v-0.224l-0.447,0.224H563.787z M583.213,52.441c-0.15,0-0.223-0.073-0.223-0.223L583.213,52.441z M585.893,52.441v0.224
			l0.223-0.224H585.893z"/>
		<path fill="#AC206D" d="M584.773,73.206c0,2.087-0.262,4.951-0.783,8.597c-0.521,3.649-1.562,7.257-3.125,10.829
			s-3.762,6.698-6.586,9.378c-2.83,2.679-6.477,4.019-10.941,4.019c-2.086,0-3.762-0.411-5.023-1.228
			c-1.268-0.82-2.234-1.752-2.904-2.791c-0.668-1.043-1.115-2.121-1.338-3.238c-0.225-1.116-0.336-1.971-0.336-2.567
			c0-1.636,0.223-3.349,0.67-5.136c0.447-1.786,0.893-3.349,1.34-4.688l1.117-1.116V85.04l0.223-0.224v-0.223V84.37v-0.446
			l0.67-0.894l0.223-0.223l1.117-2.68h0.223v-0.67v0.224c0.297-1.04,1.117-2.233,2.457-3.572h0.445h0.447l0.223,0.223l0.225-0.223
			l-0.225-0.894v0.224v-0.224c0-0.146-0.037-0.224-0.111-0.224c-0.076,0-0.111-0.073-0.111-0.223l-0.223-0.447
			c0.295-0.146,0.445-0.335,0.445-0.558c0-0.224,0.074-0.408,0.225-0.559h0.223l-0.223,0.224c-0.15,0-0.225,0.223-0.225,0.67
			l0.447,1.116l0.893-1.116l0.447-0.894l-0.447-0.446c0-0.297,0.074-0.481,0.223-0.559c0.146-0.073,0.225-0.185,0.225-0.335h-0.447
			l0.447-0.893l0.223,0.223l0.223,0.447v0.223l1.117-0.893l1.34-0.224l-1.117-0.446h-0.223h-0.447l0.447-0.224v0.224
			c0,0.149,0.223,0.076,0.67-0.224h-0.447c0-0.296,0.225-0.67,0.67-1.116c0.447-0.446,0.816-0.894,1.117-1.34l0.447,0.224
			c0-0.446,0.295-0.816,0.893-1.117l0.223,0.225l-0.223,0.223l-0.447-0.223l-0.223,0.223c-0.15,0-0.223,0.076-0.223,0.224v0.223
			l0.223,0.224l-0.223,0.446v0.224l0.223-0.224l0.893-0.446h-0.223l0.445-0.893v0.223h0.225h0.445h-0.445v0.67l-0.225,0.67
			c0.146-0.146,0.408-0.335,0.783-0.559c0.369-0.224,0.631-0.481,0.781-0.781l0.445-0.447l0.225-0.223v-0.223v-0.224l-0.67-0.893
			h0.445h0.225c0.742-0.296,1.227-0.52,1.451-0.67c0.223-0.146,0.705-0.223,1.451-0.223h1.115h2.457c1.486,0,2.602,0.374,3.35,1.117
			c0.742,0.747,1.301,1.601,1.674,2.567c0.369,0.97,0.631,1.937,0.781,2.902C584.695,71.832,584.773,72.613,584.773,73.206z
			 M559.096,83.478c0.146-0.297,0.258-0.705,0.334-1.229c0.074-0.52,0.258-0.928,0.559-1.228v-0.224v-1.563l-0.893,2.01h0.223
			l-0.223,0.447v0.669V83.478z M569.812,96.874c1.34-1.34,2.529-3.015,3.572-5.023c1.041-2.01,1.934-4.166,2.68-6.476
			c0.744-2.306,1.34-4.65,1.787-7.033c0.445-2.38,0.67-4.466,0.67-6.252c0-0.743-0.078-1.486-0.225-2.232
			c-0.15-0.743-0.596-1.413-1.34-2.01c0.297,0,0.035,0.335-0.781,1.005c-0.82,0.67-1.936,1.824-3.35,3.461
			c-1.416,1.64-2.979,3.834-4.688,6.587c-1.713,2.756-3.238,6.14-4.578,10.159c-0.746,1.339-1.305,3.237-1.674,5.693
			c-0.373,2.456-0.336,3.907,0.111,4.354c0.594,0.301,1.189,0.447,1.785,0.447c0.297,0,0.744,0,1.34,0
			c0.594,0,0.967-0.073,1.117-0.224h-0.223l-0.225,0.224L564.9,99.33c0.447,0,1.264-0.185,2.457-0.559
			c1.189-0.369,1.932-0.928,2.232-1.674l0.223-0.447V96.874z M564.23,76.109c-0.15,0-0.223,0.076-0.223,0.223L564.23,76.109z
			 M567.58,69.41v-0.893l-0.67,0.893l0.67,0.224V69.41z M574.279,64.945l-0.225,0.223h-0.223h0.223L574.279,64.945z"/>
		<path fill="#AC206D" d="M623.398,58.247c0.594,0,0.893,0.893,0.893,2.679c0,1.193-0.262,2.979-0.781,5.359
			c-0.523,2.382-1.602,5.435-3.238,9.155c-1.34,3.126-2.756,6.513-4.242,10.159c-1.488,3.649-2.902,6.998-4.242,10.048
			c-1.34,3.052-2.533,5.582-3.572,7.591c-1.043,2.01-1.785,3.015-2.232,3.015c-0.15,0-0.223-0.224-0.223-0.67
			c0-0.3,0.033-0.67,0.111-1.116c0.072-0.446,0.184-1.043,0.334-1.786c-0.596,0.743-1.115,1.263-1.562,1.562v-0.223l0.223-0.447
			l-0.223-0.223v-0.67l0.223,0.223v-0.223c0-0.15-0.037-0.224-0.111-0.224c-0.076,0-0.111-0.077-0.111-0.224h0.223
			c0-0.149-0.037-0.223-0.111-0.223c-0.076,0-0.111-0.077-0.111-0.224l0.447-0.67h0.223l0.893,0.224l-0.445-0.67l-0.447-0.446
			l0.223-0.224v-0.224h0.225v0.447l0.893,0.67v-0.67l-0.223-0.447l-0.225-0.223c0-0.146-0.076-0.297-0.223-0.447V98.66l0.223,0.224
			l0.225,0.223l0.668-0.223l0.447-0.224l-0.893-0.446l-0.447-0.224l0.225,0.224c0-0.146,0.033-0.185,0.111-0.111
			c0.072,0.076,0.111,0.038,0.111-0.112c-0.15,0-0.223-0.146-0.223-0.446l0.223-0.224l-0.223-0.446h0.223l-0.223-0.224l0.445-0.446
			l0.447,0.224h-0.225l-0.223,0.223h-0.223l0.445,0.224l-0.223,0.224l0.447,0.223l0.445-0.223v-0.224l-0.223-0.446h0.223
			l0.225-0.224l0.223,0.224v-0.224l-0.223-0.224l-0.67-0.223l-0.225-0.224c0-0.296,0.148-0.631,0.447-1.005
			c0.297-0.369,0.447-0.854,0.447-1.451h0.223c0-0.446,0.111-0.816,0.336-1.116c0.223-0.297,0.334-0.593,0.334-0.894l0.223,0.224
			l0.225-0.224l-0.225,0.447l0.447-0.224v0.224c0.146,0,0.223-0.073,0.223-0.224l-0.223-0.224l-0.223-0.223l-0.225,0.223
			l-0.223-0.223c0.146-0.146,0.297-0.37,0.447-0.67c0.297-0.593,0.445-0.967,0.445-1.116v-0.224c0,0.15,0.035,0.038,0.111-0.335
			c0.074-0.37,0.186-0.781,0.336-1.228c0.146-0.447,0.258-0.894,0.334-1.34c0.074-0.447,0.113-0.594,0.113-0.447
			c-2.533,2.68-4.689,4.912-6.477,6.699c-1.785,1.786-3.684,3.684-5.693,5.693s-3.76,3.684-5.246,5.023
			c-1.043,0-1.676-0.262-1.898-0.781c-0.223-0.523-0.301-1.081-0.223-1.675c0.072-0.593,0.223-1.151,0.445-1.675
			c0.225-0.52,0.258-0.854,0.111-1.004h0.225c-0.301-0.297-0.447-0.594-0.447-0.894V95.98c0-0.146-0.039-0.258-0.111-0.334
			c-0.076-0.074-0.111-0.186-0.111-0.335l0.223-0.224v-0.224v-0.223c0-1.34,0.223-2.603,0.67-3.796v0.223
			c0.146-0.146,0.223-0.335,0.223-0.558c0-0.224-0.373-0.408-1.115-0.559h0.445l0.447,0.224h0.223c0-1.933-0.188-2.715-0.557-2.345
			c-0.375,0.373-0.486,0.412-0.336,0.111c-2.232,4.766-3.984,8.412-5.246,10.941c-1.264,2.529-2.27,4.389-3.016,5.582
			c-0.742,1.189-1.301,2.044-1.674,2.567c-0.371,0.52-0.705,1.151-1.006,1.898c0,0.146-0.072,0.296-0.223,0.446v0.224
			c-0.594,0-0.893-0.301-0.893-0.894v-0.67c-0.146,0-0.225,0.146-0.225,0.446l-0.223-0.893c0.15,0,0.223,0.034,0.223,0.111
			c0,0.073,0.078,0.111,0.225,0.111c-0.297,0.146-0.336,0.112-0.111-0.111c0.223-0.224,0.188-0.484-0.113-0.781v0.223v-0.669v0.223
			c0.15,0,0.225-0.3,0.225-0.893v0.223c0,0.146,0.15,0.224,0.445,0.224c0.15,0,0.301,0.073,0.447,0.224
			c0.15-0.301,0.223-0.636,0.223-1.005c0-0.374,0.078-0.782,0.225-1.229l0.223-0.223c0-0.15-0.072-0.301-0.223-0.447
			c0-0.446,0-0.858,0-1.228c0-0.374,0.111-1.005,0.334-1.898c0.225-0.893,0.635-2.156,1.229-3.796
			c0.596-1.636,1.416-4.019,2.455-7.145c-0.146-0.146-0.223-0.297-0.223-0.446c0-0.297,0.223-1.117,0.67-2.456
			c0.447-1.34,0.816-2.68,1.117-4.02h0.223c0.146-0.743,0.408-1.486,0.781-2.232c0.369-0.743,0.631-1.486,0.781-2.233l0.225,0.224
			c0.146-0.146,0.223-0.37,0.223-0.67v-0.224c0.146-0.146,0.369-0.67,0.67-1.562c0.297-0.894,0.52-1.563,0.67-2.01V74.1
			c0-0.146,0.072-0.297,0.223-0.447c0-0.146,0.035-0.223,0.111-0.223c0.074,0,0.111-0.073,0.111-0.224l0.447,0.67l0.447-1.116
			l-0.225-0.446l0.225-0.224h-0.447c0.297-0.297,0.594-0.816,0.893-1.563c0.297-0.742,0.744-1.116,1.34-1.116
			c0.146,0,0.52,0.15,1.117,0.447c0.297-0.146,1.039-0.224,2.232-0.224c0.893,0.15,1.598,0.708,2.121,1.675
			c0.52,0.97,0.781,1.602,0.781,1.897v0.224c0,0.446,0.035,0.858,0.111,1.228c0.074,0.374,0.113,0.709,0.113,1.005
			c0.146,2.087,0.033,4.393-0.336,6.922c-0.373,2.533-0.857,4.766-1.451,6.698c0.744-0.743,2.232-2.603,4.465-5.582
			c1.191-1.486,2.529-3.199,4.02-5.135v-0.224l0.447-0.446v0.223c0-0.146,0.035-0.258,0.111-0.335
			c0.074-0.073,0.111-0.185,0.111-0.335v-0.223l0.67-0.67l0.223-0.446l1.117-1.563l0.447-0.894v0.224
			c0.146-0.146,0.223-0.297,0.223-0.446l0.447-0.894c-0.15,0.3-0.225,0.523-0.225,0.67v0.224l0.67,1.116
			c0,0.15,0.074,0.3,0.225,0.446l0.445-0.223h0.447c-0.15,0-0.223,0.076-0.223,0.223c0.742-1.039,1.412-1.971,2.008-2.791
			c0.594-0.816,1.041-1.675,1.34-2.567l-0.223,0.446l-0.223-0.223c0,0.149-0.039,0.188-0.111,0.111
			c-0.078-0.073-0.113-0.035-0.113,0.111c0,0.3-0.111,0.67-0.334,1.116c-0.223,0.447-0.412,0.894-0.559,1.34l-0.223-0.223
			c0,0.597-0.301,1.043-0.893,1.339h-0.447l0.447-0.223h0.223c0.297,0,0.445-0.224,0.445-0.67v-0.67l-0.223-0.224
			c-0.445,0-0.67,0.15-0.67,0.447l-0.223,0.223h0.223l-0.445,1.116l-0.447-0.223l-0.223,0.67l0.223-0.894V72.76l0.223-0.894
			l-0.223,0.224v-0.894l1.785-2.456l0.225-0.67l0.445-0.446h-0.223c0-0.146,0.035-0.223,0.111-0.223
			c0.074,0,0.111-0.073,0.111-0.224h0.225l1.115-1.563l0.67-1.34l0.225,0.223l-0.225-0.223l0.447-0.446l0.67-1.787
			c0.742-0.893,1.451-1.971,2.121-3.237c0.67-1.263,1.15-2.044,1.451-2.345l-0.223,0.893V57.13v0.223l-0.225,0.67v0.67l-0.223,1.34
			V59.81l1.562-1.787l-0.445-0.223h0.223l0.447,0.223l0.223,0.447h-0.223l0.223,0.223l-0.67,0.893v0.224v0.446
			c1.189-1.933,1.859-2.903,2.01-2.903c0.146,0,0.223,0.15,0.223,0.447c0,0.3-0.037,0.597-0.111,0.893
			c-0.076,0.3-0.111,0.597-0.111,0.893c0.447-0.146,0.67-0.52,0.67-1.116V58.247z M580.305,107.145
			c-0.594,0-0.893,0.074-0.893,0.224L580.305,107.145z M597.051,93.302c0.447-0.446,0.744-0.816,0.893-1.116h-0.223h-0.447v0.223
			l0.225,0.224l-0.447,0.446V93.302z M599.061,90.846h-0.223c0-0.146-0.15-0.073-0.447,0.223v0.224l-0.223,0.67v-0.224
			c0.297-0.296,0.52-0.593,0.67-0.893H599.061z M599.508,90.176c0.146-0.146,0.258-0.297,0.334-0.446
			c0.074-0.146,0.186-0.297,0.336-0.447l-0.225-0.223L599.508,90.176z M601.07,88.166v-0.224h0.223V87.72
			c0.146,0,0.223-0.073,0.223-0.224c-0.148,0.15-0.223,0.262-0.223,0.335C601.293,87.908,601.217,88.02,601.07,88.166z
			 M604.42,83.924c-0.15,0-0.301,0.077-0.447,0.224l-0.223,0.223h0.223L604.42,83.924z M604.865,83.254l0.225-0.446l0.223-0.224
			c0.146,0,0.223-0.073,0.223-0.224c-0.15,0.15-0.262,0.301-0.334,0.447C605.123,82.957,605.012,83.107,604.865,83.254z
			 M608.215,77.002l0.447,0.446l0.445-0.67l-0.445-0.223L608.215,77.002z M608.662,95.088c0-0.146,0.072-0.297,0.223-0.446h-0.447
			L608.662,95.088z M608.885,91.738c0,0.15,0.074,0.224,0.223,0.224l0.225,0.224l0.223-0.447H608.885z M609.555,89.506l0.447-0.224
			V89.06h0.223l0.223,0.223l0.225,0.224l-0.225,0.224h-0.223L609.555,89.506z M611.564,87.05h-0.447l-0.223,0.224v0.223l0.447,0.224
			h-0.225v0.446h0.225c0-0.297,0.072-0.52,0.223-0.67v-0.223V87.05z M610.895,88.836c0.146-0.146,0.223-0.297,0.223-0.446
			l-0.223-0.224v0.446V88.836z M611.564,87.05c0.146-0.146,0.223-0.297,0.223-0.446L611.564,87.05z M612.234,69.41
			c0,0.15-0.076,0.224-0.223,0.224L612.234,69.41z M612.234,70.08c0-0.146-0.076-0.223-0.223-0.223L612.234,70.08z M614.689,69.634
			l0.895-0.894l-0.447-0.446l-0.223-0.446l-0.67,0.446l-1.117,0.894l1.117,0.446v0.224c0.146,0,0.223-0.073,0.223-0.224H614.689z
			 M614.689,65.838c-0.148,0-0.223,0.15-0.223,0.447l0.223-0.224V65.838z M616.029,68.07l0.447-0.446l0.223-1.339h-0.445
			l0.223-0.224c0.146-0.146,0.223-0.296,0.223-0.446v-0.447l-0.445-1.116l-0.67,2.009l0.223,0.447l-0.223,0.447
			c0,0.149-0.039,0.223-0.113,0.223c-0.076,0-0.111,0.076-0.111,0.224l0.225,0.223l0.223,0.224L616.029,68.07z M616.924,63.159
			l0.223,1.116l0.223,0.447l1.117-0.224c0-0.146,0.035-0.258,0.111-0.335c0.072-0.073,0.111-0.185,0.111-0.334l-0.67-0.67
			c-0.15,0-0.223,0.077-0.223,0.223v-0.223H616.924z M618.486,62.489l0.223,0.223l0.223-0.223h-0.223l-0.223-0.223V62.489z
			 M619.826,61.596c0,0.15,0.072,0.223,0.223,0.223L619.826,61.596z M620.271,60.256c0,0.15,0.074,0.223,0.225,0.223L620.271,60.256
			z M620.271,60.926v0.223V60.926z M620.719,60.033v0.223h-0.223L620.719,60.033z"/>
	</g>
</g>
</svg>
